<?xml version="1.0" encoding="UTF-8" standalone="no"?>
<!DOCTYPE svg PUBLIC "-//W3C//DTD SVG 1.1//EN"
 "http://www.w3.org/Graphics/SVG/1.1/DTD/svg11.dtd">
<!-- Generated by graphviz version 14.0.1 (20251006.0113)
 -->
<!-- Pages: 1 -->
<svg width="474pt" height="234pt"
 viewBox="0.00 0.00 474.00 234.00" xmlns="http://www.w3.org/2000/svg" xmlns:xlink="http://www.w3.org/1999/xlink">
<g id="graph0" class="graph" transform="scale(1 1) rotate(0) translate(4 230)">
<polygon fill="white" stroke="none" points="-4,4 -4,-230 470.16,-230 470.16,4 -4,4"/>
<g id="clust1" class="cluster">
<title>cluster_layer1</title>
<polygon fill="none" stroke="black" points="357.91,-117 357.91,-218 458.16,-218 458.16,-117 357.91,-117"/>
<text xml:space="preserve" text-anchor="middle" x="408.04" y="-200.7" font-family="Times,serif" font-size="14.00">layer.tar.gz</text>
</g>
<g id="clust2" class="cluster">
<title>cluster_layer2</title>
<polygon fill="none" stroke="black" points="357.91,-8 357.91,-109 458.16,-109 458.16,-8 357.91,-8"/>
<text xml:space="preserve" text-anchor="middle" x="408.04" y="-91.7" font-family="Times,serif" font-size="14.00">layer.tar.gz</text>
</g>
<!-- tag -->
<g id="node1" class="node">
<title>tag</title>
<ellipse fill="black" stroke="black" cx="10.81" cy="-100" rx="3.6" ry="3.6"/>
</g>
<!-- manifest -->
<g id="node2" class="node">
<title>manifest</title>
<polygon fill="none" stroke="black" points="139.91,-118 82.66,-118 82.66,-82 145.91,-82 145.91,-112 139.91,-118"/>
<polyline fill="none" stroke="black" points="139.91,-118 139.91,-112"/>
<polyline fill="none" stroke="black" points="145.91,-112 139.91,-112"/>
<text xml:space="preserve" text-anchor="middle" x="114.29" y="-94.95" font-family="Times,serif" font-size="14.00">manifest</text>
</g>
<!-- tag&#45;&gt;manifest -->
<g id="edge1" class="edge">
<title>tag:head&#45;&gt;manifest</title>
<path fill="none" stroke="black" d="M14.74,-100C23.19,-100 48.48,-100 71.32,-100"/>
<polygon fill="black" stroke="black" points="71.09,-103.5 81.09,-100 71.09,-96.5 71.09,-103.5"/>
<text xml:space="preserve" text-anchor="middle" x="48.54" y="-103.2" font-family="Times,serif" font-size="14.00">digest</text>
<text xml:space="preserve" text-anchor="middle" x="8.25" y="-114.92" font-family="Times,serif" font-size="14.00">tag</text>
</g>
<!-- config -->
<g id="node3" class="node">
<title>config</title>
<polygon fill="none" stroke="black" points="291.41,-118 243.41,-118 243.41,-82 297.41,-82 297.41,-112 291.41,-118"/>
<polyline fill="none" stroke="black" points="291.41,-118 291.41,-112"/>
<polyline fill="none" stroke="black" points="297.41,-112 291.41,-112"/>
<text xml:space="preserve" text-anchor="middle" x="270.41" y="-94.95" font-family="Times,serif" font-size="14.00">config</text>
</g>
<!-- manifest&#45;&gt;config -->
<g id="edge2" class="edge">
<title>manifest&#45;&gt;config</title>
<path fill="none" stroke="black" d="M146.11,-100C170.79,-100 205.51,-100 231.83,-100"/>
<polygon fill="black" stroke="black" points="231.74,-103.5 241.74,-100 231.74,-96.5 231.74,-103.5"/>
<text xml:space="preserve" text-anchor="middle" x="192.41" y="-103.2" font-family="Times,serif" font-size="14.00">(image id)</text>
</g>
<!-- l1 -->
<g id="node4" class="node">
<title>l1</title>
<polygon fill="none" stroke="black" points="438.16,-173 435.16,-177 414.16,-177 411.16,-173 377.91,-173 377.91,-137 438.16,-137 438.16,-173"/>
<text xml:space="preserve" text-anchor="middle" x="408.04" y="-149.95" font-family="Times,serif" font-size="14.00">layer.tar</text>
</g>
<!-- manifest&#45;&gt;l1 -->
<g id="edge5" class="edge">
<title>manifest&#45;&gt;l1</title>
<path fill="none" stroke="black" d="M146.23,-114.83C152.01,-117.17 158.07,-119.36 163.91,-121 224.87,-138.09 296.94,-146.79 346.71,-151.09"/>
<polygon fill="black" stroke="black" points="346.15,-154.56 356.41,-151.89 346.73,-147.58 346.15,-154.56"/>
<text xml:space="preserve" text-anchor="middle" x="270.41" y="-149.72" font-family="Times,serif" font-size="14.00">layer digest</text>
</g>
<!-- l2 -->
<g id="node5" class="node">
<title>l2</title>
<polygon fill="none" stroke="black" points="438.16,-64 435.16,-68 414.16,-68 411.16,-64 377.91,-64 377.91,-28 438.16,-28 438.16,-64"/>
<text xml:space="preserve" text-anchor="middle" x="408.04" y="-40.95" font-family="Times,serif" font-size="14.00">layer.tar</text>
</g>
<!-- manifest&#45;&gt;l2 -->
<g id="edge6" class="edge">
<title>manifest&#45;&gt;l2</title>
<path fill="none" stroke="black" d="M146.37,-86.37C170.97,-76.24 206.47,-63.09 238.91,-56.5 274.1,-49.35 314.21,-46.65 346.43,-45.77"/>
<polygon fill="black" stroke="black" points="346.48,-49.26 356.4,-45.55 346.33,-42.27 346.48,-49.26"/>
<text xml:space="preserve" text-anchor="middle" x="270.41" y="-59.7" font-family="Times,serif" font-size="14.00">layer digest</text>
</g>
<!-- config&#45;&gt;l1 -->
<g id="edge3" class="edge">
<title>config&#45;&gt;l1</title>
<path fill="none" stroke="black" d="M297.71,-106.37C313.19,-110.49 332.99,-116.4 349.91,-123.5 355.87,-126 362,-128.95 367.94,-132.02"/>
<polygon fill="black" stroke="black" points="365.89,-134.89 376.36,-136.54 369.2,-128.72 365.89,-134.89"/>
<text xml:space="preserve" text-anchor="middle" x="334.91" y="-126.7" font-family="Times,serif" font-size="14.00">diffid</text>
</g>
<!-- config&#45;&gt;l2 -->
<g id="edge4" class="edge">
<title>config&#45;&gt;l2</title>
<path fill="none" stroke="black" d="M297.88,-89.46C317.63,-81.6 344.93,-70.73 367.29,-61.83"/>
<polygon fill="black" stroke="black" points="368.41,-65.15 376.4,-58.2 365.82,-58.64 368.41,-65.15"/>
<text xml:space="preserve" text-anchor="middle" x="334.91" y="-82.62" font-family="Times,serif" font-size="14.00">diffid</text>
</g>
</g>
</svg>
