<?xml version="1.0" encoding="UTF-8" standalone="no"?>
<!DOCTYPE svg PUBLIC "-//W3C//DTD SVG 1.1//EN"
 "http://www.w3.org/Graphics/SVG/1.1/DTD/svg11.dtd">
<!-- Generated by graphviz version 2.43.0 (0)
 -->
<!-- Title: %3 Pages: 1 -->
<svg width="480pt" height="230pt"
 viewBox="0.00 0.00 479.96 230.00" xmlns="http://www.w3.org/2000/svg" xmlns:xlink="http://www.w3.org/1999/xlink">
<g id="graph0" class="graph" transform="scale(1 1) rotate(0) translate(4 226)">
<title>%3</title>
<polygon fill="white" stroke="transparent" points="-4,4 -4,-226 475.96,-226 475.96,4 -4,4"/>
<g id="clust1" class="cluster">
<title>cluster_layer1</title>
<polygon fill="none" stroke="black" points="362.96,-115 362.96,-214 463.96,-214 463.96,-115 362.96,-115"/>
<text text-anchor="middle" x="413.46" y="-198.8" font-family="Times,serif" font-size="14.00">layer.tar.gz</text>
</g>
<g id="clust2" class="cluster">
<title>cluster_layer2</title>
<polygon fill="none" stroke="black" points="362.96,-8 362.96,-107 463.96,-107 463.96,-8 362.96,-8"/>
<text text-anchor="middle" x="413.46" y="-91.8" font-family="Times,serif" font-size="14.00">layer.tar.gz</text>
</g>
<!-- tag -->
<g id="node1" class="node">
<title>tag</title>
<ellipse fill="black" stroke="black" cx="11.46" cy="-98" rx="3.5" ry="3.5"/>
</g>
<!-- manifest -->
<g id="node2" class="node">
<title>manifest</title>
<polygon fill="none" stroke="black" points="141.96,-116 83.96,-116 83.96,-80 147.96,-80 147.96,-110 141.96,-116"/>
<polyline fill="none" stroke="black" points="141.96,-116 141.96,-110 "/>
<polyline fill="none" stroke="black" points="147.96,-110 141.96,-110 "/>
<text text-anchor="middle" x="115.96" y="-94.3" font-family="Times,serif" font-size="14.00">manifest</text>
</g>
<!-- tag&#45;&gt;manifest -->
<g id="edge1" class="edge">
<title>tag:head&#45;&gt;manifest</title>
<path fill="none" stroke="black" d="M14.99,-98C23.18,-98 49.79,-98 73.49,-98"/>
<polygon fill="black" stroke="black" points="73.76,-101.5 83.76,-98 73.76,-94.5 73.76,-101.5"/>
<text text-anchor="middle" x="49.46" y="-101.8" font-family="Times,serif" font-size="14.00">digest</text>
<text text-anchor="middle" x="8.5" y="-114.27" font-family="Times,serif" font-size="14.00">tag</text>
</g>
<!-- config -->
<g id="node3" class="node">
<title>config</title>
<polygon fill="none" stroke="black" points="294.96,-116 246.96,-116 246.96,-80 300.96,-80 300.96,-110 294.96,-116"/>
<polyline fill="none" stroke="black" points="294.96,-116 294.96,-110 "/>
<polyline fill="none" stroke="black" points="300.96,-110 294.96,-110 "/>
<text text-anchor="middle" x="273.96" y="-94.3" font-family="Times,serif" font-size="14.00">config</text>
</g>
<!-- manifest&#45;&gt;config -->
<g id="edge2" class="edge">
<title>manifest&#45;&gt;config</title>
<path fill="none" stroke="black" d="M148.15,-98C173.66,-98 209.77,-98 236.59,-98"/>
<polygon fill="black" stroke="black" points="236.74,-101.5 246.74,-98 236.74,-94.5 236.74,-101.5"/>
<text text-anchor="middle" x="194.96" y="-101.8" font-family="Times,serif" font-size="14.00">(image id)</text>
</g>
<!-- l1 -->
<g id="node4" class="node">
<title>l1</title>
<polygon fill="none" stroke="black" points="443.96,-171 440.96,-175 419.96,-175 416.96,-171 382.96,-171 382.96,-135 443.96,-135 443.96,-171"/>
<text text-anchor="middle" x="413.46" y="-149.3" font-family="Times,serif" font-size="14.00">layer.tar</text>
</g>
<!-- manifest&#45;&gt;l1 -->
<g id="edge5" class="edge">
<title>manifest&#45;&gt;l1</title>
<path fill="none" stroke="black" d="M147.98,-111.23C153.87,-113.4 160.04,-115.44 165.96,-117 228.67,-133.51 302.49,-143.03 352.89,-148.09"/>
<polygon fill="black" stroke="black" points="352.67,-151.58 362.96,-149.07 353.34,-144.61 352.67,-151.58"/>
<text text-anchor="middle" x="273.96" y="-145.8" font-family="Times,serif" font-size="14.00">layer digest</text>
</g>
<!-- l2 -->
<g id="node5" class="node">
<title>l2</title>
<polygon fill="none" stroke="black" points="443.96,-64 440.96,-68 419.96,-68 416.96,-64 382.96,-64 382.96,-28 443.96,-28 443.96,-64"/>
<text text-anchor="middle" x="413.46" y="-42.3" font-family="Times,serif" font-size="14.00">layer.tar</text>
</g>
<!-- manifest&#45;&gt;l2 -->
<g id="edge6" class="edge">
<title>manifest&#45;&gt;l2</title>
<path fill="none" stroke="black" d="M148.18,-84.92C173.1,-75.12 209.14,-62.36 241.96,-56 278.27,-48.97 319.67,-46.41 352.59,-45.64"/>
<polygon fill="black" stroke="black" points="353.02,-49.14 362.96,-45.45 352.9,-42.14 353.02,-49.14"/>
<text text-anchor="middle" x="273.96" y="-59.8" font-family="Times,serif" font-size="14.00">layer digest</text>
</g>
<!-- config&#45;&gt;l1 -->
<g id="edge3" class="edge">
<title>config&#45;&gt;l1</title>
<path fill="none" stroke="black" d="M301.31,-104.96C317.12,-109.44 337.47,-115.78 354.96,-123 361.18,-125.57 367.63,-128.58 373.87,-131.68"/>
<polygon fill="black" stroke="black" points="372.3,-134.81 382.8,-136.24 375.49,-128.57 372.3,-134.81"/>
<text text-anchor="middle" x="339.46" y="-126.8" font-family="Times,serif" font-size="14.00">diffid</text>
</g>
<!-- config&#45;&gt;l2 -->
<g id="edge4" class="edge">
<title>config&#45;&gt;l2</title>
<path fill="none" stroke="black" d="M301.14,-88.1C321.46,-80.41 349.95,-69.64 373.03,-60.91"/>
<polygon fill="black" stroke="black" points="374.43,-64.12 382.54,-57.31 371.95,-57.58 374.43,-64.12"/>
<text text-anchor="middle" x="339.46" y="-81.8" font-family="Times,serif" font-size="14.00">diffid</text>
</g>
</g>
</svg>
