<?xml version="1.0" encoding="UTF-8" standalone="no"?>
<!DOCTYPE svg PUBLIC "-//W3C//DTD SVG 1.1//EN"
 "http://www.w3.org/Graphics/SVG/1.1/DTD/svg11.dtd">
<!-- Generated by graphviz version 2.40.1 (20161225.0304)
 -->
<!-- Title: %3 Pages: 1 -->
<svg width="307pt" height="188pt"
 viewBox="0.00 0.00 307.41 188.47" xmlns="http://www.w3.org/2000/svg" xmlns:xlink="http://www.w3.org/1999/xlink">
<g id="graph0" class="graph" transform="scale(1 1) rotate(0) translate(4 184.4722)">
<title>%3</title>
<polygon fill="#ffffff" stroke="transparent" points="-4,4 -4,-184.4722 303.414,-184.4722 303.414,4 -4,4"/>
<!-- tag -->
<g id="node1" class="node">
<title>tag</title>
<ellipse fill="#000000" stroke="#000000" cx="25.914" cy="-99" rx="3.5" ry="3.5"/>
</g>
<!-- index -->
<g id="node4" class="node">
<title>index</title>
<polygon fill="none" stroke="#000000" points="113.414,-117 65.414,-117 65.414,-81 119.414,-81 119.414,-111 113.414,-117"/>
<polyline fill="none" stroke="#000000" points="113.414,-117 113.414,-111 "/>
<polyline fill="none" stroke="#000000" points="119.414,-111 113.414,-111 "/>
<text text-anchor="middle" x="92.414" y="-95.3" font-family="Times,serif" font-size="14.00" fill="#000000">index</text>
</g>
<!-- tag&#45;&gt;index -->
<g id="edge1" class="edge">
<title>tag:head&#45;&gt;index</title>
<path fill="none" stroke="#000000" d="M29.4894,-99C34.6004,-99 44.5446,-99 55.0454,-99"/>
<polygon fill="#000000" stroke="#000000" points="55.1441,-102.5001 65.1441,-99 55.144,-95.5001 55.1441,-102.5001"/>
<text text-anchor="middle" x="23" y="-115.2722" font-family="Times,serif" font-size="14.00" fill="#000000">r124356</text>
</g>
<!-- tag2 -->
<g id="node2" class="node">
<title>tag2</title>
<ellipse fill="#000000" stroke="#000000" cx="92.414" cy="-45" rx="3.5" ry="3.5"/>
</g>
<!-- index2 -->
<g id="node5" class="node">
<title>index2</title>
<polygon fill="none" stroke="#000000" points="203.414,-63 155.414,-63 155.414,-27 209.414,-27 209.414,-57 203.414,-63"/>
<polyline fill="none" stroke="#000000" points="203.414,-63 203.414,-57 "/>
<polyline fill="none" stroke="#000000" points="209.414,-57 203.414,-57 "/>
<text text-anchor="middle" x="182.414" y="-41.3" font-family="Times,serif" font-size="14.00" fill="#000000">index</text>
</g>
<!-- tag2&#45;&gt;index2 -->
<g id="edge2" class="edge">
<title>tag2:head&#45;&gt;index2</title>
<path fill="none" stroke="#000000" d="M96.2812,-45C104.7802,-45 125.8583,-45 145.0347,-45"/>
<polygon fill="#000000" stroke="#000000" points="145.1057,-48.5001 155.1057,-45 145.1056,-41.5001 145.1057,-48.5001"/>
<text text-anchor="middle" x="89.7919" y="-61.2722" font-family="Times,serif" font-size="14.00" fill="#000000">stable&#45;release</text>
</g>
<!-- tag3 -->
<g id="node3" class="node">
<title>tag3</title>
<ellipse fill="#000000" stroke="#000000" cx="92.414" cy="-153" rx="3.5" ry="3.5"/>
</g>
<!-- image -->
<g id="node6" class="node">
<title>image</title>
<polygon fill="none" stroke="#000000" points="203.414,-171 155.414,-171 155.414,-135 209.414,-135 209.414,-165 203.414,-171"/>
<polyline fill="none" stroke="#000000" points="203.414,-171 203.414,-165 "/>
<polyline fill="none" stroke="#000000" points="209.414,-165 203.414,-165 "/>
<text text-anchor="middle" x="182.414" y="-149.3" font-family="Times,serif" font-size="14.00" fill="#000000">image</text>
</g>
<!-- tag3&#45;&gt;image -->
<g id="edge3" class="edge">
<title>tag3:head&#45;&gt;image</title>
<path fill="none" stroke="#000000" d="M96.2812,-153C104.7802,-153 125.8583,-153 145.0347,-153"/>
<polygon fill="#000000" stroke="#000000" points="145.1057,-156.5001 155.1057,-153 145.1056,-149.5001 145.1057,-156.5001"/>
<text text-anchor="middle" x="89.7919" y="-169.2722" font-family="Times,serif" font-size="14.00" fill="#000000">v1.0</text>
</g>
<!-- index&#45;&gt;index2 -->
<g id="edge6" class="edge">
<title>index&#45;&gt;index2</title>
<path fill="none" stroke="#000000" d="M119.417,-82.7982C127.8826,-77.7188 137.3656,-72.029 146.353,-66.6366"/>
<polygon fill="#000000" stroke="#000000" points="148.3449,-69.5232 155.1191,-61.377 144.7434,-63.5208 148.3449,-69.5232"/>
</g>
<!-- index&#45;&gt;image -->
<g id="edge4" class="edge">
<title>index&#45;&gt;image</title>
<path fill="none" stroke="#000000" d="M119.417,-115.2018C127.8826,-120.2812 137.3656,-125.971 146.353,-131.3634"/>
<polygon fill="#000000" stroke="#000000" points="144.7434,-134.4792 155.1191,-136.623 148.3449,-128.4768 144.7434,-134.4792"/>
</g>
<!-- xml -->
<g id="node9" class="node">
<title>xml</title>
<ellipse fill="none" stroke="#000000" cx="182.414" cy="-99" rx="27" ry="18"/>
<text text-anchor="middle" x="182.414" y="-95.3" font-family="Times,serif" font-size="14.00" fill="#000000">xml</text>
</g>
<!-- index&#45;&gt;xml -->
<g id="edge5" class="edge">
<title>index&#45;&gt;xml</title>
<path fill="none" stroke="#000000" d="M119.417,-99C127.4417,-99 136.3806,-99 144.9449,-99"/>
<polygon fill="#000000" stroke="#000000" points="145.1191,-102.5001 155.1191,-99 145.119,-95.5001 145.1191,-102.5001"/>
</g>
<!-- image2 -->
<g id="node7" class="node">
<title>image2</title>
<polygon fill="none" stroke="#000000" points="293.414,-90 245.414,-90 245.414,-54 299.414,-54 299.414,-84 293.414,-90"/>
<polyline fill="none" stroke="#000000" points="293.414,-90 293.414,-84 "/>
<polyline fill="none" stroke="#000000" points="299.414,-84 293.414,-84 "/>
<text text-anchor="middle" x="272.414" y="-68.3" font-family="Times,serif" font-size="14.00" fill="#000000">image</text>
</g>
<!-- index2&#45;&gt;image2 -->
<g id="edge7" class="edge">
<title>index2&#45;&gt;image2</title>
<path fill="none" stroke="#000000" d="M209.417,-53.1009C217.6181,-55.5612 226.7739,-58.308 235.509,-60.9285"/>
<polygon fill="#000000" stroke="#000000" points="234.535,-64.2904 245.1191,-63.8115 236.5465,-57.5856 234.535,-64.2904"/>
</g>
<!-- image3 -->
<g id="node8" class="node">
<title>image3</title>
<polygon fill="none" stroke="#000000" points="293.414,-36 245.414,-36 245.414,0 299.414,0 299.414,-30 293.414,-36"/>
<polyline fill="none" stroke="#000000" points="293.414,-36 293.414,-30 "/>
<polyline fill="none" stroke="#000000" points="299.414,-30 293.414,-30 "/>
<text text-anchor="middle" x="272.414" y="-14.3" font-family="Times,serif" font-size="14.00" fill="#000000">image</text>
</g>
<!-- index2&#45;&gt;image3 -->
<g id="edge8" class="edge">
<title>index2&#45;&gt;image3</title>
<path fill="none" stroke="#000000" d="M209.417,-36.8991C217.6181,-34.4388 226.7739,-31.692 235.509,-29.0715"/>
<polygon fill="#000000" stroke="#000000" points="236.5465,-32.4144 245.1191,-26.1885 234.535,-25.7096 236.5465,-32.4144"/>
</g>
</g>
</svg>
