<?xml version="1.0" encoding="UTF-8" standalone="no"?>
<!DOCTYPE svg PUBLIC "-//W3C//DTD SVG 1.1//EN"
 "http://www.w3.org/Graphics/SVG/1.1/DTD/svg11.dtd">
<!-- Generated by graphviz version 2.40.1 (20161225.0304)
 -->
<!-- Title: %3 Pages: 1 -->
<svg width="209pt" height="143pt"
 viewBox="0.00 0.00 208.91 143.25" xmlns="http://www.w3.org/2000/svg" xmlns:xlink="http://www.w3.org/1999/xlink">
<g id="graph0" class="graph" transform="scale(1 1) rotate(0) translate(4 139.2506)">
<title>%3</title>
<polygon fill="#ffffff" stroke="transparent" points="-4,4 -4,-139.2506 204.914,-139.2506 204.914,4 -4,4"/>
<!-- tag -->
<g id="node1" class="node">
<title>tag</title>
<ellipse fill="#000000" stroke="#000000" cx="17.414" cy="-67.6362" rx="3.5" ry="3.5"/>
</g>
<!-- index -->
<g id="node4" class="node">
<title>index</title>
<polygon fill="none" stroke="#000000" points="104.914,-85.6362 56.914,-85.6362 56.914,-49.6362 110.914,-49.6362 110.914,-79.6362 104.914,-85.6362"/>
<polyline fill="none" stroke="#000000" points="104.914,-85.6362 104.914,-79.6362 "/>
<polyline fill="none" stroke="#000000" points="110.914,-79.6362 104.914,-79.6362 "/>
<text text-anchor="middle" x="83.914" y="-63.9362" font-family="Times,serif" font-size="14.00" fill="#000000">index</text>
</g>
<!-- tag&#45;&gt;index -->
<g id="edge1" class="edge">
<title>tag:head&#45;&gt;index</title>
<path fill="none" stroke="#000000" d="M20.9894,-67.6362C26.1004,-67.6362 36.0446,-67.6362 46.5454,-67.6362"/>
<polygon fill="#000000" stroke="#000000" points="46.6441,-71.1363 56.6441,-67.6362 46.644,-64.1363 46.6441,-71.1363"/>
<text text-anchor="middle" x="14.5" y="-83.9084" font-family="Times,serif" font-size="14.00" fill="#000000">latest</text>
</g>
<!-- tag2 -->
<g id="node2" class="node">
<title>tag2</title>
<ellipse fill="#000000" stroke="#000000" cx="83.914" cy="-107.6362" rx="3.5" ry="3.5"/>
</g>
<!-- image -->
<g id="node5" class="node">
<title>image</title>
<polygon fill="none" stroke="#000000" points="194.914,-118.6362 146.914,-118.6362 146.914,-82.6362 200.914,-82.6362 200.914,-112.6362 194.914,-118.6362"/>
<polyline fill="none" stroke="#000000" points="194.914,-118.6362 194.914,-112.6362 "/>
<polyline fill="none" stroke="#000000" points="200.914,-112.6362 194.914,-112.6362 "/>
<text text-anchor="middle" x="173.914" y="-96.9362" font-family="Times,serif" font-size="14.00" fill="#000000">image</text>
</g>
<!-- tag2&#45;&gt;image -->
<g id="edge2" class="edge">
<title>tag2:head&#45;&gt;image</title>
<path fill="none" stroke="#000000" d="M87.7812,-107.3354C96.2802,-106.6744 117.3583,-105.035 136.5347,-103.5435"/>
<polygon fill="#000000" stroke="#000000" points="136.9072,-107.0251 146.6057,-102.7602 136.3644,-100.0462 136.9072,-107.0251"/>
<text text-anchor="middle" x="82.8601" y="-124.0506" font-family="Times,serif" font-size="14.00" fill="#000000">amd64</text>
</g>
<!-- tag3 -->
<g id="node3" class="node">
<title>tag3</title>
<ellipse fill="#000000" stroke="#000000" cx="83.914" cy="-27.6362" rx="3.5" ry="3.5"/>
</g>
<!-- image2 -->
<g id="node6" class="node">
<title>image2</title>
<polygon fill="none" stroke="#000000" points="194.914,-58.6362 146.914,-58.6362 146.914,-22.6362 200.914,-22.6362 200.914,-52.6362 194.914,-58.6362"/>
<polyline fill="none" stroke="#000000" points="194.914,-58.6362 194.914,-52.6362 "/>
<polyline fill="none" stroke="#000000" points="200.914,-52.6362 194.914,-52.6362 "/>
<text text-anchor="middle" x="173.914" y="-36.9362" font-family="Times,serif" font-size="14.00" fill="#000000">image</text>
</g>
<!-- tag3&#45;&gt;image2 -->
<g id="edge3" class="edge">
<title>tag3:head&#45;&gt;image2</title>
<path fill="none" stroke="#000000" d="M87.7812,-28.1948C96.2802,-29.4224 117.3583,-32.467 136.5347,-35.2369"/>
<polygon fill="#000000" stroke="#000000" points="136.208,-38.726 146.6057,-36.6916 137.2088,-31.7979 136.208,-38.726"/>
<text text-anchor="middle" x="84.2138" y="-3.8" font-family="Times,serif" font-size="14.00" fill="#000000">ppc64le</text>
</g>
<!-- index&#45;&gt;image -->
<g id="edge4" class="edge">
<title>index&#45;&gt;image</title>
<path fill="none" stroke="#000000" d="M110.917,-77.5373C119.1181,-80.5443 128.2739,-83.9015 137.009,-87.1043"/>
<polygon fill="#000000" stroke="#000000" points="136.0254,-90.4715 146.6191,-90.628 138.4352,-83.8993 136.0254,-90.4715"/>
</g>
<!-- index&#45;&gt;image2 -->
<g id="edge5" class="edge">
<title>index&#45;&gt;image2</title>
<path fill="none" stroke="#000000" d="M110.917,-59.5353C119.1181,-57.075 128.2739,-54.3282 137.009,-51.7077"/>
<polygon fill="#000000" stroke="#000000" points="138.0465,-55.0506 146.6191,-48.8247 136.035,-48.3458 138.0465,-55.0506"/>
</g>
</g>
</svg>
