<?xml version="1.0" encoding="UTF-8" standalone="no"?>
<!DOCTYPE svg PUBLIC "-//W3C//DTD SVG 1.1//EN"
 "http://www.w3.org/Graphics/SVG/1.1/DTD/svg11.dtd">
<!-- Generated by graphviz version 2.43.0 (0)
 -->
<!-- Title: %3 Pages: 1 -->
<svg width="209pt" height="144pt"
 viewBox="0.00 0.00 208.72 143.55" xmlns="http://www.w3.org/2000/svg" xmlns:xlink="http://www.w3.org/1999/xlink">
<g id="graph0" class="graph" transform="scale(1 1) rotate(0) translate(4 139.55)">
<title>%3</title>
<polygon fill="white" stroke="transparent" points="-4,4 -4,-139.55 204.72,-139.55 204.72,4 -4,4"/>
<!-- tag -->
<g id="node1" class="node">
<title>tag</title>
<ellipse fill="black" stroke="black" cx="17.22" cy="-67.83" rx="3.5" ry="3.5"/>
</g>
<!-- index -->
<g id="node4" class="node">
<title>index</title>
<polygon fill="none" stroke="black" points="104.72,-85.83 56.72,-85.83 56.72,-49.83 110.72,-49.83 110.72,-79.83 104.72,-85.83"/>
<polyline fill="none" stroke="black" points="104.72,-85.83 104.72,-79.83 "/>
<polyline fill="none" stroke="black" points="110.72,-79.83 104.72,-79.83 "/>
<text text-anchor="middle" x="83.72" y="-64.13" font-family="Times,serif" font-size="14.00">index</text>
</g>
<!-- tag&#45;&gt;index -->
<g id="edge1" class="edge">
<title>tag:head&#45;&gt;index</title>
<path fill="none" stroke="black" d="M20.99,-67.83C25.67,-67.83 35.66,-67.83 46.27,-67.83"/>
<polygon fill="black" stroke="black" points="46.48,-71.33 56.48,-67.83 46.48,-64.33 46.48,-71.33"/>
<text text-anchor="middle" x="14.5" y="-84.1" font-family="Times,serif" font-size="14.00">latest</text>
</g>
<!-- tag2 -->
<g id="node2" class="node">
<title>tag2</title>
<ellipse fill="black" stroke="black" cx="83.72" cy="-107.83" rx="3.5" ry="3.5"/>
</g>
<!-- image -->
<g id="node5" class="node">
<title>image</title>
<polygon fill="none" stroke="black" points="194.72,-118.83 146.72,-118.83 146.72,-82.83 200.72,-82.83 200.72,-112.83 194.72,-118.83"/>
<polyline fill="none" stroke="black" points="194.72,-118.83 194.72,-112.83 "/>
<polyline fill="none" stroke="black" points="200.72,-112.83 194.72,-112.83 "/>
<text text-anchor="middle" x="173.72" y="-97.13" font-family="Times,serif" font-size="14.00">image</text>
</g>
<!-- tag2&#45;&gt;image -->
<g id="edge2" class="edge">
<title>tag2:head&#45;&gt;image</title>
<path fill="none" stroke="black" d="M87.26,-107.63C94.6,-107.05 116.6,-105.29 136.45,-103.72"/>
<polygon fill="black" stroke="black" points="136.84,-107.2 146.53,-102.91 136.29,-100.22 136.84,-107.2"/>
<text text-anchor="middle" x="82.37" y="-124.35" font-family="Times,serif" font-size="14.00">amd64</text>
</g>
<!-- tag3 -->
<g id="node3" class="node">
<title>tag3</title>
<ellipse fill="black" stroke="black" cx="83.72" cy="-27.83" rx="3.5" ry="3.5"/>
</g>
<!-- image2 -->
<g id="node6" class="node">
<title>image2</title>
<polygon fill="none" stroke="black" points="194.72,-58.83 146.72,-58.83 146.72,-22.83 200.72,-22.83 200.72,-52.83 194.72,-58.83"/>
<polyline fill="none" stroke="black" points="194.72,-58.83 194.72,-52.83 "/>
<polyline fill="none" stroke="black" points="200.72,-52.83 194.72,-52.83 "/>
<text text-anchor="middle" x="173.72" y="-37.13" font-family="Times,serif" font-size="14.00">image</text>
</g>
<!-- tag3&#45;&gt;image2 -->
<g id="edge3" class="edge">
<title>tag3:head&#45;&gt;image2</title>
<path fill="none" stroke="black" d="M87.26,-28.21C94.6,-29.29 116.6,-32.54 136.45,-35.47"/>
<polygon fill="black" stroke="black" points="136.13,-38.96 146.53,-36.96 137.15,-32.04 136.13,-38.96"/>
<text text-anchor="middle" x="83.76" y="-3.8" font-family="Times,serif" font-size="14.00">ppc64le</text>
</g>
<!-- index&#45;&gt;image -->
<g id="edge4" class="edge">
<title>index&#45;&gt;image</title>
<path fill="none" stroke="black" d="M111.12,-77.73C119.29,-80.79 128.42,-84.22 137.1,-87.48"/>
<polygon fill="black" stroke="black" points="136.04,-90.82 146.64,-91.05 138.5,-84.26 136.04,-90.82"/>
</g>
<!-- index&#45;&gt;image2 -->
<g id="edge5" class="edge">
<title>index&#45;&gt;image2</title>
<path fill="none" stroke="black" d="M111.12,-59.73C119.2,-57.25 128.22,-54.48 136.82,-51.84"/>
<polygon fill="black" stroke="black" points="138.1,-55.11 146.64,-48.83 136.05,-48.42 138.1,-55.11"/>
</g>
</g>
</svg>
