<?xml version="1.0" encoding="UTF-8" standalone="no"?>
<!DOCTYPE svg PUBLIC "-//W3C//DTD SVG 1.1//EN"
 "http://www.w3.org/Graphics/SVG/1.1/DTD/svg11.dtd">
<!-- Generated by graphviz version 14.0.1 (20251006.0113)
 -->
<!-- Pages: 1 -->
<svg width="209pt" height="145pt"
 viewBox="0.00 0.00 209.00 145.00" xmlns="http://www.w3.org/2000/svg" xmlns:xlink="http://www.w3.org/1999/xlink">
<g id="graph0" class="graph" transform="scale(1 1) rotate(0) translate(4 140.96)">
<polygon fill="white" stroke="none" points="-4,4 -4,-140.96 204.56,-140.96 204.56,4 -4,4"/>
<!-- tag -->
<g id="node1" class="node">
<title>tag</title>
<ellipse fill="black" stroke="black" cx="16.96" cy="-68.52" rx="3.6" ry="3.6"/>
</g>
<!-- index -->
<g id="node4" class="node">
<title>index</title>
<polygon fill="none" stroke="black" points="104.56,-86.52 56.56,-86.52 56.56,-50.52 110.56,-50.52 110.56,-80.52 104.56,-86.52"/>
<polyline fill="none" stroke="black" points="104.56,-86.52 104.56,-80.52"/>
<polyline fill="none" stroke="black" points="110.56,-80.52 104.56,-80.52"/>
<text xml:space="preserve" text-anchor="middle" x="83.56" y="-63.47" font-family="Times,serif" font-size="14.00">index</text>
</g>
<!-- tag&#45;&gt;index -->
<g id="edge1" class="edge">
<title>tag:head&#45;&gt;index</title>
<path fill="none" stroke="black" d="M20.74,-68.52C25.28,-68.52 34.82,-68.52 45.08,-68.52"/>
<polygon fill="black" stroke="black" points="44.77,-72.02 54.77,-68.52 44.77,-65.02 44.77,-72.02"/>
<text xml:space="preserve" text-anchor="middle" x="14.25" y="-83.45" font-family="Times,serif" font-size="14.00">latest</text>
</g>
<!-- tag2 -->
<g id="node2" class="node">
<title>tag2</title>
<ellipse fill="black" stroke="black" cx="83.56" cy="-108.52" rx="3.6" ry="3.6"/>
</g>
<!-- image -->
<g id="node5" class="node">
<title>image</title>
<polygon fill="none" stroke="black" points="194.56,-119.52 146.56,-119.52 146.56,-83.52 200.56,-83.52 200.56,-113.52 194.56,-119.52"/>
<polyline fill="none" stroke="black" points="194.56,-119.52 194.56,-113.52"/>
<polyline fill="none" stroke="black" points="200.56,-113.52 194.56,-113.52"/>
<text xml:space="preserve" text-anchor="middle" x="173.56" y="-96.47" font-family="Times,serif" font-size="14.00">image</text>
</g>
<!-- tag2&#45;&gt;image -->
<g id="edge2" class="edge">
<title>tag2:head&#45;&gt;image</title>
<path fill="none" stroke="black" d="M87.49,-108.29C95.03,-107.69 115.89,-106.03 135.06,-104.51"/>
<polygon fill="black" stroke="black" points="135.14,-108.01 144.83,-103.73 134.58,-101.03 135.14,-108.01"/>
<text xml:space="preserve" text-anchor="middle" x="82.61" y="-123.66" font-family="Times,serif" font-size="14.00">amd64</text>
</g>
<!-- tag3 -->
<g id="node3" class="node">
<title>tag3</title>
<ellipse fill="black" stroke="black" cx="83.56" cy="-28.52" rx="3.6" ry="3.6"/>
</g>
<!-- image2 -->
<g id="node6" class="node">
<title>image2</title>
<polygon fill="none" stroke="black" points="194.56,-59.52 146.56,-59.52 146.56,-23.52 200.56,-23.52 200.56,-53.52 194.56,-59.52"/>
<polyline fill="none" stroke="black" points="194.56,-59.52 194.56,-53.52"/>
<polyline fill="none" stroke="black" points="200.56,-53.52 194.56,-53.52"/>
<text xml:space="preserve" text-anchor="middle" x="173.56" y="-36.47" font-family="Times,serif" font-size="14.00">image</text>
</g>
<!-- tag3&#45;&gt;image2 -->
<g id="edge3" class="edge">
<title>tag3:head&#45;&gt;image2</title>
<path fill="none" stroke="black" d="M87.49,-28.96C95.03,-30.07 115.89,-33.15 135.06,-35.98"/>
<polygon fill="black" stroke="black" points="134.44,-39.43 144.84,-37.43 135.46,-32.5 134.44,-39.43"/>
<text xml:space="preserve" text-anchor="middle" x="83.99" y="-3.2" font-family="Times,serif" font-size="14.00">ppc64le</text>
</g>
<!-- index&#45;&gt;image -->
<g id="edge4" class="edge">
<title>index&#45;&gt;image</title>
<path fill="none" stroke="black" d="M110.97,-78.42C118.71,-81.33 127.33,-84.56 135.6,-87.66"/>
<polygon fill="black" stroke="black" points="134.17,-90.86 144.76,-91.1 136.63,-84.31 134.17,-90.86"/>
</g>
<!-- index&#45;&gt;image2 -->
<g id="edge5" class="edge">
<title>index&#45;&gt;image2</title>
<path fill="none" stroke="black" d="M110.97,-60.42C118.62,-58.07 127.13,-55.46 135.32,-52.95"/>
<polygon fill="black" stroke="black" points="136.2,-56.34 144.73,-50.06 134.15,-49.65 136.2,-56.34"/>
</g>
</g>
</svg>
