<?xml version="1.0" encoding="UTF-8" standalone="no"?>
<!DOCTYPE svg PUBLIC "-//W3C//DTD SVG 1.1//EN"
 "http://www.w3.org/Graphics/SVG/1.1/DTD/svg11.dtd">
<!-- Generated by graphviz version 2.43.0 (0)
 -->
<!-- Title: %3 Pages: 1 -->
<svg width="307pt" height="188pt"
 viewBox="0.00 0.00 307.22 188.47" xmlns="http://www.w3.org/2000/svg" xmlns:xlink="http://www.w3.org/1999/xlink">
<g id="graph0" class="graph" transform="scale(1 1) rotate(0) translate(4 184.47)">
<title>%3</title>
<polygon fill="white" stroke="transparent" points="-4,4 -4,-184.47 303.22,-184.47 303.22,4 -4,4"/>
<!-- tag -->
<g id="node1" class="node">
<title>tag</title>
<ellipse fill="black" stroke="black" cx="25.72" cy="-99" rx="3.5" ry="3.5"/>
</g>
<!-- index -->
<g id="node4" class="node">
<title>index</title>
<polygon fill="none" stroke="black" points="113.22,-117 65.22,-117 65.22,-81 119.22,-81 119.22,-111 113.22,-117"/>
<polyline fill="none" stroke="black" points="113.22,-117 113.22,-111 "/>
<polyline fill="none" stroke="black" points="119.22,-111 113.22,-111 "/>
<text text-anchor="middle" x="92.22" y="-95.3" font-family="Times,serif" font-size="14.00">index</text>
</g>
<!-- tag&#45;&gt;index -->
<g id="edge1" class="edge">
<title>tag:head&#45;&gt;index</title>
<path fill="none" stroke="black" d="M29.49,-99C34.17,-99 44.16,-99 54.77,-99"/>
<polygon fill="black" stroke="black" points="54.98,-102.5 64.98,-99 54.98,-95.5 54.98,-102.5"/>
<text text-anchor="middle" x="23" y="-115.27" font-family="Times,serif" font-size="14.00">r124356</text>
</g>
<!-- tag2 -->
<g id="node2" class="node">
<title>tag2</title>
<ellipse fill="black" stroke="black" cx="92.22" cy="-45" rx="3.5" ry="3.5"/>
</g>
<!-- index2 -->
<g id="node5" class="node">
<title>index2</title>
<polygon fill="none" stroke="black" points="203.22,-63 155.22,-63 155.22,-27 209.22,-27 209.22,-57 203.22,-63"/>
<polyline fill="none" stroke="black" points="203.22,-63 203.22,-57 "/>
<polyline fill="none" stroke="black" points="209.22,-57 203.22,-57 "/>
<text text-anchor="middle" x="182.22" y="-41.3" font-family="Times,serif" font-size="14.00">index</text>
</g>
<!-- tag2&#45;&gt;index2 -->
<g id="edge2" class="edge">
<title>tag2:head&#45;&gt;index2</title>
<path fill="none" stroke="black" d="M95.76,-45C103.1,-45 125.1,-45 144.95,-45"/>
<polygon fill="black" stroke="black" points="145.03,-48.5 155.03,-45 145.03,-41.5 145.03,-48.5"/>
<text text-anchor="middle" x="89.27" y="-61.27" font-family="Times,serif" font-size="14.00">stable&#45;release</text>
</g>
<!-- tag3 -->
<g id="node3" class="node">
<title>tag3</title>
<ellipse fill="black" stroke="black" cx="92.22" cy="-153" rx="3.5" ry="3.5"/>
</g>
<!-- image -->
<g id="node6" class="node">
<title>image</title>
<polygon fill="none" stroke="black" points="203.22,-171 155.22,-171 155.22,-135 209.22,-135 209.22,-165 203.22,-171"/>
<polyline fill="none" stroke="black" points="203.22,-171 203.22,-165 "/>
<polyline fill="none" stroke="black" points="209.22,-165 203.22,-165 "/>
<text text-anchor="middle" x="182.22" y="-149.3" font-family="Times,serif" font-size="14.00">image</text>
</g>
<!-- tag3&#45;&gt;image -->
<g id="edge3" class="edge">
<title>tag3:head&#45;&gt;image</title>
<path fill="none" stroke="black" d="M95.76,-153C103.1,-153 125.1,-153 144.95,-153"/>
<polygon fill="black" stroke="black" points="145.03,-156.5 155.03,-153 145.03,-149.5 145.03,-156.5"/>
<text text-anchor="middle" x="89.27" y="-169.27" font-family="Times,serif" font-size="14.00">v1.0</text>
</g>
<!-- index&#45;&gt;index2 -->
<g id="edge6" class="edge">
<title>index&#45;&gt;index2</title>
<path fill="none" stroke="black" d="M119.62,-82.8C128.05,-77.63 137.51,-71.82 146.44,-66.34"/>
<polygon fill="black" stroke="black" points="148.44,-69.22 155.14,-61 144.78,-63.25 148.44,-69.22"/>
</g>
<!-- index&#45;&gt;image -->
<g id="edge4" class="edge">
<title>index&#45;&gt;image</title>
<path fill="none" stroke="black" d="M119.62,-115.2C128.05,-120.37 137.51,-126.18 146.44,-131.66"/>
<polygon fill="black" stroke="black" points="144.78,-134.75 155.14,-137 148.44,-128.78 144.78,-134.75"/>
</g>
<!-- xml -->
<g id="node9" class="node">
<title>xml</title>
<ellipse fill="none" stroke="black" cx="182.22" cy="-99" rx="27" ry="18"/>
<text text-anchor="middle" x="182.22" y="-95.3" font-family="Times,serif" font-size="14.00">xml</text>
</g>
<!-- index&#45;&gt;xml -->
<g id="edge5" class="edge">
<title>index&#45;&gt;xml</title>
<path fill="none" stroke="black" d="M119.62,-99C127.61,-99 136.53,-99 145.04,-99"/>
<polygon fill="black" stroke="black" points="145.14,-102.5 155.14,-99 145.14,-95.5 145.14,-102.5"/>
</g>
<!-- image2 -->
<g id="node7" class="node">
<title>image2</title>
<polygon fill="none" stroke="black" points="293.22,-90 245.22,-90 245.22,-54 299.22,-54 299.22,-84 293.22,-90"/>
<polyline fill="none" stroke="black" points="293.22,-90 293.22,-84 "/>
<polyline fill="none" stroke="black" points="299.22,-84 293.22,-84 "/>
<text text-anchor="middle" x="272.22" y="-68.3" font-family="Times,serif" font-size="14.00">image</text>
</g>
<!-- index2&#45;&gt;image2 -->
<g id="edge7" class="edge">
<title>index2&#45;&gt;image2</title>
<path fill="none" stroke="black" d="M209.62,-53.1C217.7,-55.58 226.72,-58.35 235.32,-60.99"/>
<polygon fill="black" stroke="black" points="234.55,-64.41 245.14,-64 236.6,-57.72 234.55,-64.41"/>
</g>
<!-- image3 -->
<g id="node8" class="node">
<title>image3</title>
<polygon fill="none" stroke="black" points="293.22,-36 245.22,-36 245.22,0 299.22,0 299.22,-30 293.22,-36"/>
<polyline fill="none" stroke="black" points="293.22,-36 293.22,-30 "/>
<polyline fill="none" stroke="black" points="299.22,-30 293.22,-30 "/>
<text text-anchor="middle" x="272.22" y="-14.3" font-family="Times,serif" font-size="14.00">image</text>
</g>
<!-- index2&#45;&gt;image3 -->
<g id="edge8" class="edge">
<title>index2&#45;&gt;image3</title>
<path fill="none" stroke="black" d="M209.62,-36.9C217.7,-34.42 226.72,-31.65 235.32,-29.01"/>
<polygon fill="black" stroke="black" points="236.6,-32.28 245.14,-26 234.55,-25.59 236.6,-32.28"/>
</g>
</g>
</svg>
