<?xml version="1.0" encoding="UTF-8" standalone="no"?>
<!DOCTYPE svg PUBLIC "-//W3C//DTD SVG 1.1//EN"
 "http://www.w3.org/Graphics/SVG/1.1/DTD/svg11.dtd">
<!-- Generated by graphviz version 14.0.1 (20251006.0113)
 -->
<!-- Pages: 1 -->
<svg width="307pt" height="189pt"
 viewBox="0.00 0.00 307.00 189.00" xmlns="http://www.w3.org/2000/svg" xmlns:xlink="http://www.w3.org/1999/xlink">
<g id="graph0" class="graph" transform="scale(1 1) rotate(0) translate(4 185.22)">
<polygon fill="white" stroke="none" points="-4,4 -4,-185.22 302.81,-185.22 302.81,4 -4,4"/>
<!-- tag -->
<g id="node1" class="node">
<title>tag</title>
<ellipse fill="black" stroke="black" cx="25.21" cy="-99" rx="3.6" ry="3.6"/>
</g>
<!-- index -->
<g id="node4" class="node">
<title>index</title>
<polygon fill="none" stroke="black" points="112.81,-117 64.81,-117 64.81,-81 118.81,-81 118.81,-111 112.81,-117"/>
<polyline fill="none" stroke="black" points="112.81,-117 112.81,-111"/>
<polyline fill="none" stroke="black" points="118.81,-111 112.81,-111"/>
<text xml:space="preserve" text-anchor="middle" x="91.81" y="-93.95" font-family="Times,serif" font-size="14.00">index</text>
</g>
<!-- tag&#45;&gt;index -->
<g id="edge1" class="edge">
<title>tag:head&#45;&gt;index</title>
<path fill="none" stroke="black" d="M28.99,-99C33.53,-99 43.07,-99 53.33,-99"/>
<polygon fill="black" stroke="black" points="53.02,-102.5 63.02,-99 53.02,-95.5 53.02,-102.5"/>
<text xml:space="preserve" text-anchor="middle" x="22.5" y="-113.92" font-family="Times,serif" font-size="14.00">r124356</text>
</g>
<!-- tag2 -->
<g id="node2" class="node">
<title>tag2</title>
<ellipse fill="black" stroke="black" cx="91.81" cy="-45" rx="3.6" ry="3.6"/>
</g>
<!-- index2 -->
<g id="node5" class="node">
<title>index2</title>
<polygon fill="none" stroke="black" points="202.81,-63 154.81,-63 154.81,-27 208.81,-27 208.81,-57 202.81,-63"/>
<polyline fill="none" stroke="black" points="202.81,-63 202.81,-57"/>
<polyline fill="none" stroke="black" points="208.81,-57 202.81,-57"/>
<text xml:space="preserve" text-anchor="middle" x="181.81" y="-39.95" font-family="Times,serif" font-size="14.00">index</text>
</g>
<!-- tag2&#45;&gt;index2 -->
<g id="edge2" class="edge">
<title>tag2:head&#45;&gt;index2</title>
<path fill="none" stroke="black" d="M95.74,-45C103.28,-45 124.14,-45 143.31,-45"/>
<polygon fill="black" stroke="black" points="143.08,-48.5 153.08,-45 143.08,-41.5 143.08,-48.5"/>
<text xml:space="preserve" text-anchor="middle" x="89.25" y="-59.92" font-family="Times,serif" font-size="14.00">stable&#45;release</text>
</g>
<!-- tag3 -->
<g id="node3" class="node">
<title>tag3</title>
<ellipse fill="black" stroke="black" cx="91.81" cy="-153" rx="3.6" ry="3.6"/>
</g>
<!-- image -->
<g id="node6" class="node">
<title>image</title>
<polygon fill="none" stroke="black" points="202.81,-171 154.81,-171 154.81,-135 208.81,-135 208.81,-165 202.81,-171"/>
<polyline fill="none" stroke="black" points="202.81,-171 202.81,-165"/>
<polyline fill="none" stroke="black" points="208.81,-165 202.81,-165"/>
<text xml:space="preserve" text-anchor="middle" x="181.81" y="-147.95" font-family="Times,serif" font-size="14.00">image</text>
</g>
<!-- tag3&#45;&gt;image -->
<g id="edge3" class="edge">
<title>tag3:head&#45;&gt;image</title>
<path fill="none" stroke="black" d="M95.74,-153C103.28,-153 124.14,-153 143.31,-153"/>
<polygon fill="black" stroke="black" points="143.08,-156.5 153.08,-153 143.08,-149.5 143.08,-156.5"/>
<text xml:space="preserve" text-anchor="middle" x="89.25" y="-167.92" font-family="Times,serif" font-size="14.00">v1.0</text>
</g>
<!-- index&#45;&gt;index2 -->
<g id="edge6" class="edge">
<title>index&#45;&gt;index2</title>
<path fill="none" stroke="black" d="M119.22,-82.8C127.22,-77.89 136.16,-72.4 144.69,-67.17"/>
<polygon fill="black" stroke="black" points="146.45,-70.2 153.14,-61.98 142.79,-64.23 146.45,-70.2"/>
</g>
<!-- index&#45;&gt;image -->
<g id="edge4" class="edge">
<title>index&#45;&gt;image</title>
<path fill="none" stroke="black" d="M119.22,-115.2C127.22,-120.11 136.16,-125.6 144.69,-130.83"/>
<polygon fill="black" stroke="black" points="142.79,-133.77 153.14,-136.02 146.45,-127.8 142.79,-133.77"/>
</g>
<!-- xml -->
<g id="node9" class="node">
<title>xml</title>
<ellipse fill="none" stroke="black" cx="181.81" cy="-99" rx="27" ry="18"/>
<text xml:space="preserve" text-anchor="middle" x="181.81" y="-93.95" font-family="Times,serif" font-size="14.00">xml</text>
</g>
<!-- index&#45;&gt;xml -->
<g id="edge5" class="edge">
<title>index&#45;&gt;xml</title>
<path fill="none" stroke="black" d="M119.22,-99C126.7,-99 135,-99 143.01,-99"/>
<polygon fill="black" stroke="black" points="142.92,-102.5 152.92,-99 142.92,-95.5 142.92,-102.5"/>
</g>
<!-- image2 -->
<g id="node7" class="node">
<title>image2</title>
<polygon fill="none" stroke="black" points="292.81,-90 244.81,-90 244.81,-54 298.81,-54 298.81,-84 292.81,-90"/>
<polyline fill="none" stroke="black" points="292.81,-90 292.81,-84"/>
<polyline fill="none" stroke="black" points="298.81,-84 292.81,-84"/>
<text xml:space="preserve" text-anchor="middle" x="271.81" y="-66.95" font-family="Times,serif" font-size="14.00">image</text>
</g>
<!-- index2&#45;&gt;image2 -->
<g id="edge7" class="edge">
<title>index2&#45;&gt;image2</title>
<path fill="none" stroke="black" d="M209.22,-53.1C216.87,-55.45 225.38,-58.06 233.57,-60.57"/>
<polygon fill="black" stroke="black" points="232.4,-63.87 242.98,-63.46 234.45,-57.18 232.4,-63.87"/>
</g>
<!-- image3 -->
<g id="node8" class="node">
<title>image3</title>
<polygon fill="none" stroke="black" points="292.81,-36 244.81,-36 244.81,0 298.81,0 298.81,-30 292.81,-36"/>
<polyline fill="none" stroke="black" points="292.81,-36 292.81,-30"/>
<polyline fill="none" stroke="black" points="298.81,-30 292.81,-30"/>
<text xml:space="preserve" text-anchor="middle" x="271.81" y="-12.95" font-family="Times,serif" font-size="14.00">image</text>
</g>
<!-- index2&#45;&gt;image3 -->
<g id="edge8" class="edge">
<title>index2&#45;&gt;image3</title>
<path fill="none" stroke="black" d="M209.22,-36.9C216.87,-34.55 225.38,-31.94 233.57,-29.43"/>
<polygon fill="black" stroke="black" points="234.45,-32.82 242.98,-26.54 232.4,-26.13 234.45,-32.82"/>
</g>
</g>
</svg>
