<?xml version="1.0" encoding="UTF-8" standalone="no"?>
<!DOCTYPE svg PUBLIC "-//W3C//DTD SVG 1.1//EN"
 "http://www.w3.org/Graphics/SVG/1.1/DTD/svg11.dtd">
<!-- Generated by graphviz version 14.0.1 (20251006.0113)
 -->
<!-- Pages: 1 -->
<svg width="527pt" height="418pt"
 viewBox="0.00 0.00 527.00 418.00" xmlns="http://www.w3.org/2000/svg" xmlns:xlink="http://www.w3.org/1999/xlink">
<g id="graph0" class="graph" transform="scale(1 1) rotate(0) translate(4 413.5)">
<polygon fill="white" stroke="none" points="-4,4 -4,-413.5 523,-413.5 523,4 -4,4"/>
<g id="clust1" class="cluster">
<title>cluster_source</title>
<polygon fill="none" stroke="black" points="30,-325 30,-401.5 490,-401.5 490,-325 30,-325"/>
<text xml:space="preserve" text-anchor="middle" x="260" y="-384.2" font-family="Times,serif" font-size="14.00">Sources</text>
</g>
<g id="clust2" class="cluster">
<title>cluster_mutate</title>
<polygon fill="none" stroke="black" points="23,-176.5 23,-253 510,-253 510,-176.5 23,-176.5"/>
<text xml:space="preserve" text-anchor="middle" x="266.5" y="-235.7" font-family="Times,serif" font-size="14.00">mutate</text>
</g>
<g id="clust3" class="cluster">
<title>cluster_sinks</title>
<polygon fill="none" stroke="black" points="8,-8 8,-84.5 511,-84.5 511,-8 8,-8"/>
<text xml:space="preserve" text-anchor="middle" x="259.5" y="-15.2" font-family="Times,serif" font-size="14.00">Sinks</text>
</g>
<!-- input -->
<g id="node1" class="node">
<title>input</title>
<polygon fill="none" stroke="black" points="289.88,-297 222.12,-297 222.12,-261 289.88,-261 289.88,-297"/>
<text xml:space="preserve" text-anchor="middle" x="256" y="-273.95" font-family="Times,serif" font-size="14.00">v1.Image</text>
</g>
<!-- mutateconfig -->
<g id="node8" class="node">
<title>mutateconfig</title>
<ellipse fill="none" stroke="black" cx="68" cy="-202.5" rx="36.51" ry="18"/>
<text xml:space="preserve" text-anchor="middle" x="68" y="-197.45" font-family="Times,serif" font-size="14.00">Config</text>
</g>
<!-- input&#45;&gt;mutateconfig -->
<g id="edge6" class="edge">
<title>input&#45;&gt;mutateconfig</title>
<path fill="none" stroke="black" d="M221.88,-278.16C191.55,-276.92 146.89,-271.65 113,-253 102.43,-247.18 93.02,-237.93 85.58,-229"/>
<polygon fill="black" stroke="black" points="88.39,-226.91 79.5,-221.15 82.86,-231.2 88.39,-226.91"/>
</g>
<!-- mutatetime -->
<g id="node9" class="node">
<title>mutatetime</title>
<ellipse fill="none" stroke="black" cx="153" cy="-202.5" rx="30.88" ry="18"/>
<text xml:space="preserve" text-anchor="middle" x="153" y="-197.45" font-family="Times,serif" font-size="14.00">Time</text>
</g>
<!-- input&#45;&gt;mutatetime -->
<g id="edge7" class="edge">
<title>input&#45;&gt;mutatetime</title>
<path fill="none" stroke="black" d="M221.64,-268.02C211.85,-264.23 201.53,-259.28 193,-253 184.08,-246.43 176.01,-237.42 169.49,-228.88"/>
<polygon fill="black" stroke="black" points="172.39,-226.91 163.72,-220.82 166.7,-230.99 172.39,-226.91"/>
</g>
<!-- mutatemediatype -->
<g id="node10" class="node">
<title>mutatemediatype</title>
<ellipse fill="none" stroke="black" cx="256" cy="-202.5" rx="53.91" ry="18"/>
<text xml:space="preserve" text-anchor="middle" x="256" y="-197.45" font-family="Times,serif" font-size="14.00">MediaType</text>
</g>
<!-- input&#45;&gt;mutatemediatype -->
<g id="edge8" class="edge">
<title>input&#45;&gt;mutatemediatype</title>
<path fill="none" stroke="black" d="M256,-260.72C256,-252.32 256,-241.99 256,-232.43"/>
<polygon fill="black" stroke="black" points="259.5,-232.46 256,-222.46 252.5,-232.46 259.5,-232.46"/>
</g>
<!-- mutateappend -->
<g id="node11" class="node">
<title>mutateappend</title>
<ellipse fill="none" stroke="black" cx="368" cy="-202.5" rx="40.09" ry="18"/>
<text xml:space="preserve" text-anchor="middle" x="368" y="-197.45" font-family="Times,serif" font-size="14.00">Append</text>
</g>
<!-- input&#45;&gt;mutateappend -->
<g id="edge9" class="edge">
<title>input&#45;&gt;mutateappend</title>
<path fill="none" stroke="black" d="M290.3,-267.34C299.99,-263.56 310.26,-258.78 319,-253 329.29,-246.2 339.16,-236.96 347.31,-228.3"/>
<polygon fill="black" stroke="black" points="349.73,-230.85 353.82,-221.08 344.53,-226.16 349.73,-230.85"/>
</g>
<!-- mutaterebase -->
<g id="node12" class="node">
<title>mutaterebase</title>
<ellipse fill="none" stroke="black" cx="464" cy="-202.5" rx="37.53" ry="18"/>
<text xml:space="preserve" text-anchor="middle" x="464" y="-197.45" font-family="Times,serif" font-size="14.00">Rebase</text>
</g>
<!-- input&#45;&gt;mutaterebase -->
<g id="edge10" class="edge">
<title>input&#45;&gt;mutaterebase</title>
<path fill="none" stroke="black" d="M290.35,-278.95C324.37,-278.49 377.04,-273.94 417,-253 428.02,-247.22 437.91,-237.86 445.74,-228.82"/>
<polygon fill="black" stroke="black" points="448.32,-231.19 451.89,-221.21 442.88,-226.78 448.32,-231.19"/>
</g>
<!-- output -->
<g id="node2" class="node">
<title>output</title>
<polygon fill="none" stroke="black" points="289.88,-148.5 222.12,-148.5 222.12,-112.5 289.88,-112.5 289.88,-148.5"/>
<text xml:space="preserve" text-anchor="middle" x="256" y="-125.45" font-family="Times,serif" font-size="14.00">v1.Image</text>
</g>
<!-- remotesink -->
<g id="node13" class="node">
<title>remotesink</title>
<ellipse fill="none" stroke="black" cx="53" cy="-58.5" rx="37.02" ry="18"/>
<text xml:space="preserve" text-anchor="middle" x="53" y="-53.45" font-family="Times,serif" font-size="14.00">remote</text>
</g>
<!-- output&#45;&gt;remotesink -->
<g id="edge20" class="edge">
<title>output&#45;&gt;remotesink</title>
<path fill="none" stroke="black" d="M221.9,-122.01C189.6,-114.38 140.07,-101.31 99,-84.5 94.55,-82.68 89.98,-80.54 85.52,-78.3"/>
<polygon fill="black" stroke="black" points="87.26,-75.26 76.79,-73.68 83.99,-81.45 87.26,-75.26"/>
</g>
<!-- tarballsink -->
<g id="node14" class="node">
<title>tarballsink</title>
<ellipse fill="none" stroke="black" cx="142" cy="-58.5" rx="34.46" ry="18"/>
<text xml:space="preserve" text-anchor="middle" x="142" y="-53.45" font-family="Times,serif" font-size="14.00">tarball</text>
</g>
<!-- output&#45;&gt;tarballsink -->
<g id="edge19" class="edge">
<title>output&#45;&gt;tarballsink</title>
<path fill="none" stroke="black" d="M227.53,-112.02C210.99,-101.86 190.13,-89.05 173.16,-78.63"/>
<polygon fill="black" stroke="black" points="175.31,-75.85 164.96,-73.6 171.65,-81.81 175.31,-75.85"/>
</g>
<!-- legacy/tarballsink -->
<g id="node15" class="node">
<title>legacy/tarballsink</title>
<ellipse fill="none" stroke="black" cx="256" cy="-58.5" rx="61.08" ry="18"/>
<text xml:space="preserve" text-anchor="middle" x="256" y="-53.45" font-family="Times,serif" font-size="14.00">legacy/tarball</text>
</g>
<!-- output&#45;&gt;legacy/tarballsink -->
<g id="edge16" class="edge">
<title>output&#45;&gt;legacy/tarballsink</title>
<path fill="none" stroke="black" d="M256,-112.2C256,-104.91 256,-96.23 256,-88.04"/>
<polygon fill="black" stroke="black" points="259.5,-88.12 256,-78.12 252.5,-88.12 259.5,-88.12"/>
</g>
<!-- layoutsink -->
<g id="node16" class="node">
<title>layoutsink</title>
<ellipse fill="none" stroke="black" cx="369" cy="-58.5" rx="33.95" ry="18"/>
<text xml:space="preserve" text-anchor="middle" x="369" y="-53.45" font-family="Times,serif" font-size="14.00">layout</text>
</g>
<!-- output&#45;&gt;layoutsink -->
<g id="edge17" class="edge">
<title>output&#45;&gt;layoutsink</title>
<path fill="none" stroke="black" d="M284.22,-112.02C300.62,-101.86 321.29,-89.05 338.12,-78.63"/>
<polygon fill="black" stroke="black" points="339.57,-81.85 346.23,-73.6 335.89,-75.89 339.57,-81.85"/>
</g>
<!-- daemonsink -->
<g id="node17" class="node">
<title>daemonsink</title>
<ellipse fill="none" stroke="black" cx="462" cy="-58.5" rx="40.6" ry="18"/>
<text xml:space="preserve" text-anchor="middle" x="462" y="-53.45" font-family="Times,serif" font-size="14.00">daemon</text>
</g>
<!-- output&#45;&gt;daemonsink -->
<g id="edge18" class="edge">
<title>output&#45;&gt;daemonsink</title>
<path fill="none" stroke="black" d="M290.37,-121.51C322.38,-113.62 371.17,-100.44 412,-84.5 416.81,-82.62 421.78,-80.45 426.63,-78.18"/>
<polygon fill="black" stroke="black" points="428.16,-81.33 435.61,-73.8 425.09,-75.03 428.16,-81.33"/>
</g>
<!-- remotesource -->
<g id="node3" class="node">
<title>remotesource</title>
<ellipse fill="none" stroke="black" cx="75" cy="-351" rx="37.02" ry="18"/>
<text xml:space="preserve" text-anchor="middle" x="75" y="-345.95" font-family="Times,serif" font-size="14.00">remote</text>
</g>
<!-- remotesource&#45;&gt;input -->
<g id="edge5" class="edge">
<title>remotesource&#45;&gt;input</title>
<path fill="none" stroke="black" d="M98,-336.47C105.23,-332.5 113.33,-328.33 121,-325 150.25,-312.3 184.32,-300.96 210.91,-292.85"/>
<polygon fill="black" stroke="black" points="211.8,-296.24 220.37,-290.01 209.78,-289.53 211.8,-296.24"/>
</g>
<!-- tarballsource -->
<g id="node4" class="node">
<title>tarballsource</title>
<ellipse fill="none" stroke="black" cx="164" cy="-351" rx="34.46" ry="18"/>
<text xml:space="preserve" text-anchor="middle" x="164" y="-345.95" font-family="Times,serif" font-size="14.00">tarball</text>
</g>
<!-- tarballsource&#45;&gt;input -->
<g id="edge4" class="edge">
<title>tarballsource&#45;&gt;input</title>
<path fill="none" stroke="black" d="M183.06,-335.5C194.87,-326.52 210.32,-314.76 223.97,-304.37"/>
<polygon fill="black" stroke="black" points="226.01,-307.22 231.85,-298.37 221.77,-301.64 226.01,-307.22"/>
</g>
<!-- randomsource -->
<g id="node5" class="node">
<title>randomsource</title>
<ellipse fill="none" stroke="black" cx="256" cy="-351" rx="39.58" ry="18"/>
<text xml:space="preserve" text-anchor="middle" x="256" y="-345.95" font-family="Times,serif" font-size="14.00">random</text>
</g>
<!-- randomsource&#45;&gt;input -->
<g id="edge1" class="edge">
<title>randomsource&#45;&gt;input</title>
<path fill="none" stroke="black" d="M256,-332.7C256,-325.41 256,-316.73 256,-308.54"/>
<polygon fill="black" stroke="black" points="259.5,-308.62 256,-298.62 252.5,-308.62 259.5,-308.62"/>
</g>
<!-- layoutsource -->
<g id="node6" class="node">
<title>layoutsource</title>
<ellipse fill="none" stroke="black" cx="348" cy="-351" rx="33.95" ry="18"/>
<text xml:space="preserve" text-anchor="middle" x="348" y="-345.95" font-family="Times,serif" font-size="14.00">layout</text>
</g>
<!-- layoutsource&#45;&gt;input -->
<g id="edge2" class="edge">
<title>layoutsource&#45;&gt;input</title>
<path fill="none" stroke="black" d="M329.38,-335.83C317.41,-326.72 301.54,-314.65 287.63,-304.07"/>
<polygon fill="black" stroke="black" points="290.11,-301.55 280.03,-298.28 285.87,-307.13 290.11,-301.55"/>
</g>
<!-- daemonsource -->
<g id="node7" class="node">
<title>daemonsource</title>
<ellipse fill="none" stroke="black" cx="441" cy="-351" rx="40.6" ry="18"/>
<text xml:space="preserve" text-anchor="middle" x="441" y="-345.95" font-family="Times,serif" font-size="14.00">daemon</text>
</g>
<!-- daemonsource&#45;&gt;input -->
<g id="edge3" class="edge">
<title>daemonsource&#45;&gt;input</title>
<path fill="none" stroke="black" d="M415.89,-336.57C408.03,-332.61 399.25,-328.42 391,-325 361.64,-312.84 327.7,-301.54 301.2,-293.3"/>
<polygon fill="black" stroke="black" points="302.37,-290 291.78,-290.41 300.31,-296.69 302.37,-290"/>
</g>
<!-- mutateconfig&#45;&gt;output -->
<g id="edge11" class="edge">
<title>mutateconfig&#45;&gt;output</title>
<path fill="none" stroke="black" d="M90.44,-187.86C97.51,-183.89 105.45,-179.75 113,-176.5 144.87,-162.8 182.33,-151.16 210.91,-143.16"/>
<polygon fill="black" stroke="black" points="211.61,-146.6 220.33,-140.57 209.76,-139.85 211.61,-146.6"/>
</g>
<!-- mutatetime&#45;&gt;output -->
<g id="edge12" class="edge">
<title>mutatetime&#45;&gt;output</title>
<path fill="none" stroke="black" d="M172.37,-188.33C186.11,-179 204.93,-166.21 221.23,-155.13"/>
<polygon fill="black" stroke="black" points="222.93,-158.21 229.23,-149.69 218.99,-152.42 222.93,-158.21"/>
</g>
<!-- mutatemediatype&#45;&gt;output -->
<g id="edge13" class="edge">
<title>mutatemediatype&#45;&gt;output</title>
<path fill="none" stroke="black" d="M256,-184.2C256,-176.91 256,-168.23 256,-160.04"/>
<polygon fill="black" stroke="black" points="259.5,-160.12 256,-150.12 252.5,-160.12 259.5,-160.12"/>
</g>
<!-- mutateappend&#45;&gt;output -->
<g id="edge14" class="edge">
<title>mutateappend&#45;&gt;output</title>
<path fill="none" stroke="black" d="M345.34,-187.33C330.48,-178.05 310.71,-165.69 293.54,-154.96"/>
<polygon fill="black" stroke="black" points="295.41,-152 285.07,-149.67 291.7,-157.94 295.41,-152"/>
</g>
<!-- mutaterebase&#45;&gt;output -->
<g id="edge15" class="edge">
<title>mutaterebase&#45;&gt;output</title>
<path fill="none" stroke="black" d="M441.05,-188.01C433.55,-183.96 425.07,-179.73 417,-176.5 379.04,-161.31 334.1,-149.21 301.36,-141.4"/>
<polygon fill="black" stroke="black" points="302.32,-138.03 291.79,-139.16 300.73,-144.85 302.32,-138.03"/>
</g>
</g>
</svg>
