<?xml version="1.0" encoding="UTF-8" standalone="no"?>
<!DOCTYPE svg PUBLIC "-//W3C//DTD SVG 1.1//EN"
 "http://www.w3.org/Graphics/SVG/1.1/DTD/svg11.dtd">
<!-- Generated by graphviz version 2.43.0 (0)
 -->
<!-- Title: %3 Pages: 1 -->
<svg width="510pt" height="413pt"
 viewBox="0.00 0.00 510.00 413.00" xmlns="http://www.w3.org/2000/svg" xmlns:xlink="http://www.w3.org/1999/xlink">
<g id="graph0" class="graph" transform="scale(1 1) rotate(0) translate(4 409)">
<title>%3</title>
<polygon fill="white" stroke="transparent" points="-4,4 -4,-409 506,-409 506,4 -4,4"/>
<g id="clust1" class="cluster">
<title>cluster_source</title>
<polygon fill="none" stroke="black" points="28,-322 28,-397 473,-397 473,-322 28,-322"/>
<text text-anchor="middle" x="250.5" y="-381.8" font-family="Times,serif" font-size="14.00">Sources</text>
</g>
<g id="clust2" class="cluster">
<title>cluster_mutate</title>
<polygon fill="none" stroke="black" points="8,-175 8,-250 479,-250 479,-175 8,-175"/>
<text text-anchor="middle" x="243.5" y="-234.8" font-family="Times,serif" font-size="14.00">mutate</text>
</g>
<g id="clust3" class="cluster">
<title>cluster_sinks</title>
<polygon fill="none" stroke="black" points="8,-8 8,-83 494,-83 494,-8 8,-8"/>
<text text-anchor="middle" x="251" y="-15.8" font-family="Times,serif" font-size="14.00">Sinks</text>
</g>
<!-- input -->
<g id="node1" class="node">
<title>input</title>
<polygon fill="none" stroke="black" points="287,-294 219,-294 219,-258 287,-258 287,-294"/>
<text text-anchor="middle" x="253" y="-272.3" font-family="Times,serif" font-size="14.00">v1.Image</text>
</g>
<!-- mutateconfig -->
<g id="node8" class="node">
<title>mutateconfig</title>
<ellipse fill="none" stroke="black" cx="436" cy="-201" rx="35.19" ry="18"/>
<text text-anchor="middle" x="436" y="-197.3" font-family="Times,serif" font-size="14.00">Config</text>
</g>
<!-- input&#45;&gt;mutateconfig -->
<g id="edge6" class="edge">
<title>input&#45;&gt;mutateconfig</title>
<path fill="none" stroke="black" d="M287.02,-274.88C316.47,-273.42 359.35,-267.98 392,-250 402.36,-244.3 411.59,-235.24 418.9,-226.53"/>
<polygon fill="black" stroke="black" points="421.86,-228.42 425.28,-218.4 416.35,-224.1 421.86,-228.42"/>
</g>
<!-- mutatetime -->
<g id="node9" class="node">
<title>mutatetime</title>
<ellipse fill="none" stroke="black" cx="353" cy="-201" rx="29.8" ry="18"/>
<text text-anchor="middle" x="353" y="-197.3" font-family="Times,serif" font-size="14.00">Time</text>
</g>
<!-- input&#45;&gt;mutatetime -->
<g id="edge7" class="edge">
<title>input&#45;&gt;mutatetime</title>
<path fill="none" stroke="black" d="M287.2,-264.46C296.4,-260.73 306.01,-255.94 314,-250 322.79,-243.47 330.77,-234.52 337.19,-226.12"/>
<polygon fill="black" stroke="black" points="340.03,-228.17 343.05,-218.01 334.36,-224.06 340.03,-228.17"/>
</g>
<!-- mutatemediatype -->
<g id="node10" class="node">
<title>mutatemediatype</title>
<ellipse fill="none" stroke="black" cx="253" cy="-201" rx="51.99" ry="18"/>
<text text-anchor="middle" x="253" y="-197.3" font-family="Times,serif" font-size="14.00">MediaType</text>
</g>
<!-- input&#45;&gt;mutatemediatype -->
<g id="edge8" class="edge">
<title>input&#45;&gt;mutatemediatype</title>
<path fill="none" stroke="black" d="M253,-257.7C253,-249.25 253,-238.87 253,-229.37"/>
<polygon fill="black" stroke="black" points="256.5,-229.18 253,-219.18 249.5,-229.18 256.5,-229.18"/>
</g>
<!-- mutateappend -->
<g id="node11" class="node">
<title>mutateappend</title>
<ellipse fill="none" stroke="black" cx="145" cy="-201" rx="38.19" ry="18"/>
<text text-anchor="middle" x="145" y="-197.3" font-family="Times,serif" font-size="14.00">Append</text>
</g>
<!-- input&#45;&gt;mutateappend -->
<g id="edge9" class="edge">
<title>input&#45;&gt;mutateappend</title>
<path fill="none" stroke="black" d="M218.83,-263.84C209.73,-260.12 200.17,-255.5 192,-250 182.07,-243.32 172.55,-234.28 164.71,-225.85"/>
<polygon fill="black" stroke="black" points="167.29,-223.49 158.02,-218.37 162.07,-228.15 167.29,-223.49"/>
</g>
<!-- mutaterebase -->
<g id="node12" class="node">
<title>mutaterebase</title>
<ellipse fill="none" stroke="black" cx="52" cy="-201" rx="36.29" ry="18"/>
<text text-anchor="middle" x="52" y="-197.3" font-family="Times,serif" font-size="14.00">Rebase</text>
</g>
<!-- input&#45;&gt;mutaterebase -->
<g id="edge10" class="edge">
<title>input&#45;&gt;mutaterebase</title>
<path fill="none" stroke="black" d="M218.7,-275.61C185.92,-274.81 136.01,-269.95 98,-250 87.2,-244.33 77.48,-235.17 69.79,-226.36"/>
<polygon fill="black" stroke="black" points="72.37,-223.99 63.32,-218.48 66.96,-228.43 72.37,-223.99"/>
</g>
<!-- output -->
<g id="node2" class="node">
<title>output</title>
<polygon fill="none" stroke="black" points="287,-147 219,-147 219,-111 287,-111 287,-147"/>
<text text-anchor="middle" x="253" y="-125.3" font-family="Times,serif" font-size="14.00">v1.Image</text>
</g>
<!-- remotesink -->
<g id="node13" class="node">
<title>remotesink</title>
<ellipse fill="none" stroke="black" cx="450" cy="-57" rx="36" ry="18"/>
<text text-anchor="middle" x="450" y="-53.3" font-family="Times,serif" font-size="14.00">remote</text>
</g>
<!-- output&#45;&gt;remotesink -->
<g id="edge20" class="edge">
<title>output&#45;&gt;remotesink</title>
<path fill="none" stroke="black" d="M287.25,-120.15C318.55,-112.44 365.79,-99.46 405,-83 409.6,-81.07 414.33,-78.79 418.92,-76.41"/>
<polygon fill="black" stroke="black" points="420.93,-79.3 428.05,-71.46 417.59,-73.15 420.93,-79.3"/>
</g>
<!-- tarballsink -->
<g id="node14" class="node">
<title>tarballsink</title>
<ellipse fill="none" stroke="black" cx="363" cy="-57" rx="33.29" ry="18"/>
<text text-anchor="middle" x="363" y="-53.3" font-family="Times,serif" font-size="14.00">tarball</text>
</g>
<!-- output&#45;&gt;tarballsink -->
<g id="edge19" class="edge">
<title>output&#45;&gt;tarballsink</title>
<path fill="none" stroke="black" d="M279.91,-110.88C296.12,-100.56 316.77,-87.42 333.43,-76.81"/>
<polygon fill="black" stroke="black" points="335.67,-79.54 342.23,-71.22 331.91,-73.64 335.67,-79.54"/>
</g>
<!-- legacy/tarballsink -->
<g id="node15" class="node">
<title>legacy/tarballsink</title>
<ellipse fill="none" stroke="black" cx="253" cy="-57" rx="58.49" ry="18"/>
<text text-anchor="middle" x="253" y="-53.3" font-family="Times,serif" font-size="14.00">legacy/tarball</text>
</g>
<!-- output&#45;&gt;legacy/tarballsink -->
<g id="edge16" class="edge">
<title>output&#45;&gt;legacy/tarballsink</title>
<path fill="none" stroke="black" d="M253,-110.7C253,-102.98 253,-93.71 253,-85.11"/>
<polygon fill="black" stroke="black" points="256.5,-85.1 253,-75.1 249.5,-85.1 256.5,-85.1"/>
</g>
<!-- layoutsink -->
<g id="node16" class="node">
<title>layoutsink</title>
<ellipse fill="none" stroke="black" cx="144" cy="-57" rx="32.49" ry="18"/>
<text text-anchor="middle" x="144" y="-53.3" font-family="Times,serif" font-size="14.00">layout</text>
</g>
<!-- output&#45;&gt;layoutsink -->
<g id="edge17" class="edge">
<title>output&#45;&gt;layoutsink</title>
<path fill="none" stroke="black" d="M226.34,-110.88C210.28,-100.56 189.81,-87.42 173.3,-76.81"/>
<polygon fill="black" stroke="black" points="174.89,-73.68 164.59,-71.22 171.11,-79.57 174.89,-73.68"/>
</g>
<!-- daemonsink -->
<g id="node17" class="node">
<title>daemonsink</title>
<ellipse fill="none" stroke="black" cx="55" cy="-57" rx="38.99" ry="18"/>
<text text-anchor="middle" x="55" y="-53.3" font-family="Times,serif" font-size="14.00">daemon</text>
</g>
<!-- output&#45;&gt;daemonsink -->
<g id="edge18" class="edge">
<title>output&#45;&gt;daemonsink</title>
<path fill="none" stroke="black" d="M218.71,-119.69C187.89,-111.76 141.67,-98.71 103,-83 97.89,-80.92 92.59,-78.48 87.47,-75.95"/>
<polygon fill="black" stroke="black" points="89,-72.81 78.51,-71.37 85.82,-79.04 89,-72.81"/>
</g>
<!-- remotesource -->
<g id="node3" class="node">
<title>remotesource</title>
<ellipse fill="none" stroke="black" cx="429" cy="-348" rx="36" ry="18"/>
<text text-anchor="middle" x="429" y="-344.3" font-family="Times,serif" font-size="14.00">remote</text>
</g>
<!-- remotesource&#45;&gt;input -->
<g id="edge5" class="edge">
<title>remotesource&#45;&gt;input</title>
<path fill="none" stroke="black" d="M406.97,-333.74C399.78,-329.7 391.67,-325.42 384,-322 355.69,-309.39 322.68,-298.07 296.88,-289.94"/>
<polygon fill="black" stroke="black" points="297.6,-286.5 287.01,-286.87 295.52,-293.18 297.6,-286.5"/>
</g>
<!-- tarballsource -->
<g id="node4" class="node">
<title>tarballsource</title>
<ellipse fill="none" stroke="black" cx="342" cy="-348" rx="33.29" ry="18"/>
<text text-anchor="middle" x="342" y="-344.3" font-family="Times,serif" font-size="14.00">tarball</text>
</g>
<!-- tarballsource&#45;&gt;input -->
<g id="edge4" class="edge">
<title>tarballsource&#45;&gt;input</title>
<path fill="none" stroke="black" d="M323.99,-332.83C312.21,-323.57 296.54,-311.25 282.92,-300.53"/>
<polygon fill="black" stroke="black" points="284.78,-297.54 274.76,-294.11 280.45,-303.05 284.78,-297.54"/>
</g>
<!-- randomsource -->
<g id="node5" class="node">
<title>randomsource</title>
<ellipse fill="none" stroke="black" cx="253" cy="-348" rx="38.19" ry="18"/>
<text text-anchor="middle" x="253" y="-344.3" font-family="Times,serif" font-size="14.00">random</text>
</g>
<!-- randomsource&#45;&gt;input -->
<g id="edge1" class="edge">
<title>randomsource&#45;&gt;input</title>
<path fill="none" stroke="black" d="M253,-329.7C253,-321.98 253,-312.71 253,-304.11"/>
<polygon fill="black" stroke="black" points="256.5,-304.1 253,-294.1 249.5,-304.1 256.5,-304.1"/>
</g>
<!-- layoutsource -->
<g id="node6" class="node">
<title>layoutsource</title>
<ellipse fill="none" stroke="black" cx="164" cy="-348" rx="32.49" ry="18"/>
<text text-anchor="middle" x="164" y="-344.3" font-family="Times,serif" font-size="14.00">layout</text>
</g>
<!-- layoutsource&#45;&gt;input -->
<g id="edge2" class="edge">
<title>layoutsource&#45;&gt;input</title>
<path fill="none" stroke="black" d="M182.01,-332.83C193.79,-323.57 209.46,-311.25 223.08,-300.53"/>
<polygon fill="black" stroke="black" points="225.55,-303.05 231.24,-294.11 221.22,-297.54 225.55,-303.05"/>
</g>
<!-- daemonsource -->
<g id="node7" class="node">
<title>daemonsource</title>
<ellipse fill="none" stroke="black" cx="75" cy="-348" rx="38.99" ry="18"/>
<text text-anchor="middle" x="75" y="-344.3" font-family="Times,serif" font-size="14.00">daemon</text>
</g>
<!-- daemonsource&#45;&gt;input -->
<g id="edge3" class="edge">
<title>daemonsource&#45;&gt;input</title>
<path fill="none" stroke="black" d="M99.08,-333.58C106.63,-329.61 115.06,-325.42 123,-322 151.08,-309.91 183.58,-298.66 209.06,-290.43"/>
<polygon fill="black" stroke="black" points="210.35,-293.69 218.81,-287.32 208.22,-287.02 210.35,-293.69"/>
</g>
<!-- mutateconfig&#45;&gt;output -->
<g id="edge11" class="edge">
<title>mutateconfig&#45;&gt;output</title>
<path fill="none" stroke="black" d="M414.52,-186.64C407.5,-182.58 399.56,-178.33 392,-175 361.09,-161.39 324.73,-149.76 296.96,-141.74"/>
<polygon fill="black" stroke="black" points="297.71,-138.31 287.14,-138.95 295.8,-145.05 297.71,-138.31"/>
</g>
<!-- mutatetime&#45;&gt;output -->
<g id="edge12" class="edge">
<title>mutatetime&#45;&gt;output</title>
<path fill="none" stroke="black" d="M334.19,-186.83C320.63,-177.34 301.98,-164.29 285.97,-153.08"/>
<polygon fill="black" stroke="black" points="287.6,-149.95 277.4,-147.08 283.59,-155.68 287.6,-149.95"/>
</g>
<!-- mutatemediatype&#45;&gt;output -->
<g id="edge13" class="edge">
<title>mutatemediatype&#45;&gt;output</title>
<path fill="none" stroke="black" d="M253,-182.7C253,-174.98 253,-165.71 253,-157.11"/>
<polygon fill="black" stroke="black" points="256.5,-157.1 253,-147.1 249.5,-157.1 256.5,-157.1"/>
</g>
<!-- mutateappend&#45;&gt;output -->
<g id="edge14" class="edge">
<title>mutateappend&#45;&gt;output</title>
<path fill="none" stroke="black" d="M166.6,-186C181.27,-176.49 201.02,-163.69 217.93,-152.73"/>
<polygon fill="black" stroke="black" points="219.98,-155.57 226.47,-147.19 216.18,-149.7 219.98,-155.57"/>
</g>
<!-- mutaterebase&#45;&gt;output -->
<g id="edge15" class="edge">
<title>mutaterebase&#45;&gt;output</title>
<path fill="none" stroke="black" d="M74.46,-186.54C81.8,-182.48 90.1,-178.25 98,-175 134.36,-160.05 177.43,-147.97 208.93,-140.1"/>
<polygon fill="black" stroke="black" points="209.84,-143.48 218.72,-137.7 208.18,-136.68 209.84,-143.48"/>
</g>
</g>
</svg>
