<?xml version="1.0" encoding="UTF-8" standalone="no"?>
<!DOCTYPE svg PUBLIC "-//W3C//DTD SVG 1.1//EN"
 "http://www.w3.org/Graphics/SVG/1.1/DTD/svg11.dtd">
<!-- Generated by graphviz version 2.40.1 (20161225.0304)
 -->
<!-- Title: %3 Pages: 1 -->
<svg width="490pt" height="368pt"
 viewBox="0.00 0.00 489.55 368.00" xmlns="http://www.w3.org/2000/svg" xmlns:xlink="http://www.w3.org/1999/xlink">
<g id="graph0" class="graph" transform="scale(1 1) rotate(0) translate(4 364)">
<title>%3</title>
<polygon fill="#ffffff" stroke="transparent" points="-4,4 -4,-364 485.5499,-364 485.5499,4 -4,4"/>
<g id="clust1" class="cluster">
<title>cluster_registry</title>
<polygon fill="none" stroke="#000000" points="0,-8 0,-352 481.5499,-352 481.5499,-8 0,-8"/>
<text text-anchor="middle" x="240.7749" y="-336.8" font-family="Times,serif" font-size="14.00" fill="#000000">registry</text>
</g>
<g id="clust2" class="cluster">
<title>cluster_tags</title>
<polygon fill="none" stroke="#000000" points="8,-24 8,-153 103,-153 103,-24 8,-24"/>
<text text-anchor="middle" x="55.5" y="-137.8" font-family="Times,serif" font-size="14.00" fill="#000000">/v2/.../tags/list</text>
</g>
<g id="clust3" class="cluster">
<title>cluster_manifests</title>
<polygon fill="none" stroke="#000000" points="123,-16 123,-321 314,-321 314,-16 123,-16"/>
<text text-anchor="middle" x="218.5" y="-305.8" font-family="Times,serif" font-size="14.00" fill="#000000">/v2/.../manifests/&lt;ref&gt;</text>
</g>
<g id="clust4" class="cluster">
<title>cluster_manifest</title>
<polygon fill="none" stroke="#000000" points="236,-24 236,-153 306,-153 306,-24 236,-24"/>
<text text-anchor="middle" x="271" y="-137.8" font-family="Times,serif" font-size="14.00" fill="#000000">manifest</text>
</g>
<g id="clust5" class="cluster">
<title>cluster_manifest2</title>
<polygon fill="none" stroke="#000000" points="236,-161 236,-290 306,-290 306,-161 236,-161"/>
<text text-anchor="middle" x="271" y="-274.8" font-family="Times,serif" font-size="14.00" fill="#000000">manifest</text>
</g>
<g id="clust6" class="cluster">
<title>cluster_index</title>
<polygon fill="none" stroke="#000000" points="131,-78 131,-153 216,-153 216,-78 131,-78"/>
<text text-anchor="middle" x="173.5" y="-137.8" font-family="Times,serif" font-size="14.00" fill="#000000">index</text>
</g>
<g id="clust7" class="cluster">
<title>cluster_blobs</title>
<polygon fill="none" stroke="#000000" points="334,-20 334,-311 473.5499,-311 473.5499,-20 334,-20"/>
<text text-anchor="middle" x="403.7749" y="-295.8" font-family="Times,serif" font-size="14.00" fill="#000000">/v2/.../blobs/&lt;sha256&gt;</text>
</g>
<!-- tag -->
<g id="node1" class="node">
<title>tag</title>
<polygon fill="none" stroke="#000000" points="82,-68 28,-68 28,-32 82,-32 82,-68"/>
<text text-anchor="middle" x="55" y="-46.3" font-family="Times,serif" font-size="14.00" fill="#000000">tag</text>
</g>
<!-- mconfig -->
<g id="node3" class="node">
<title>mconfig</title>
<polygon fill="none" stroke="#000000" points="298,-68 244,-68 244,-32 298,-32 298,-68"/>
<text text-anchor="middle" x="271" y="-46.3" font-family="Times,serif" font-size="14.00" fill="#000000">config</text>
</g>
<!-- tag&#45;&gt;mconfig -->
<g id="edge9" class="edge">
<title>tag&#45;&gt;mconfig</title>
<path fill="none" stroke="#000000" stroke-dasharray="5,2" d="M82.3565,-50C120.7403,-50 190.6983,-50 233.7878,-50"/>
<polygon fill="#000000" stroke="#000000" points="226.0002,-53.5005 236,-50 225.9998,-46.5005 226.0002,-53.5005"/>
</g>
<!-- tag2 -->
<g id="node2" class="node">
<title>tag2</title>
<polygon fill="none" stroke="#000000" points="82,-122 28,-122 28,-86 82,-86 82,-122"/>
<text text-anchor="middle" x="55" y="-100.3" font-family="Times,serif" font-size="14.00" fill="#000000">tag</text>
</g>
<!-- imanifest -->
<g id="node7" class="node">
<title>imanifest</title>
<polygon fill="none" stroke="#000000" points="208,-122 139,-122 139,-86 208,-86 208,-122"/>
<text text-anchor="middle" x="173.5" y="-100.3" font-family="Times,serif" font-size="14.00" fill="#000000">manifests</text>
</g>
<!-- tag2&#45;&gt;imanifest -->
<g id="edge10" class="edge">
<title>tag2&#45;&gt;imanifest</title>
<path fill="none" stroke="#000000" stroke-dasharray="5,2" d="M82.1863,-104C95.9752,-104 113.0796,-104 128.744,-104"/>
<polygon fill="#000000" stroke="#000000" points="121.0002,-107.5004 131,-104 120.9998,-100.5004 121.0002,-107.5004"/>
</g>
<!-- bconfig -->
<g id="node8" class="node">
<title>bconfig</title>
<polygon fill="none" stroke="#000000" points="441.3261,-46 422.3005,-64 384.2493,-64 365.2238,-46 384.2493,-28 422.3005,-28 441.3261,-46"/>
<text text-anchor="middle" x="403.2749" y="-42.3" font-family="Times,serif" font-size="14.00" fill="#000000">config</text>
</g>
<!-- mconfig&#45;&gt;bconfig -->
<g id="edge7" class="edge">
<title>mconfig&#45;&gt;bconfig</title>
<path fill="none" stroke="#000000" d="M298.087,-49.1809C314.7449,-48.6772 336.552,-48.0177 355.9889,-47.4299"/>
<polygon fill="#000000" stroke="#000000" points="356.3057,-50.922 366.1953,-47.1213 356.0941,-43.9252 356.3057,-50.922"/>
</g>
<!-- layers -->
<g id="node4" class="node">
<title>layers</title>
<polygon fill="none" stroke="#000000" points="298,-122 244,-122 244,-86 298,-86 298,-122"/>
<text text-anchor="middle" x="271" y="-100.3" font-family="Times,serif" font-size="14.00" fill="#000000">layers</text>
</g>
<!-- l1 -->
<g id="node10" class="node">
<title>l1</title>
<polygon fill="none" stroke="#000000" points="430.2749,-118 427.2749,-122 406.2749,-122 403.2749,-118 376.2749,-118 376.2749,-82 430.2749,-82 430.2749,-118"/>
<text text-anchor="middle" x="403.2749" y="-96.3" font-family="Times,serif" font-size="14.00" fill="#000000">layer</text>
</g>
<!-- layers&#45;&gt;l1 -->
<g id="edge3" class="edge">
<title>layers&#45;&gt;l1</title>
<path fill="none" stroke="#000000" d="M298.087,-103.1809C317.7033,-102.5877 344.4602,-101.7786 366.0782,-101.1248"/>
<polygon fill="#000000" stroke="#000000" points="366.3345,-104.6188 376.2242,-100.818 366.1229,-97.622 366.3345,-104.6188"/>
</g>
<!-- l2 -->
<g id="node11" class="node">
<title>l2</title>
<polygon fill="none" stroke="#000000" points="430.2749,-172 427.2749,-176 406.2749,-176 403.2749,-172 376.2749,-172 376.2749,-136 430.2749,-136 430.2749,-172"/>
<text text-anchor="middle" x="403.2749" y="-150.3" font-family="Times,serif" font-size="14.00" fill="#000000">layer</text>
</g>
<!-- layers&#45;&gt;l2 -->
<g id="edge4" class="edge">
<title>layers&#45;&gt;l2</title>
<path fill="none" stroke="#000000" d="M298.087,-114.2389C317.8816,-121.7213 344.9472,-131.9521 366.6665,-140.162"/>
<polygon fill="#000000" stroke="#000000" points="365.6326,-143.5128 376.2242,-143.7748 368.1077,-136.965 365.6326,-143.5128"/>
</g>
<!-- mconfig2 -->
<g id="node5" class="node">
<title>mconfig2</title>
<polygon fill="none" stroke="#000000" points="298,-259 244,-259 244,-223 298,-223 298,-259"/>
<text text-anchor="middle" x="271" y="-237.3" font-family="Times,serif" font-size="14.00" fill="#000000">config</text>
</g>
<!-- bconfig2 -->
<g id="node9" class="node">
<title>bconfig2</title>
<polygon fill="none" stroke="#000000" points="441.3261,-262 422.3005,-280 384.2493,-280 365.2238,-262 384.2493,-244 422.3005,-244 441.3261,-262"/>
<text text-anchor="middle" x="403.2749" y="-258.3" font-family="Times,serif" font-size="14.00" fill="#000000">config</text>
</g>
<!-- mconfig2&#45;&gt;bconfig2 -->
<g id="edge8" class="edge">
<title>mconfig2&#45;&gt;bconfig2</title>
<path fill="none" stroke="#000000" d="M298.087,-245.3003C316.0623,-248.1541 340.0335,-251.9598 360.5522,-255.2173"/>
<polygon fill="#000000" stroke="#000000" points="360.1858,-258.7029 370.6109,-256.8143 361.2834,-251.7895 360.1858,-258.7029"/>
</g>
<!-- layers2 -->
<g id="node6" class="node">
<title>layers2</title>
<polygon fill="none" stroke="#000000" points="298,-205 244,-205 244,-169 298,-169 298,-205"/>
<text text-anchor="middle" x="271" y="-183.3" font-family="Times,serif" font-size="14.00" fill="#000000">layers</text>
</g>
<!-- layers2&#45;&gt;l2 -->
<g id="edge5" class="edge">
<title>layers2&#45;&gt;l2</title>
<path fill="none" stroke="#000000" d="M298.087,-180.2423C317.7924,-175.3262 344.7036,-168.6124 366.3727,-163.2064"/>
<polygon fill="#000000" stroke="#000000" points="367.3688,-166.5652 376.2242,-160.7486 365.6743,-159.7734 367.3688,-166.5652"/>
</g>
<!-- l3 -->
<g id="node12" class="node">
<title>l3</title>
<polygon fill="none" stroke="#000000" points="430.2749,-226 427.2749,-230 406.2749,-230 403.2749,-226 376.2749,-226 376.2749,-190 430.2749,-190 430.2749,-226"/>
<text text-anchor="middle" x="403.2749" y="-204.3" font-family="Times,serif" font-size="14.00" fill="#000000">layer</text>
</g>
<!-- layers2&#45;&gt;l3 -->
<g id="edge6" class="edge">
<title>layers2&#45;&gt;l3</title>
<path fill="none" stroke="#000000" d="M298.087,-191.3003C317.7033,-194.4146 344.4602,-198.6626 366.0782,-202.0946"/>
<polygon fill="#000000" stroke="#000000" points="365.799,-205.5941 376.2242,-203.7054 366.8967,-198.6807 365.799,-205.5941"/>
</g>
<!-- imanifest&#45;&gt;mconfig -->
<g id="edge1" class="edge">
<title>imanifest&#45;&gt;mconfig</title>
<path fill="none" stroke="#000000" d="M206.2373,-85.8686C215.4605,-80.7603 225.5439,-75.1757 234.9494,-69.9665"/>
<polygon fill="#000000" stroke="#000000" points="230.4352,-78.131 236,-69.1149 226.0273,-72.6929 230.4352,-78.131"/>
</g>
<!-- imanifest&#45;&gt;mconfig2 -->
<g id="edge2" class="edge">
<title>imanifest&#45;&gt;mconfig2</title>
<path fill="none" stroke="#000000" d="M181.0913,-122.1444C190.3822,-143.0951 207.6041,-178.2366 229.4113,-206.011"/>
<polygon fill="#000000" stroke="#000000" points="226.9372,-208.5121 236,-214 232.3376,-204.0583 226.9372,-208.5121"/>
</g>
</g>
</svg>
