<?xml version="1.0" encoding="UTF-8" standalone="no"?>
<!DOCTYPE svg PUBLIC "-//W3C//DTD SVG 1.1//EN"
 "http://www.w3.org/Graphics/SVG/1.1/DTD/svg11.dtd">
<!-- Generated by graphviz version 2.43.0 (0)
 -->
<!-- Title: %3 Pages: 1 -->
<svg width="490pt" height="368pt"
 viewBox="0.00 0.00 489.55 368.00" xmlns="http://www.w3.org/2000/svg" xmlns:xlink="http://www.w3.org/1999/xlink">
<g id="graph0" class="graph" transform="scale(1 1) rotate(0) translate(4 364)">
<title>%3</title>
<polygon fill="white" stroke="transparent" points="-4,4 -4,-364 485.55,-364 485.55,4 -4,4"/>
<g id="clust1" class="cluster">
<title>cluster_registry</title>
<polygon fill="none" stroke="black" points="0,-8 0,-352 481.55,-352 481.55,-8 0,-8"/>
<text text-anchor="middle" x="240.77" y="-336.8" font-family="Times,serif" font-size="14.00">registry</text>
</g>
<g id="clust2" class="cluster">
<title>cluster_tags</title>
<polygon fill="none" stroke="black" points="8,-24 8,-153 103,-153 103,-24 8,-24"/>
<text text-anchor="middle" x="55.5" y="-137.8" font-family="Times,serif" font-size="14.00">/v2/.../tags/list</text>
</g>
<g id="clust3" class="cluster">
<title>cluster_manifests</title>
<polygon fill="none" stroke="black" points="123,-16 123,-321 314,-321 314,-16 123,-16"/>
<text text-anchor="middle" x="218.5" y="-305.8" font-family="Times,serif" font-size="14.00">/v2/.../manifests/&lt;ref&gt;</text>
</g>
<g id="clust4" class="cluster">
<title>cluster_manifest</title>
<polygon fill="none" stroke="black" points="236,-24 236,-153 306,-153 306,-24 236,-24"/>
<text text-anchor="middle" x="271" y="-137.8" font-family="Times,serif" font-size="14.00">manifest</text>
</g>
<g id="clust5" class="cluster">
<title>cluster_manifest2</title>
<polygon fill="none" stroke="black" points="236,-161 236,-290 306,-290 306,-161 236,-161"/>
<text text-anchor="middle" x="271" y="-274.8" font-family="Times,serif" font-size="14.00">manifest</text>
</g>
<g id="clust6" class="cluster">
<title>cluster_index</title>
<polygon fill="none" stroke="black" points="131,-78 131,-153 216,-153 216,-78 131,-78"/>
<text text-anchor="middle" x="173.5" y="-137.8" font-family="Times,serif" font-size="14.00">index</text>
</g>
<g id="clust7" class="cluster">
<title>cluster_blobs</title>
<polygon fill="none" stroke="black" points="334,-20 334,-311 473.55,-311 473.55,-20 334,-20"/>
<text text-anchor="middle" x="403.77" y="-295.8" font-family="Times,serif" font-size="14.00">/v2/.../blobs/&lt;sha256&gt;</text>
</g>
<!-- tag -->
<g id="node1" class="node">
<title>tag</title>
<polygon fill="none" stroke="black" points="82,-68 28,-68 28,-32 82,-32 82,-68"/>
<text text-anchor="middle" x="55" y="-46.3" font-family="Times,serif" font-size="14.00">tag</text>
</g>
<!-- mconfig -->
<g id="node3" class="node">
<title>mconfig</title>
<polygon fill="none" stroke="black" points="298,-68 244,-68 244,-32 298,-32 298,-68"/>
<text text-anchor="middle" x="271" y="-46.3" font-family="Times,serif" font-size="14.00">config</text>
</g>
<!-- tag&#45;&gt;mconfig -->
<g id="edge9" class="edge">
<title>tag&#45;&gt;mconfig</title>
<path fill="none" stroke="black" stroke-dasharray="5,2" d="M82.24,-50C120.29,-50 190.9,-50 233.85,-50"/>
<polygon fill="black" stroke="black" points="226,-53.5 236,-50 226,-46.5 226,-53.5"/>
</g>
<!-- tag2 -->
<g id="node2" class="node">
<title>tag2</title>
<polygon fill="none" stroke="black" points="82,-122 28,-122 28,-86 82,-86 82,-122"/>
<text text-anchor="middle" x="55" y="-100.3" font-family="Times,serif" font-size="14.00">tag</text>
</g>
<!-- imanifest -->
<g id="node7" class="node">
<title>imanifest</title>
<polygon fill="none" stroke="black" points="208,-122 139,-122 139,-86 208,-86 208,-122"/>
<text text-anchor="middle" x="173.5" y="-100.3" font-family="Times,serif" font-size="14.00">manifests</text>
</g>
<!-- tag2&#45;&gt;imanifest -->
<g id="edge10" class="edge">
<title>tag2&#45;&gt;imanifest</title>
<path fill="none" stroke="black" stroke-dasharray="5,2" d="M82.14,-104C95.9,-104 113.14,-104 128.85,-104"/>
<polygon fill="black" stroke="black" points="121,-107.5 131,-104 121,-100.5 121,-107.5"/>
</g>
<!-- bconfig -->
<g id="node8" class="node">
<title>bconfig</title>
<polygon fill="none" stroke="black" points="441.33,-46 422.3,-64 384.25,-64 365.22,-46 384.25,-28 422.3,-28 441.33,-46"/>
<text text-anchor="middle" x="403.27" y="-42.3" font-family="Times,serif" font-size="14.00">config</text>
</g>
<!-- mconfig&#45;&gt;bconfig -->
<g id="edge7" class="edge">
<title>mconfig&#45;&gt;bconfig</title>
<path fill="none" stroke="black" d="M298.05,-49.2C314.54,-48.69 336.33,-48.02 355.73,-47.43"/>
<polygon fill="black" stroke="black" points="356.02,-50.92 365.91,-47.12 355.81,-43.93 356.02,-50.92"/>
</g>
<!-- layers -->
<g id="node4" class="node">
<title>layers</title>
<polygon fill="none" stroke="black" points="298,-122 244,-122 244,-86 298,-86 298,-122"/>
<text text-anchor="middle" x="271" y="-100.3" font-family="Times,serif" font-size="14.00">layers</text>
</g>
<!-- l1 -->
<g id="node10" class="node">
<title>l1</title>
<polygon fill="none" stroke="black" points="430.27,-118 427.27,-122 406.27,-122 403.27,-118 376.27,-118 376.27,-82 430.27,-82 430.27,-118"/>
<text text-anchor="middle" x="403.27" y="-96.3" font-family="Times,serif" font-size="14.00">layer</text>
</g>
<!-- layers&#45;&gt;l1 -->
<g id="edge3" class="edge">
<title>layers&#45;&gt;l1</title>
<path fill="none" stroke="black" d="M298.05,-103.2C317.58,-102.6 344.54,-101.77 366.15,-101.11"/>
<polygon fill="black" stroke="black" points="366.38,-104.6 376.27,-100.8 366.17,-97.61 366.38,-104.6"/>
</g>
<!-- l2 -->
<g id="node11" class="node">
<title>l2</title>
<polygon fill="none" stroke="black" points="430.27,-172 427.27,-176 406.27,-176 403.27,-172 376.27,-172 376.27,-136 430.27,-136 430.27,-172"/>
<text text-anchor="middle" x="403.27" y="-150.3" font-family="Times,serif" font-size="14.00">layer</text>
</g>
<!-- layers&#45;&gt;l2 -->
<g id="edge4" class="edge">
<title>layers&#45;&gt;l2</title>
<path fill="none" stroke="black" d="M298.05,-114C317.75,-121.56 345.03,-132.03 366.74,-140.36"/>
<polygon fill="black" stroke="black" points="365.68,-143.7 376.27,-144.02 368.19,-137.17 365.68,-143.7"/>
</g>
<!-- mconfig2 -->
<g id="node5" class="node">
<title>mconfig2</title>
<polygon fill="none" stroke="black" points="298,-259 244,-259 244,-223 298,-223 298,-259"/>
<text text-anchor="middle" x="271" y="-237.3" font-family="Times,serif" font-size="14.00">config</text>
</g>
<!-- bconfig2 -->
<g id="node9" class="node">
<title>bconfig2</title>
<polygon fill="none" stroke="black" points="441.33,-262 422.3,-280 384.25,-280 365.22,-262 384.25,-244 422.3,-244 441.33,-262"/>
<text text-anchor="middle" x="403.27" y="-258.3" font-family="Times,serif" font-size="14.00">config</text>
</g>
<!-- mconfig2&#45;&gt;bconfig2 -->
<g id="edge8" class="edge">
<title>mconfig2&#45;&gt;bconfig2</title>
<path fill="none" stroke="black" d="M298.05,-245.2C315.84,-248.07 339.79,-251.93 360.25,-255.23"/>
<polygon fill="black" stroke="black" points="359.85,-258.71 370.28,-256.84 360.96,-251.79 359.85,-258.71"/>
</g>
<!-- layers2 -->
<g id="node6" class="node">
<title>layers2</title>
<polygon fill="none" stroke="black" points="298,-205 244,-205 244,-169 298,-169 298,-205"/>
<text text-anchor="middle" x="271" y="-183.3" font-family="Times,serif" font-size="14.00">layers</text>
</g>
<!-- layers2&#45;&gt;l2 -->
<g id="edge5" class="edge">
<title>layers2&#45;&gt;l2</title>
<path fill="none" stroke="black" d="M298.05,-180.4C317.66,-175.43 344.78,-168.56 366.44,-163.08"/>
<polygon fill="black" stroke="black" points="367.44,-166.44 376.27,-160.59 365.72,-159.65 367.44,-166.44"/>
</g>
<!-- l3 -->
<g id="node12" class="node">
<title>l3</title>
<polygon fill="none" stroke="black" points="430.27,-226 427.27,-230 406.27,-230 403.27,-226 376.27,-226 376.27,-190 430.27,-190 430.27,-226"/>
<text text-anchor="middle" x="403.27" y="-204.3" font-family="Times,serif" font-size="14.00">layer</text>
</g>
<!-- layers2&#45;&gt;l3 -->
<g id="edge6" class="edge">
<title>layers2&#45;&gt;l3</title>
<path fill="none" stroke="black" d="M298.05,-191.2C317.58,-194.35 344.54,-198.69 366.15,-202.18"/>
<polygon fill="black" stroke="black" points="365.84,-205.67 376.27,-203.81 366.95,-198.76 365.84,-205.67"/>
</g>
<!-- imanifest&#45;&gt;mconfig -->
<g id="edge1" class="edge">
<title>imanifest&#45;&gt;mconfig</title>
<path fill="none" stroke="black" d="M206.57,-85.87C215.67,-80.72 225.63,-75.09 234.9,-69.85"/>
<polygon fill="black" stroke="black" points="231.33,-78.27 236,-68.76 226.42,-73.29 231.33,-78.27"/>
</g>
<!-- imanifest&#45;&gt;mconfig2 -->
<g id="edge2" class="edge">
<title>imanifest&#45;&gt;mconfig2</title>
<path fill="none" stroke="black" d="M181.97,-122.1C191.11,-143 208.06,-178.1 229.52,-205.98"/>
<polygon fill="black" stroke="black" points="226.99,-208.42 236,-214 232.44,-204.02 226.99,-208.42"/>
</g>
</g>
</svg>
