<?xml version="1.0" encoding="UTF-8" standalone="no"?>
<!DOCTYPE svg PUBLIC "-//W3C//DTD SVG 1.1//EN"
 "http://www.w3.org/Graphics/SVG/1.1/DTD/svg11.dtd">
<!-- Generated by graphviz version 14.0.1 (20251006.0113)
 -->
<!-- Pages: 1 -->
<svg width="488pt" height="376pt"
 viewBox="0.00 0.00 488.00 376.00" xmlns="http://www.w3.org/2000/svg" xmlns:xlink="http://www.w3.org/1999/xlink">
<g id="graph0" class="graph" transform="scale(1 1) rotate(0) translate(4 372)">
<polygon fill="white" stroke="none" points="-4,4 -4,-372 484.25,-372 484.25,4 -4,4"/>
<g id="clust1" class="cluster">
<title>cluster_registry</title>
<polygon fill="none" stroke="black" points="0,-8 0,-360 480.25,-360 480.25,-8 0,-8"/>
<text xml:space="preserve" text-anchor="middle" x="240.12" y="-342.7" font-family="Times,serif" font-size="14.00">registry</text>
</g>
<g id="clust2" class="cluster">
<title>cluster_tags</title>
<polygon fill="none" stroke="black" points="8,-24 8,-155 102,-155 102,-24 8,-24"/>
<text xml:space="preserve" text-anchor="middle" x="55" y="-137.7" font-family="Times,serif" font-size="14.00">/v2/.../tags/list</text>
</g>
<g id="clust3" class="cluster">
<title>cluster_manifests</title>
<polygon fill="none" stroke="black" points="122,-16 122,-327 312.5,-327 312.5,-16 122,-16"/>
<text xml:space="preserve" text-anchor="middle" x="217.25" y="-309.7" font-family="Times,serif" font-size="14.00">/v2/.../manifests/&lt;ref&gt;</text>
</g>
<g id="clust4" class="cluster">
<title>cluster_manifest</title>
<polygon fill="none" stroke="black" points="234.5,-24 234.5,-155 304.5,-155 304.5,-24 234.5,-24"/>
<text xml:space="preserve" text-anchor="middle" x="269.5" y="-137.7" font-family="Times,serif" font-size="14.00">manifest</text>
</g>
<g id="clust5" class="cluster">
<title>cluster_manifest2</title>
<polygon fill="none" stroke="black" points="234.5,-163 234.5,-294 304.5,-294 304.5,-163 234.5,-163"/>
<text xml:space="preserve" text-anchor="middle" x="269.5" y="-276.7" font-family="Times,serif" font-size="14.00">manifest</text>
</g>
<g id="clust6" class="cluster">
<title>cluster_index</title>
<polygon fill="none" stroke="black" points="130,-78 130,-155 214.5,-155 214.5,-78 130,-78"/>
<text xml:space="preserve" text-anchor="middle" x="172.25" y="-137.7" font-family="Times,serif" font-size="14.00">index</text>
</g>
<g id="clust7" class="cluster">
<title>cluster_blobs</title>
<polygon fill="none" stroke="black" points="332.5,-20 332.5,-313 472.25,-313 472.25,-20 332.5,-20"/>
<text xml:space="preserve" text-anchor="middle" x="402.38" y="-295.7" font-family="Times,serif" font-size="14.00">/v2/.../blobs/&lt;sha256&gt;</text>
</g>
<!-- tag -->
<g id="node1" class="node">
<title>tag</title>
<polygon fill="none" stroke="black" points="81.5,-68 27.5,-68 27.5,-32 81.5,-32 81.5,-68"/>
<text xml:space="preserve" text-anchor="middle" x="54.5" y="-44.95" font-family="Times,serif" font-size="14.00">tag</text>
</g>
<!-- mconfig -->
<g id="node3" class="node">
<title>mconfig</title>
<polygon fill="none" stroke="black" points="296.5,-68 242.5,-68 242.5,-32 296.5,-32 296.5,-68"/>
<text xml:space="preserve" text-anchor="middle" x="269.5" y="-44.95" font-family="Times,serif" font-size="14.00">config</text>
</g>
<!-- tag&#45;&gt;mconfig -->
<g id="edge9" class="edge">
<title>tag&#45;&gt;mconfig</title>
<path fill="none" stroke="black" stroke-dasharray="5,2" d="M81.62,-50C118.99,-50 187.92,-50 230.81,-50"/>
<polygon fill="black" stroke="black" points="222.99,-53.5 232.99,-50 222.99,-46.5 222.99,-53.5"/>
</g>
<!-- tag2 -->
<g id="node2" class="node">
<title>tag2</title>
<polygon fill="none" stroke="black" points="81.5,-122 27.5,-122 27.5,-86 81.5,-86 81.5,-122"/>
<text xml:space="preserve" text-anchor="middle" x="54.5" y="-98.95" font-family="Times,serif" font-size="14.00">tag</text>
</g>
<!-- imanifest -->
<g id="node7" class="node">
<title>imanifest</title>
<polygon fill="none" stroke="black" points="206.5,-122 138,-122 138,-86 206.5,-86 206.5,-122"/>
<text xml:space="preserve" text-anchor="middle" x="172.25" y="-98.95" font-family="Times,serif" font-size="14.00">manifests</text>
</g>
<!-- tag2&#45;&gt;imanifest -->
<g id="edge10" class="edge">
<title>tag2&#45;&gt;imanifest</title>
<path fill="none" stroke="black" stroke-dasharray="5,2" d="M81.77,-104C94.95,-104 111.29,-104 126.38,-104"/>
<polygon fill="black" stroke="black" points="118.49,-107.5 128.49,-104 118.49,-100.5 118.49,-107.5"/>
</g>
<!-- bconfig -->
<g id="node8" class="node">
<title>bconfig</title>
<polygon fill="none" stroke="black" points="441.67,-46 421.77,-64 381.98,-64 362.08,-46 381.98,-28 421.77,-28 441.67,-46"/>
<text xml:space="preserve" text-anchor="middle" x="401.88" y="-40.95" font-family="Times,serif" font-size="14.00">config</text>
</g>
<!-- mconfig&#45;&gt;bconfig -->
<g id="edge7" class="edge">
<title>mconfig&#45;&gt;bconfig</title>
<path fill="none" stroke="black" d="M296.88,-49.19C312.53,-48.71 332.88,-48.09 351.42,-47.52"/>
<polygon fill="black" stroke="black" points="351.27,-51.02 361.15,-47.22 351.05,-44.03 351.27,-51.02"/>
</g>
<!-- layers -->
<g id="node4" class="node">
<title>layers</title>
<polygon fill="none" stroke="black" points="296.5,-122 242.5,-122 242.5,-86 296.5,-86 296.5,-122"/>
<text xml:space="preserve" text-anchor="middle" x="269.5" y="-98.95" font-family="Times,serif" font-size="14.00">layers</text>
</g>
<!-- l1 -->
<g id="node10" class="node">
<title>l1</title>
<polygon fill="none" stroke="black" points="428.88,-118 425.88,-122 404.88,-122 401.88,-118 374.88,-118 374.88,-82 428.88,-82 428.88,-118"/>
<text xml:space="preserve" text-anchor="middle" x="401.88" y="-94.95" font-family="Times,serif" font-size="14.00">layer</text>
</g>
<!-- layers&#45;&gt;l1 -->
<g id="edge3" class="edge">
<title>layers&#45;&gt;l1</title>
<path fill="none" stroke="black" d="M296.88,-103.19C315.97,-102.6 342.03,-101.81 363.29,-101.15"/>
<polygon fill="black" stroke="black" points="363.13,-104.66 373.02,-100.85 362.92,-97.66 363.13,-104.66"/>
</g>
<!-- l2 -->
<g id="node11" class="node">
<title>l2</title>
<polygon fill="none" stroke="black" points="428.88,-172 425.88,-176 404.88,-176 401.88,-172 374.88,-172 374.88,-136 428.88,-136 428.88,-172"/>
<text xml:space="preserve" text-anchor="middle" x="401.88" y="-148.95" font-family="Times,serif" font-size="14.00">layer</text>
</g>
<!-- layers&#45;&gt;l2 -->
<g id="edge4" class="edge">
<title>layers&#45;&gt;l2</title>
<path fill="none" stroke="black" d="M296.88,-114.12C316.15,-121.51 342.51,-131.62 363.88,-139.81"/>
<polygon fill="black" stroke="black" points="362.53,-143.04 373.12,-143.35 365.03,-136.51 362.53,-143.04"/>
</g>
<!-- mconfig2 -->
<g id="node5" class="node">
<title>mconfig2</title>
<polygon fill="none" stroke="black" points="296.5,-261 242.5,-261 242.5,-225 296.5,-225 296.5,-261"/>
<text xml:space="preserve" text-anchor="middle" x="269.5" y="-237.95" font-family="Times,serif" font-size="14.00">config</text>
</g>
<!-- bconfig2 -->
<g id="node9" class="node">
<title>bconfig2</title>
<polygon fill="none" stroke="black" points="441.67,-262 421.77,-280 381.98,-280 362.08,-262 381.98,-244 421.77,-244 441.67,-262"/>
<text xml:space="preserve" text-anchor="middle" x="401.88" y="-256.95" font-family="Times,serif" font-size="14.00">config</text>
</g>
<!-- mconfig2&#45;&gt;bconfig2 -->
<g id="edge8" class="edge">
<title>mconfig2&#45;&gt;bconfig2</title>
<path fill="none" stroke="black" d="M296.88,-246.84C313.8,-249.31 336.2,-252.57 355.88,-255.44"/>
<polygon fill="black" stroke="black" points="355.19,-258.88 365.59,-256.86 356.2,-251.95 355.19,-258.88"/>
</g>
<!-- layers2 -->
<g id="node6" class="node">
<title>layers2</title>
<polygon fill="none" stroke="black" points="296.5,-207 242.5,-207 242.5,-171 296.5,-171 296.5,-207"/>
<text xml:space="preserve" text-anchor="middle" x="269.5" y="-183.95" font-family="Times,serif" font-size="14.00">layers</text>
</g>
<!-- layers2&#45;&gt;l2 -->
<g id="edge5" class="edge">
<title>layers2&#45;&gt;l2</title>
<path fill="none" stroke="black" d="M296.88,-181.92C316.06,-176.77 342.27,-169.73 363.58,-164.01"/>
<polygon fill="black" stroke="black" points="364.32,-167.44 373.07,-161.46 362.5,-160.68 364.32,-167.44"/>
</g>
<!-- l3 -->
<g id="node12" class="node">
<title>l3</title>
<polygon fill="none" stroke="black" points="428.88,-226 425.88,-230 404.88,-230 401.88,-226 374.88,-226 374.88,-190 428.88,-190 428.88,-226"/>
<text xml:space="preserve" text-anchor="middle" x="401.88" y="-202.95" font-family="Times,serif" font-size="14.00">layer</text>
</g>
<!-- layers2&#45;&gt;l3 -->
<g id="edge6" class="edge">
<title>layers2&#45;&gt;l3</title>
<path fill="none" stroke="black" d="M296.88,-192.84C315.97,-195.63 342.03,-199.42 363.29,-202.52"/>
<polygon fill="black" stroke="black" points="362.63,-205.96 373.03,-203.94 363.64,-199.04 362.63,-205.96"/>
</g>
<!-- imanifest&#45;&gt;mconfig -->
<g id="edge1" class="edge">
<title>imanifest&#45;&gt;mconfig</title>
<path fill="none" stroke="black" d="M205.76,-85.57C214.29,-80.74 223.53,-75.5 232.23,-70.56"/>
<polygon fill="black" stroke="black" points="227.14,-78.47 233.27,-69.83 223.09,-72.76 227.14,-78.47"/>
</g>
<!-- imanifest&#45;&gt;mconfig2 -->
<g id="edge2" class="edge">
<title>imanifest&#45;&gt;mconfig2</title>
<path fill="none" stroke="black" d="M180.6,-122.44C189.54,-143.55 206.12,-178.87 227.42,-207.11"/>
<polygon fill="black" stroke="black" points="224.59,-209.17 233.56,-214.82 230.07,-204.81 224.59,-209.17"/>
</g>
</g>
</svg>
