<?xml version="1.0" encoding="UTF-8" standalone="no"?>
<!DOCTYPE svg PUBLIC "-//W3C//DTD SVG 1.1//EN"
 "http://www.w3.org/Graphics/SVG/1.1/DTD/svg11.dtd">
<!-- Generated by graphviz version 2.43.0 (0)
 -->
<!-- Title: G Pages: 1 -->
<svg width="530pt" height="767pt"
 viewBox="0.00 0.00 530.09 767.00" xmlns="http://www.w3.org/2000/svg" xmlns:xlink="http://www.w3.org/1999/xlink">
<g id="graph0" class="graph" transform="scale(1 1) rotate(0) translate(4 763)">
<title>G</title>
<polygon fill="white" stroke="transparent" points="-4,4 -4,-763 526.09,-763 526.09,4 -4,4"/>
<g id="clust1" class="cluster">
<title>cluster_goroutine</title>
<polygon fill="none" stroke="black" points="8,-208 8,-715 393,-715 393,-208 8,-208"/>
<text text-anchor="middle" x="200.5" y="-699.8" font-family="Times,serif" font-size="14.00">goroutine</text>
</g>
<!-- fs -->
<g id="node1" class="node">
<title>fs</title>
<polygon fill="none" stroke="black" points="165,-759 162,-763 141,-763 138,-759 111,-759 111,-723 165,-723 165,-759"/>
<text text-anchor="middle" x="138" y="-737.3" font-family="Times,serif" font-size="14.00">input</text>
</g>
<!-- rc -->
<g id="node6" class="node">
<title>rc</title>
<ellipse fill="none" stroke="black" cx="138" cy="-666" rx="61.19" ry="18"/>
<text text-anchor="middle" x="138" y="-662.3" font-family="Times,serif" font-size="14.00">io.ReadCloser</text>
</g>
<!-- fs&#45;&gt;rc -->
<g id="edge12" class="edge">
<title>fs&#45;&gt;rc</title>
<path fill="none" stroke="black" stroke-width="2" d="M138,-722.7C138,-714.25 138,-703.87 138,-694.37"/>
<polygon fill="black" stroke="black" stroke-width="2" points="141.5,-694.18 138,-684.18 134.5,-694.18 141.5,-694.18"/>
</g>
<!-- pr -->
<g id="node2" class="node">
<title>pr</title>
<ellipse fill="none" stroke="black" cx="461" cy="-234" rx="60.39" ry="18"/>
<text text-anchor="middle" x="461" y="-230.3" font-family="Times,serif" font-size="14.00">io.PipeReader</text>
</g>
<!-- compressed -->
<g id="node3" class="node">
<title>compressed</title>
<polygon fill="none" stroke="black" points="507.5,-180 414.5,-180 414.5,-144 507.5,-144 507.5,-180"/>
<text text-anchor="middle" x="461" y="-158.3" font-family="Times,serif" font-size="14.00">Compressed()</text>
</g>
<!-- pr&#45;&gt;compressed -->
<g id="edge14" class="edge">
<title>pr&#45;&gt;compressed</title>
<path fill="none" stroke="black" stroke-width="2" d="M461,-215.7C461,-207.98 461,-198.71 461,-190.11"/>
<polygon fill="black" stroke="black" stroke-width="2" points="464.5,-190.1 461,-180.1 457.5,-190.1 464.5,-190.1"/>
</g>
<!-- rc2 -->
<g id="node4" class="node">
<title>rc2</title>
<ellipse fill="none" stroke="black" cx="461" cy="-90" rx="61.19" ry="18"/>
<text text-anchor="middle" x="461" y="-86.3" font-family="Times,serif" font-size="14.00">io.ReadCloser</text>
</g>
<!-- compressed&#45;&gt;rc2 -->
<g id="edge15" class="edge">
<title>compressed&#45;&gt;rc2</title>
<path fill="none" stroke="black" stroke-width="2" d="M461,-143.7C461,-135.98 461,-126.71 461,-118.11"/>
<polygon fill="black" stroke="black" stroke-width="2" points="464.5,-118.1 461,-108.1 457.5,-118.1 464.5,-118.1"/>
</g>
<!-- output -->
<g id="node5" class="node">
<title>output</title>
<path fill="none" stroke="black" d="M488,-32.73C488,-34.53 475.9,-36 461,-36 446.1,-36 434,-34.53 434,-32.73 434,-32.73 434,-3.27 434,-3.27 434,-1.47 446.1,0 461,0 475.9,0 488,-1.47 488,-3.27 488,-3.27 488,-32.73 488,-32.73"/>
<path fill="none" stroke="black" d="M488,-32.73C488,-30.92 475.9,-29.45 461,-29.45 446.1,-29.45 434,-30.92 434,-32.73"/>
<text text-anchor="middle" x="461" y="-14.3" font-family="Times,serif" font-size="14.00">output</text>
</g>
<!-- rc2&#45;&gt;output -->
<g id="edge16" class="edge">
<title>rc2&#45;&gt;output</title>
<path fill="none" stroke="black" stroke-width="2" d="M461,-71.7C461,-63.98 461,-54.71 461,-46.11"/>
<polygon fill="black" stroke="black" stroke-width="2" points="464.5,-46.1 461,-36.1 457.5,-46.1 464.5,-46.1"/>
</g>
<!-- copy -->
<g id="node7" class="node">
<title>copy</title>
<ellipse fill="none" stroke="black" cx="138" cy="-594" rx="38.99" ry="18"/>
<text text-anchor="middle" x="138" y="-590.3" font-family="Times,serif" font-size="14.00">io.Copy</text>
</g>
<!-- rc&#45;&gt;copy -->
<g id="edge1" class="edge">
<title>rc&#45;&gt;copy</title>
<path fill="none" stroke="black" stroke-width="2" d="M138,-647.7C138,-639.98 138,-630.71 138,-622.11"/>
<polygon fill="black" stroke="black" stroke-width="2" points="141.5,-622.1 138,-612.1 134.5,-622.1 141.5,-622.1"/>
</g>
<!-- mw -->
<g id="node9" class="node">
<title>mw</title>
<ellipse fill="none" stroke="black" cx="138" cy="-522" rx="63.09" ry="18"/>
<text text-anchor="middle" x="138" y="-518.3" font-family="Times,serif" font-size="14.00">io.MultiWriter</text>
</g>
<!-- copy&#45;&gt;mw -->
<g id="edge2" class="edge">
<title>copy&#45;&gt;mw</title>
<path fill="none" stroke="black" stroke-width="2" d="M138,-575.7C138,-567.98 138,-558.71 138,-550.11"/>
<polygon fill="black" stroke="black" stroke-width="2" points="141.5,-550.1 138,-540.1 134.5,-550.1 141.5,-550.1"/>
</g>
<!-- pw -->
<g id="node8" class="node">
<title>pw</title>
<ellipse fill="none" stroke="black" cx="327" cy="-306" rx="58.49" ry="18"/>
<text text-anchor="middle" x="327" y="-302.3" font-family="Times,serif" font-size="14.00">io.PipeWriter</text>
</g>
<!-- pw&#45;&gt;pr -->
<g id="edge13" class="edge">
<title>pw&#45;&gt;pr</title>
<path fill="none" stroke="black" stroke-width="2" d="M355.42,-290.15C375.18,-279.83 401.74,-265.96 423.27,-254.71"/>
<polygon fill="black" stroke="black" stroke-width="2" points="424.92,-257.8 432.16,-250.07 421.68,-251.59 424.92,-257.8"/>
</g>
<!-- h1 -->
<g id="node10" class="node">
<title>h1</title>
<ellipse fill="none" stroke="black" cx="73" cy="-450" rx="54.69" ry="18"/>
<text text-anchor="middle" x="73" y="-446.3" font-family="Times,serif" font-size="14.00">sha256.New</text>
</g>
<!-- mw&#45;&gt;h1 -->
<g id="edge3" class="edge">
<title>mw&#45;&gt;h1</title>
<path fill="none" stroke="black" d="M122.6,-504.41C114.42,-495.61 104.23,-484.63 95.21,-474.92"/>
<polygon fill="black" stroke="black" points="97.66,-472.42 88.29,-467.47 92.53,-477.18 97.66,-472.42"/>
</g>
<!-- gzip -->
<g id="node11" class="node">
<title>gzip</title>
<ellipse fill="none" stroke="black" cx="197" cy="-450" rx="51.19" ry="18"/>
<text text-anchor="middle" x="197" y="-446.3" font-family="Times,serif" font-size="14.00">gzip.Writer</text>
</g>
<!-- mw&#45;&gt;gzip -->
<g id="edge5" class="edge">
<title>mw&#45;&gt;gzip</title>
<path fill="none" stroke="black" stroke-width="2" d="M151.98,-504.41C159.33,-495.69 168.47,-484.85 176.6,-475.21"/>
<polygon fill="black" stroke="black" stroke-width="2" points="179.35,-477.37 183.12,-467.47 174,-472.86 179.35,-477.37"/>
</g>
<!-- diffid -->
<g id="node16" class="node">
<title>diffid</title>
<polygon fill="none" stroke="black" points="104,-396 42,-396 42,-360 104,-360 104,-396"/>
<text text-anchor="middle" x="73" y="-374.3" font-family="Times,serif" font-size="14.00">DiffID()</text>
</g>
<!-- h1&#45;&gt;diffid -->
<g id="edge4" class="edge">
<title>h1&#45;&gt;diffid</title>
<path fill="none" stroke="black" stroke-dasharray="5,2" d="M73,-431.7C73,-423.98 73,-414.71 73,-406.11"/>
<polygon fill="black" stroke="black" points="76.5,-406.1 73,-396.1 69.5,-406.1 76.5,-406.1"/>
</g>
<!-- mw2 -->
<g id="node12" class="node">
<title>mw2</title>
<ellipse fill="none" stroke="black" cx="197" cy="-378" rx="63.09" ry="18"/>
<text text-anchor="middle" x="197" y="-374.3" font-family="Times,serif" font-size="14.00">io.MultiWriter</text>
</g>
<!-- gzip&#45;&gt;mw2 -->
<g id="edge6" class="edge">
<title>gzip&#45;&gt;mw2</title>
<path fill="none" stroke="black" stroke-width="2" d="M197,-431.7C197,-423.98 197,-414.71 197,-406.11"/>
<polygon fill="black" stroke="black" stroke-width="2" points="200.5,-406.1 197,-396.1 193.5,-406.1 200.5,-406.1"/>
</g>
<!-- mw2&#45;&gt;pw -->
<g id="edge11" class="edge">
<title>mw2&#45;&gt;pw</title>
<path fill="none" stroke="black" stroke-width="2" d="M225.21,-361.81C244.33,-351.51 269.79,-337.8 290.47,-326.67"/>
<polygon fill="black" stroke="black" stroke-width="2" points="292.15,-329.74 299.29,-321.92 288.83,-323.58 292.15,-329.74"/>
</g>
<!-- h2 -->
<g id="node13" class="node">
<title>h2</title>
<ellipse fill="none" stroke="black" cx="71" cy="-306" rx="54.69" ry="18"/>
<text text-anchor="middle" x="71" y="-302.3" font-family="Times,serif" font-size="14.00">sha256.New</text>
</g>
<!-- mw2&#45;&gt;h2 -->
<g id="edge7" class="edge">
<title>mw2&#45;&gt;h2</title>
<path fill="none" stroke="black" d="M169.35,-361.64C150.88,-351.38 126.42,-337.79 106.51,-326.73"/>
<polygon fill="black" stroke="black" points="108.16,-323.64 97.72,-321.85 104.76,-329.76 108.16,-323.64"/>
</g>
<!-- count -->
<g id="node14" class="node">
<title>count</title>
<ellipse fill="none" stroke="black" cx="197" cy="-306" rx="53.09" ry="18"/>
<text text-anchor="middle" x="197" y="-302.3" font-family="Times,serif" font-size="14.00">countWriter</text>
</g>
<!-- mw2&#45;&gt;count -->
<g id="edge9" class="edge">
<title>mw2&#45;&gt;count</title>
<path fill="none" stroke="black" d="M197,-359.7C197,-351.98 197,-342.71 197,-334.11"/>
<polygon fill="black" stroke="black" points="200.5,-334.1 197,-324.1 193.5,-334.1 200.5,-334.1"/>
</g>
<!-- digest -->
<g id="node17" class="node">
<title>digest</title>
<polygon fill="none" stroke="black" points="101.5,-252 40.5,-252 40.5,-216 101.5,-216 101.5,-252"/>
<text text-anchor="middle" x="71" y="-230.3" font-family="Times,serif" font-size="14.00">Digest()</text>
</g>
<!-- h2&#45;&gt;digest -->
<g id="edge8" class="edge">
<title>h2&#45;&gt;digest</title>
<path fill="none" stroke="black" stroke-dasharray="5,2" d="M71,-287.7C71,-279.98 71,-270.71 71,-262.11"/>
<polygon fill="black" stroke="black" points="74.5,-262.1 71,-252.1 67.5,-262.1 74.5,-262.1"/>
</g>
<!-- size -->
<g id="node15" class="node">
<title>size</title>
<polygon fill="none" stroke="black" points="224,-252 170,-252 170,-216 224,-216 224,-252"/>
<text text-anchor="middle" x="197" y="-230.3" font-family="Times,serif" font-size="14.00">Size()</text>
</g>
<!-- count&#45;&gt;size -->
<g id="edge10" class="edge">
<title>count&#45;&gt;size</title>
<path fill="none" stroke="black" stroke-dasharray="1,5" d="M197,-287.7C197,-279.98 197,-270.71 197,-262.11"/>
<polygon fill="black" stroke="black" points="200.5,-262.1 197,-252.1 193.5,-262.1 200.5,-262.1"/>
</g>
</g>
</svg>
