<?xml version="1.0" encoding="UTF-8" standalone="no"?>
<!DOCTYPE svg PUBLIC "-//W3C//DTD SVG 1.1//EN"
 "http://www.w3.org/Graphics/SVG/1.1/DTD/svg11.dtd">
<!-- Generated by graphviz version 14.0.1 (20251006.0113)
 -->
<!-- Title: G Pages: 1 -->
<svg width="550pt" height="769pt"
 viewBox="0.00 0.00 550.00 769.00" xmlns="http://www.w3.org/2000/svg" xmlns:xlink="http://www.w3.org/1999/xlink">
<g id="graph0" class="graph" transform="scale(1 1) rotate(0) translate(4 764.5)">
<title>G</title>
<polygon fill="white" stroke="none" points="-4,4 -4,-764.5 545.63,-764.5 545.63,4 -4,4"/>
<g id="clust1" class="cluster">
<title>cluster_goroutine</title>
<polygon fill="none" stroke="black" points="8,-208 8,-716.5 407,-716.5 407,-208 8,-208"/>
<text xml:space="preserve" text-anchor="middle" x="207.5" y="-699.2" font-family="Times,serif" font-size="14.00">goroutine</text>
</g>
<!-- fs -->
<g id="node1" class="node">
<title>fs</title>
<polygon fill="none" stroke="black" points="169,-760.5 166,-764.5 145,-764.5 142,-760.5 115,-760.5 115,-724.5 169,-724.5 169,-760.5"/>
<text xml:space="preserve" text-anchor="middle" x="142" y="-737.45" font-family="Times,serif" font-size="14.00">input</text>
</g>
<!-- rc -->
<g id="node6" class="node">
<title>rc</title>
<ellipse fill="none" stroke="black" cx="142" cy="-666" rx="63.63" ry="18"/>
<text xml:space="preserve" text-anchor="middle" x="142" y="-660.95" font-family="Times,serif" font-size="14.00">io.ReadCloser</text>
</g>
<!-- fs&#45;&gt;rc -->
<g id="edge12" class="edge">
<title>fs&#45;&gt;rc</title>
<path fill="none" stroke="black" stroke-width="2" d="M142,-724.22C142,-715.82 142,-705.49 142,-695.93"/>
<polygon fill="black" stroke="black" stroke-width="2" points="145.5,-697.47 142,-687.47 138.5,-697.47 145.5,-697.47"/>
</g>
<!-- pr -->
<g id="node2" class="node">
<title>pr</title>
<ellipse fill="none" stroke="black" cx="478" cy="-234" rx="63.12" ry="18"/>
<text xml:space="preserve" text-anchor="middle" x="478" y="-228.95" font-family="Times,serif" font-size="14.00">io.PipeReader</text>
</g>
<!-- compressed -->
<g id="node3" class="node">
<title>compressed</title>
<polygon fill="none" stroke="black" points="524.25,-180 431.75,-180 431.75,-144 524.25,-144 524.25,-180"/>
<text xml:space="preserve" text-anchor="middle" x="478" y="-156.95" font-family="Times,serif" font-size="14.00">Compressed()</text>
</g>
<!-- pr&#45;&gt;compressed -->
<g id="edge14" class="edge">
<title>pr&#45;&gt;compressed</title>
<path fill="none" stroke="black" stroke-width="2" d="M478,-215.7C478,-208.41 478,-199.73 478,-191.54"/>
<polygon fill="black" stroke="black" stroke-width="2" points="481.5,-193.13 478,-183.13 474.5,-193.13 481.5,-193.13"/>
</g>
<!-- rc2 -->
<g id="node4" class="node">
<title>rc2</title>
<ellipse fill="none" stroke="black" cx="478" cy="-90" rx="63.63" ry="18"/>
<text xml:space="preserve" text-anchor="middle" x="478" y="-84.95" font-family="Times,serif" font-size="14.00">io.ReadCloser</text>
</g>
<!-- compressed&#45;&gt;rc2 -->
<g id="edge15" class="edge">
<title>compressed&#45;&gt;rc2</title>
<path fill="none" stroke="black" stroke-width="2" d="M478,-143.7C478,-136.41 478,-127.73 478,-119.54"/>
<polygon fill="black" stroke="black" stroke-width="2" points="481.5,-121.13 478,-111.13 474.5,-121.13 481.5,-121.13"/>
</g>
<!-- output -->
<g id="node5" class="node">
<title>output</title>
<path fill="none" stroke="black" d="M505,-32.73C505,-34.53 492.9,-36 478,-36 463.1,-36 451,-34.53 451,-32.73 451,-32.73 451,-3.27 451,-3.27 451,-1.47 463.1,0 478,0 492.9,0 505,-1.47 505,-3.27 505,-3.27 505,-32.73 505,-32.73"/>
<path fill="none" stroke="black" d="M505,-32.73C505,-30.92 492.9,-29.45 478,-29.45 463.1,-29.45 451,-30.92 451,-32.73"/>
<text xml:space="preserve" text-anchor="middle" x="478" y="-12.95" font-family="Times,serif" font-size="14.00">output</text>
</g>
<!-- rc2&#45;&gt;output -->
<g id="edge16" class="edge">
<title>rc2&#45;&gt;output</title>
<path fill="none" stroke="black" stroke-width="2" d="M478,-71.7C478,-64.41 478,-55.73 478,-47.54"/>
<polygon fill="black" stroke="black" stroke-width="2" points="481.5,-49.13 478,-39.13 474.5,-49.13 481.5,-49.13"/>
</g>
<!-- copy -->
<g id="node7" class="node">
<title>copy</title>
<ellipse fill="none" stroke="black" cx="142" cy="-594" rx="40.6" ry="18"/>
<text xml:space="preserve" text-anchor="middle" x="142" y="-588.95" font-family="Times,serif" font-size="14.00">io.Copy</text>
</g>
<!-- rc&#45;&gt;copy -->
<g id="edge1" class="edge">
<title>rc&#45;&gt;copy</title>
<path fill="none" stroke="black" stroke-width="2" d="M142,-647.7C142,-640.41 142,-631.73 142,-623.54"/>
<polygon fill="black" stroke="black" stroke-width="2" points="145.5,-625.13 142,-615.13 138.5,-625.13 145.5,-625.13"/>
</g>
<!-- mw -->
<g id="node9" class="node">
<title>mw</title>
<ellipse fill="none" stroke="black" cx="142" cy="-522" rx="65.68" ry="18"/>
<text xml:space="preserve" text-anchor="middle" x="142" y="-516.95" font-family="Times,serif" font-size="14.00">io.MultiWriter</text>
</g>
<!-- copy&#45;&gt;mw -->
<g id="edge2" class="edge">
<title>copy&#45;&gt;mw</title>
<path fill="none" stroke="black" stroke-width="2" d="M142,-575.7C142,-568.41 142,-559.73 142,-551.54"/>
<polygon fill="black" stroke="black" stroke-width="2" points="145.5,-553.13 142,-543.13 138.5,-553.13 145.5,-553.13"/>
</g>
<!-- pw -->
<g id="node8" class="node">
<title>pw</title>
<ellipse fill="none" stroke="black" cx="338" cy="-306" rx="61.08" ry="18"/>
<text xml:space="preserve" text-anchor="middle" x="338" y="-300.95" font-family="Times,serif" font-size="14.00">io.PipeWriter</text>
</g>
<!-- pw&#45;&gt;pr -->
<g id="edge13" class="edge">
<title>pw&#45;&gt;pr</title>
<path fill="none" stroke="black" stroke-width="2" d="M368.03,-289.98C388.29,-279.86 415.25,-266.37 437.41,-255.29"/>
<polygon fill="black" stroke="black" stroke-width="2" points="437.45,-259.19 444.83,-251.59 434.32,-252.93 437.45,-259.19"/>
</g>
<!-- h1 -->
<g id="node10" class="node">
<title>h1</title>
<ellipse fill="none" stroke="black" cx="75" cy="-450" rx="56.98" ry="18"/>
<text xml:space="preserve" text-anchor="middle" x="75" y="-444.95" font-family="Times,serif" font-size="14.00">sha256.New</text>
</g>
<!-- mw&#45;&gt;h1 -->
<g id="edge3" class="edge">
<title>mw&#45;&gt;h1</title>
<path fill="none" stroke="black" d="M126.12,-504.41C117.94,-495.87 107.81,-485.28 98.73,-475.79"/>
<polygon fill="black" stroke="black" points="101.25,-473.37 91.81,-468.56 96.2,-478.21 101.25,-473.37"/>
</g>
<!-- gzip -->
<g id="node11" class="node">
<title>gzip</title>
<ellipse fill="none" stroke="black" cx="203" cy="-450" rx="53.4" ry="18"/>
<text xml:space="preserve" text-anchor="middle" x="203" y="-444.95" font-family="Times,serif" font-size="14.00">gzip.Writer</text>
</g>
<!-- mw&#45;&gt;gzip -->
<g id="edge5" class="edge">
<title>mw&#45;&gt;gzip</title>
<path fill="none" stroke="black" stroke-width="2" d="M156.77,-504.05C164.03,-495.71 172.94,-485.49 180.99,-476.25"/>
<polygon fill="black" stroke="black" stroke-width="2" points="182.45,-479.91 186.38,-470.07 177.17,-475.31 182.45,-479.91"/>
</g>
<!-- diffid -->
<g id="node16" class="node">
<title>diffid</title>
<polygon fill="none" stroke="black" points="105.88,-396 44.12,-396 44.12,-360 105.88,-360 105.88,-396"/>
<text xml:space="preserve" text-anchor="middle" x="75" y="-372.95" font-family="Times,serif" font-size="14.00">DiffID()</text>
</g>
<!-- h1&#45;&gt;diffid -->
<g id="edge4" class="edge">
<title>h1&#45;&gt;diffid</title>
<path fill="none" stroke="black" stroke-dasharray="5,2" d="M75,-431.7C75,-424.41 75,-415.73 75,-407.54"/>
<polygon fill="black" stroke="black" points="78.5,-407.62 75,-397.62 71.5,-407.62 78.5,-407.62"/>
</g>
<!-- mw2 -->
<g id="node12" class="node">
<title>mw2</title>
<ellipse fill="none" stroke="black" cx="203" cy="-378" rx="65.68" ry="18"/>
<text xml:space="preserve" text-anchor="middle" x="203" y="-372.95" font-family="Times,serif" font-size="14.00">io.MultiWriter</text>
</g>
<!-- gzip&#45;&gt;mw2 -->
<g id="edge6" class="edge">
<title>gzip&#45;&gt;mw2</title>
<path fill="none" stroke="black" stroke-width="2" d="M203,-431.7C203,-424.41 203,-415.73 203,-407.54"/>
<polygon fill="black" stroke="black" stroke-width="2" points="206.5,-409.13 203,-399.13 199.5,-409.13 206.5,-409.13"/>
</g>
<!-- mw2&#45;&gt;pw -->
<g id="edge11" class="edge">
<title>mw2&#45;&gt;pw</title>
<path fill="none" stroke="black" stroke-width="2" d="M232.63,-361.64C252.1,-351.54 277.8,-338.21 298.94,-327.25"/>
<polygon fill="black" stroke="black" stroke-width="2" points="298.95,-331.19 306.22,-323.48 295.73,-324.97 298.95,-331.19"/>
</g>
<!-- h2 -->
<g id="node13" class="node">
<title>h2</title>
<ellipse fill="none" stroke="black" cx="73" cy="-306" rx="56.98" ry="18"/>
<text xml:space="preserve" text-anchor="middle" x="73" y="-300.95" font-family="Times,serif" font-size="14.00">sha256.New</text>
</g>
<!-- mw2&#45;&gt;h2 -->
<g id="edge7" class="edge">
<title>mw2&#45;&gt;h2</title>
<path fill="none" stroke="black" d="M174.15,-361.46C155.55,-351.45 131.16,-338.32 110.99,-327.46"/>
<polygon fill="black" stroke="black" points="112.68,-324.39 102.21,-322.73 109.36,-330.55 112.68,-324.39"/>
</g>
<!-- count -->
<g id="node14" class="node">
<title>count</title>
<ellipse fill="none" stroke="black" cx="203" cy="-306" rx="55.45" ry="18"/>
<text xml:space="preserve" text-anchor="middle" x="203" y="-300.95" font-family="Times,serif" font-size="14.00">countWriter</text>
</g>
<!-- mw2&#45;&gt;count -->
<g id="edge9" class="edge">
<title>mw2&#45;&gt;count</title>
<path fill="none" stroke="black" d="M203,-359.7C203,-352.41 203,-343.73 203,-335.54"/>
<polygon fill="black" stroke="black" points="206.5,-335.62 203,-325.62 199.5,-335.62 206.5,-335.62"/>
</g>
<!-- digest -->
<g id="node17" class="node">
<title>digest</title>
<polygon fill="none" stroke="black" points="103.12,-252 42.88,-252 42.88,-216 103.12,-216 103.12,-252"/>
<text xml:space="preserve" text-anchor="middle" x="73" y="-228.95" font-family="Times,serif" font-size="14.00">Digest()</text>
</g>
<!-- h2&#45;&gt;digest -->
<g id="edge8" class="edge">
<title>h2&#45;&gt;digest</title>
<path fill="none" stroke="black" stroke-dasharray="5,2" d="M73,-287.7C73,-280.41 73,-271.73 73,-263.54"/>
<polygon fill="black" stroke="black" points="76.5,-263.62 73,-253.62 69.5,-263.62 76.5,-263.62"/>
</g>
<!-- size -->
<g id="node15" class="node">
<title>size</title>
<polygon fill="none" stroke="black" points="230,-252 176,-252 176,-216 230,-216 230,-252"/>
<text xml:space="preserve" text-anchor="middle" x="203" y="-228.95" font-family="Times,serif" font-size="14.00">Size()</text>
</g>
<!-- count&#45;&gt;size -->
<g id="edge10" class="edge">
<title>count&#45;&gt;size</title>
<path fill="none" stroke="black" stroke-dasharray="1,5" d="M203,-287.7C203,-280.41 203,-271.73 203,-263.54"/>
<polygon fill="black" stroke="black" points="206.5,-263.62 203,-253.62 199.5,-263.62 206.5,-263.62"/>
</g>
</g>
</svg>
