<?xml version="1.0" encoding="UTF-8" standalone="no"?>
<!DOCTYPE svg PUBLIC "-//W3C//DTD SVG 1.1//EN"
 "http://www.w3.org/Graphics/SVG/1.1/DTD/svg11.dtd">
<!-- Generated by graphviz version 14.0.1 (20251006.0113)
 -->
<!-- Pages: 1 -->
<svg width="442pt" height="312pt"
 viewBox="0.00 0.00 442.00 312.00" xmlns="http://www.w3.org/2000/svg" xmlns:xlink="http://www.w3.org/1999/xlink">
<g id="graph0" class="graph" transform="scale(1 1) rotate(0) translate(4 308)">
<polygon fill="white" stroke="none" points="-4,4 -4,-308 437.5,-308 437.5,4 -4,4"/>
<g id="clust1" class="cluster">
<title>cluster_tarball</title>
<polygon fill="none" stroke="black" points="8,-8 8,-296 425.5,-296 425.5,-8 8,-8"/>
<text xml:space="preserve" text-anchor="middle" x="216.75" y="-278.7" font-family="Times,serif" font-size="14.00">image.tar</text>
</g>
<g id="clust2" class="cluster">
<title>cluster_manifest</title>
<polygon fill="none" stroke="black" points="16,-24 16,-263 122.25,-263 122.25,-24 16,-24"/>
<text xml:space="preserve" text-anchor="middle" x="69.12" y="-245.7" font-family="Times,serif" font-size="14.00">manifest.json</text>
</g>
<g id="clust3" class="cluster">
<title>cluster_layer1</title>
<polygon fill="none" stroke="black" points="317.25,-48 317.25,-149 417.5,-149 417.5,-48 317.25,-48"/>
<text xml:space="preserve" text-anchor="middle" x="367.38" y="-131.7" font-family="Times,serif" font-size="14.00">layer.tar.gz</text>
</g>
<g id="clust4" class="cluster">
<title>cluster_layer2</title>
<polygon fill="none" stroke="black" points="317.25,-157 317.25,-258 417.5,-258 417.5,-157 317.25,-157"/>
<text xml:space="preserve" text-anchor="middle" x="367.38" y="-240.7" font-family="Times,serif" font-size="14.00">layer.tar.gz</text>
</g>
<!-- mconfig -->
<g id="node1" class="node">
<title>mconfig</title>
<polygon fill="none" stroke="black" points="96.12,-122 42.12,-122 42.12,-86 96.12,-86 96.12,-122"/>
<text xml:space="preserve" text-anchor="middle" x="69.12" y="-98.95" font-family="Times,serif" font-size="14.00">Config</text>
</g>
<!-- config -->
<g id="node5" class="node">
<title>config</title>
<polygon fill="none" stroke="black" points="250.75,-158 202.75,-158 202.75,-122 256.75,-122 256.75,-152 250.75,-158"/>
<polyline fill="none" stroke="black" points="250.75,-158 250.75,-152"/>
<polyline fill="none" stroke="black" points="256.75,-152 250.75,-152"/>
<text xml:space="preserve" text-anchor="middle" x="229.75" y="-134.95" font-family="Times,serif" font-size="14.00">config</text>
</g>
<!-- mconfig&#45;&gt;config -->
<g id="edge1" class="edge">
<title>mconfig&#45;&gt;config</title>
<path fill="none" stroke="black" d="M96.32,-109.94C122.19,-115.82 162.01,-124.85 191.23,-131.49"/>
<polygon fill="black" stroke="black" points="190.25,-134.85 200.78,-133.65 191.8,-128.02 190.25,-134.85"/>
<text xml:space="preserve" text-anchor="middle" x="156.25" y="-131.56" font-family="Times,serif" font-size="14.00">image id</text>
</g>
<!-- layers -->
<g id="node2" class="node">
<title>layers</title>
<polygon fill="none" stroke="black" points="96.12,-176 42.12,-176 42.12,-140 96.12,-140 96.12,-176"/>
<text xml:space="preserve" text-anchor="middle" x="69.12" y="-152.95" font-family="Times,serif" font-size="14.00">Layers</text>
</g>
<!-- l1 -->
<g id="node6" class="node">
<title>l1</title>
<polygon fill="none" stroke="black" points="397.5,-104 394.5,-108 373.5,-108 370.5,-104 337.25,-104 337.25,-68 397.5,-68 397.5,-104"/>
<text xml:space="preserve" text-anchor="middle" x="367.38" y="-80.95" font-family="Times,serif" font-size="14.00">layer.tar</text>
</g>
<!-- layers&#45;&gt;l1 -->
<g id="edge2" class="edge">
<title>layers&#45;&gt;l1</title>
<path fill="none" stroke="black" d="M96.45,-149.52C105.81,-145.31 115.65,-139.3 122.25,-131 133.39,-117 119.11,-104.15 132.25,-92 156.59,-69.5 244.92,-73.23 305.84,-78.9"/>
<polygon fill="black" stroke="black" points="305.45,-82.38 315.75,-79.87 306.13,-75.41 305.45,-82.38"/>
<text xml:space="preserve" text-anchor="middle" x="229.75" y="-78.76" font-family="Times,serif" font-size="14.00">layer digest</text>
</g>
<!-- l2 -->
<g id="node7" class="node">
<title>l2</title>
<polygon fill="none" stroke="black" points="397.5,-213 394.5,-217 373.5,-217 370.5,-213 337.25,-213 337.25,-177 397.5,-177 397.5,-213"/>
<text xml:space="preserve" text-anchor="middle" x="367.38" y="-189.95" font-family="Times,serif" font-size="14.00">layer.tar</text>
</g>
<!-- layers&#45;&gt;l2 -->
<g id="edge3" class="edge">
<title>layers&#45;&gt;l2</title>
<path fill="none" stroke="black" d="M96.56,-168.68C105.3,-172.97 114.7,-178.46 122.25,-185 128.03,-190.01 125.91,-194.72 132.25,-199 157.26,-215.9 168.28,-211.42 198.25,-215 234.08,-219.28 274.2,-214.86 306.27,-209.09"/>
<polygon fill="black" stroke="black" points="306.59,-212.59 315.76,-207.29 305.29,-205.72 306.59,-212.59"/>
<text xml:space="preserve" text-anchor="middle" x="229.75" y="-219.91" font-family="Times,serif" font-size="14.00">layer digest</text>
</g>
<!-- sources -->
<g id="node3" class="node">
<title>sources</title>
<polygon fill="none" stroke="black" points="114.25,-68 24,-68 24,-32 114.25,-32 114.25,-68"/>
<text xml:space="preserve" text-anchor="middle" x="69.12" y="-44.95" font-family="Times,serif" font-size="14.00">LayerSources</text>
</g>
<!-- sources&#45;&gt;l1 -->
<g id="edge6" class="edge">
<title>sources&#45;&gt;l1</title>
<path fill="none" stroke="black" d="M114.52,-45.2C153.49,-42.04 211.55,-39.9 261.25,-48.5 283.38,-52.33 307.02,-60.38 326.26,-68.04"/>
<polygon fill="black" stroke="black" points="324.77,-71.21 335.35,-71.77 327.43,-64.74 324.77,-71.21"/>
<text xml:space="preserve" text-anchor="middle" x="229.75" y="-51.7" font-family="Times,serif" font-size="14.00">diffid</text>
</g>
<!-- sources&#45;&gt;l2 -->
<g id="edge7" class="edge">
<title>sources&#45;&gt;l2</title>
<path fill="none" stroke="black" d="M114.45,-68.4C117.43,-70.93 120.09,-73.78 122.25,-77 136.17,-97.75 114.03,-171.9 132.25,-189 135.72,-192.26 259.38,-193.96 325.55,-194.64"/>
<polygon fill="black" stroke="black" points="325.26,-198.14 335.29,-194.74 325.32,-191.14 325.26,-198.14"/>
<text xml:space="preserve" text-anchor="middle" x="229.75" y="-196.99" font-family="Times,serif" font-size="14.00">diffid</text>
</g>
<!-- tags -->
<g id="node4" class="node">
<title>tags</title>
<polygon fill="none" stroke="black" points="104.5,-230 33.75,-230 33.75,-194 104.5,-194 104.5,-230"/>
<text xml:space="preserve" text-anchor="middle" x="69.12" y="-206.95" font-family="Times,serif" font-size="14.00">RepoTags</text>
</g>
<!-- config&#45;&gt;l1 -->
<g id="edge4" class="edge">
<title>config&#45;&gt;l1</title>
<path fill="none" stroke="black" d="M257.22,-129.46C276.96,-121.6 304.26,-110.73 326.62,-101.83"/>
<polygon fill="black" stroke="black" points="327.75,-105.15 335.74,-98.2 325.16,-98.64 327.75,-105.15"/>
<text xml:space="preserve" text-anchor="middle" x="294.25" y="-122.62" font-family="Times,serif" font-size="14.00">diffid</text>
</g>
<!-- config&#45;&gt;l2 -->
<g id="edge5" class="edge">
<title>config&#45;&gt;l2</title>
<path fill="none" stroke="black" d="M257.22,-150.74C276.96,-158.74 304.26,-169.81 326.62,-178.88"/>
<polygon fill="black" stroke="black" points="325.16,-182.06 335.75,-182.58 327.79,-175.58 325.16,-182.06"/>
<text xml:space="preserve" text-anchor="middle" x="294.25" y="-173.99" font-family="Times,serif" font-size="14.00">diffid</text>
</g>
</g>
</svg>
