<?xml version="1.0" encoding="UTF-8" standalone="no"?>
<!DOCTYPE svg PUBLIC "-//W3C//DTD SVG 1.1//EN"
 "http://www.w3.org/Graphics/SVG/1.1/DTD/svg11.dtd">
<!-- Generated by graphviz version 14.0.1 (20251006.0113)
 -->
<!-- Title: G Pages: 1 -->
<svg width="517pt" height="894pt"
 viewBox="0.00 0.00 517.00 894.00" xmlns="http://www.w3.org/2000/svg" xmlns:xlink="http://www.w3.org/1999/xlink">
<g id="graph0" class="graph" transform="scale(1 1) rotate(0) translate(4 889.94)">
<title>G</title>
<polygon fill="white" stroke="none" points="-4,4 -4,-889.94 512.66,-889.94 512.66,4 -4,4"/>
<!-- fs -->
<g id="node1" class="node">
<title>fs</title>
<g id="a_node1"><a xlink:href="https://github.com/opencontainers/image-spec/blob/master/layer.md" xlink:title="filesystem\nchangeset">
<polygon fill="none" stroke="black" points="298,-885.94 295,-889.94 274,-889.94 271,-885.94 225.75,-885.94 225.75,-844.94 298,-844.94 298,-885.94"/>
<text xml:space="preserve" text-anchor="middle" x="261.88" y="-868.64" font-family="Times,serif" font-size="14.00">filesystem</text>
<text xml:space="preserve" text-anchor="middle" x="261.88" y="-852.14" font-family="Times,serif" font-size="14.00">changeset</text>
</a>
</g>
</g>
<!-- tar -->
<g id="node3" class="node">
<title>tar</title>
<polygon fill="none" stroke="black" points="288.88,-808.94 234.88,-808.94 234.88,-772.94 288.88,-772.94 288.88,-808.94"/>
<text xml:space="preserve" text-anchor="middle" x="261.88" y="-785.89" font-family="Times,serif" font-size="14.00">tar</text>
</g>
<!-- fs&#45;&gt;tar -->
<g id="edge2" class="edge">
<title>fs&#45;&gt;tar</title>
<path fill="none" stroke="black" d="M261.88,-844.62C261.88,-837.19 261.88,-828.58 261.88,-820.51"/>
<polygon fill="black" stroke="black" points="265.38,-820.77 261.88,-810.77 258.38,-820.77 265.38,-820.77"/>
</g>
<!-- configuration -->
<g id="node2" class="node">
<title>configuration</title>
<g id="a_node2"><a xlink:href="https://github.com/opencontainers/image-spec/blob/master/config.md#properties" xlink:title="image\nconfig">
<polygon fill="none" stroke="black" points="306.11,-559.46 285.49,-592.94 244.26,-592.94 223.64,-559.46 244.26,-525.98 285.49,-525.98 306.11,-559.46"/>
<text xml:space="preserve" text-anchor="middle" x="264.88" y="-562.66" font-family="Times,serif" font-size="14.00">image</text>
<text xml:space="preserve" text-anchor="middle" x="264.88" y="-546.16" font-family="Times,serif" font-size="14.00">config</text>
</a>
</g>
</g>
<!-- config -->
<g id="node16" class="node">
<title>config</title>
<g id="a_node16"><a xlink:href="https://github.com/opencontainers/image-spec/blob/master/config.md" xlink:title="config file">
<polygon fill="none" stroke="black" points="204,-489.98 137.75,-489.98 137.75,-453.98 210,-453.98 210,-483.98 204,-489.98"/>
<polyline fill="none" stroke="black" points="204,-489.98 204,-483.98"/>
<polyline fill="none" stroke="black" points="210,-483.98 204,-483.98"/>
<text xml:space="preserve" text-anchor="middle" x="173.88" y="-466.93" font-family="Times,serif" font-size="14.00">config file</text>
</a>
</g>
</g>
<!-- configuration&#45;&gt;config -->
<g id="edge1" class="edge">
<title>configuration&#45;&gt;config</title>
<path fill="none" stroke="black" d="M239.04,-534.19C227.04,-522.91 212.76,-509.51 200.64,-498.12"/>
<polygon fill="black" stroke="black" points="203.05,-495.58 193.36,-491.28 198.25,-500.68 203.05,-495.58"/>
</g>
<!-- tee -->
<g id="node5" class="node">
<title>tee</title>
<polygon fill="none" stroke="black" points="288.88,-736.94 234.88,-736.94 234.88,-700.94 288.88,-700.94 288.88,-736.94"/>
<text xml:space="preserve" text-anchor="middle" x="261.88" y="-713.89" font-family="Times,serif" font-size="14.00">tee</text>
</g>
<!-- tar&#45;&gt;tee -->
<g id="edge3" class="edge">
<title>tar&#45;&gt;tee</title>
<path fill="none" stroke="black" d="M261.88,-772.63C261.88,-765.34 261.88,-756.66 261.88,-748.47"/>
<polygon fill="black" stroke="black" points="265.38,-748.55 261.88,-738.55 258.38,-748.55 265.38,-748.55"/>
</g>
<!-- gzip -->
<g id="node4" class="node">
<title>gzip</title>
<polygon fill="none" stroke="black" points="353.88,-664.94 299.88,-664.94 299.88,-628.94 353.88,-628.94 353.88,-664.94"/>
<text xml:space="preserve" text-anchor="middle" x="326.88" y="-641.89" font-family="Times,serif" font-size="14.00">gzip</text>
</g>
<!-- layer -->
<g id="node17" class="node">
<title>layer</title>
<g id="a_node17"><a xlink:href="https://github.com/opencontainers/image-spec/blob/master/layer.md" xlink:title="layer">
<polygon fill="none" stroke="black" points="382.88,-577.46 334.88,-577.46 334.88,-541.46 388.88,-541.46 388.88,-571.46 382.88,-577.46"/>
<polyline fill="none" stroke="black" points="382.88,-577.46 382.88,-571.46"/>
<polyline fill="none" stroke="black" points="388.88,-571.46 382.88,-571.46"/>
<text xml:space="preserve" text-anchor="middle" x="361.88" y="-554.41" font-family="Times,serif" font-size="14.00">layer</text>
</a>
</g>
</g>
<!-- gzip&#45;&gt;layer -->
<g id="edge7" class="edge">
<title>gzip&#45;&gt;layer</title>
<path fill="none" stroke="black" d="M333.96,-628.64C338.7,-617.05 345.05,-601.54 350.5,-588.25"/>
<polygon fill="black" stroke="black" points="353.68,-589.71 354.23,-579.13 347.2,-587.06 353.68,-589.71"/>
</g>
<!-- tee&#45;&gt;gzip -->
<g id="edge6" class="edge">
<title>tee&#45;&gt;gzip</title>
<path fill="none" stroke="black" d="M277.95,-700.63C285.58,-692.41 294.86,-682.42 303.27,-673.36"/>
<polygon fill="black" stroke="black" points="305.73,-675.86 309.97,-666.15 300.6,-671.1 305.73,-675.86"/>
</g>
<!-- sha256sum -->
<g id="node8" class="node">
<title>sha256sum</title>
<polygon fill="none" stroke="black" points="258.63,-664.94 181.13,-664.94 181.13,-628.94 258.63,-628.94 258.63,-664.94"/>
<text xml:space="preserve" text-anchor="middle" x="219.88" y="-641.89" font-family="Times,serif" font-size="14.00">sha256sum</text>
</g>
<!-- tee&#45;&gt;sha256sum -->
<g id="edge4" class="edge">
<title>tee&#45;&gt;sha256sum</title>
<path fill="none" stroke="black" d="M251.5,-700.63C246.82,-692.83 241.18,-683.44 235.98,-674.76"/>
<polygon fill="black" stroke="black" points="239.07,-673.11 230.92,-666.34 233.06,-676.71 239.07,-673.11"/>
</g>
<!-- tee2 -->
<g id="node6" class="node">
<title>tee2</title>
<polygon fill="none" stroke="black" points="414.88,-417.98 360.88,-417.98 360.88,-381.98 414.88,-381.98 414.88,-417.98"/>
<text xml:space="preserve" text-anchor="middle" x="387.88" y="-394.93" font-family="Times,serif" font-size="14.00">tee</text>
</g>
<!-- sha256sum2 -->
<g id="node9" class="node">
<title>sha256sum2</title>
<polygon fill="none" stroke="black" points="376.63,-345.98 299.13,-345.98 299.13,-309.98 376.63,-309.98 376.63,-345.98"/>
<text xml:space="preserve" text-anchor="middle" x="337.88" y="-322.93" font-family="Times,serif" font-size="14.00">sha256sum</text>
</g>
<!-- tee2&#45;&gt;sha256sum2 -->
<g id="edge9" class="edge">
<title>tee2&#45;&gt;sha256sum2</title>
<path fill="none" stroke="black" d="M375.52,-381.68C369.83,-373.71 362.95,-364.08 356.64,-355.25"/>
<polygon fill="black" stroke="black" points="359.64,-353.42 350.97,-347.32 353.94,-357.49 359.64,-353.42"/>
</g>
<!-- curl -->
<g id="node11" class="node">
<title>curl</title>
<polygon fill="none" stroke="black" points="486.88,-180 432.88,-180 432.88,-144 486.88,-144 486.88,-180"/>
<text xml:space="preserve" text-anchor="middle" x="459.88" y="-156.95" font-family="Times,serif" font-size="14.00">curl</text>
</g>
<!-- tee2&#45;&gt;curl -->
<g id="edge14" class="edge">
<title>tee2&#45;&gt;curl</title>
<path fill="none" stroke="black" d="M415.01,-385.45C431.61,-376.13 452.36,-362.47 466.88,-345.98 490.52,-319.13 494.66,-308.8 502.88,-273.98 508.8,-248.9 511.49,-240.29 502.88,-216 499.37,-206.1 493.13,-196.7 486.48,-188.65"/>
<polygon fill="black" stroke="black" points="489.19,-186.43 479.92,-181.29 483.97,-191.09 489.19,-186.43"/>
</g>
<!-- wc -->
<g id="node14" class="node">
<title>wc</title>
<polygon fill="none" stroke="black" points="457.88,-345.98 403.88,-345.98 403.88,-309.98 457.88,-309.98 457.88,-345.98"/>
<text xml:space="preserve" text-anchor="middle" x="430.88" y="-322.93" font-family="Times,serif" font-size="14.00">wc &#45;c</text>
</g>
<!-- tee2&#45;&gt;wc -->
<g id="edge11" class="edge">
<title>tee2&#45;&gt;wc</title>
<path fill="none" stroke="black" d="M398.51,-381.68C403.3,-373.88 409.07,-364.49 414.4,-355.81"/>
<polygon fill="black" stroke="black" points="417.33,-357.73 419.58,-347.38 411.36,-354.07 417.33,-357.73"/>
</g>
<!-- tee3 -->
<g id="node7" class="node">
<title>tee3</title>
<polygon fill="none" stroke="black" points="180.88,-417.98 126.88,-417.98 126.88,-381.98 180.88,-381.98 180.88,-417.98"/>
<text xml:space="preserve" text-anchor="middle" x="153.88" y="-394.93" font-family="Times,serif" font-size="14.00">tee</text>
</g>
<!-- sha256sum3 -->
<g id="node10" class="node">
<title>sha256sum3</title>
<polygon fill="none" stroke="black" points="223.63,-345.98 146.13,-345.98 146.13,-309.98 223.63,-309.98 223.63,-345.98"/>
<text xml:space="preserve" text-anchor="middle" x="184.88" y="-322.93" font-family="Times,serif" font-size="14.00">sha256sum</text>
</g>
<!-- tee3&#45;&gt;sha256sum3 -->
<g id="edge21" class="edge">
<title>tee3&#45;&gt;sha256sum3</title>
<path fill="none" stroke="black" d="M161.54,-381.68C164.92,-374.05 168.97,-364.9 172.75,-356.38"/>
<polygon fill="black" stroke="black" points="175.84,-358.03 176.69,-347.47 169.44,-355.2 175.84,-358.03"/>
</g>
<!-- curl2 -->
<g id="node12" class="node">
<title>curl2</title>
<polygon fill="none" stroke="black" points="144.88,-108 90.88,-108 90.88,-72 144.88,-72 144.88,-108"/>
<text xml:space="preserve" text-anchor="middle" x="117.88" y="-84.95" font-family="Times,serif" font-size="14.00">curl</text>
</g>
<!-- tee3&#45;&gt;curl2 -->
<g id="edge18" class="edge">
<title>tee3&#45;&gt;curl2</title>
<path fill="none" stroke="black" d="M126.46,-391.63C101.74,-383.81 65.71,-369.3 41.88,-345.98 16.31,-320.96 14.1,-308.8 5.88,-273.98 -0.04,-248.9 -3.33,-240.07 5.88,-216 21.78,-174.43 58.57,-137.97 85.67,-115.32"/>
<polygon fill="black" stroke="black" points="87.72,-118.16 93.27,-109.13 83.3,-112.73 87.72,-118.16"/>
</g>
<!-- wc2 -->
<g id="node15" class="node">
<title>wc2</title>
<polygon fill="none" stroke="black" points="104.88,-345.98 50.88,-345.98 50.88,-309.98 104.88,-309.98 104.88,-345.98"/>
<text xml:space="preserve" text-anchor="middle" x="77.88" y="-322.93" font-family="Times,serif" font-size="14.00">wc &#45;c</text>
</g>
<!-- tee3&#45;&gt;wc2 -->
<g id="edge20" class="edge">
<title>tee3&#45;&gt;wc2</title>
<path fill="none" stroke="black" d="M135.09,-381.68C126.05,-373.35 115.03,-363.21 105.09,-354.05"/>
<polygon fill="black" stroke="black" points="107.55,-351.56 97.82,-347.36 102.81,-356.7 107.55,-351.56"/>
</g>
<!-- diffid -->
<g id="node24" class="node">
<title>diffid</title>
<g id="a_node24"><a xlink:href="https://github.com/opencontainers/image-spec/blob/master/config.md#layer-diffid" xlink:title="diffid">
<ellipse fill="none" stroke="black" cx="173.88" cy="-559.46" rx="31.39" ry="18"/>
<text xml:space="preserve" text-anchor="middle" x="173.88" y="-554.41" font-family="Times,serif" font-size="14.00">diffid</text>
</a>
</g>
</g>
<!-- sha256sum&#45;&gt;diffid -->
<g id="edge5" class="edge">
<title>sha256sum&#45;&gt;diffid</title>
<path fill="none" stroke="black" stroke-dasharray="5,2" d="M210.57,-628.64C204.13,-616.67 195.43,-600.5 188.12,-586.92"/>
<polygon fill="black" stroke="black" points="191.4,-585.63 183.58,-578.48 185.23,-588.95 191.4,-585.63"/>
</g>
<!-- layer_digest -->
<g id="node23" class="node">
<title>layer_digest</title>
<ellipse fill="none" stroke="black" cx="329.88" cy="-244.99" rx="53.91" ry="18"/>
<text xml:space="preserve" text-anchor="middle" x="329.88" y="-239.94" font-family="Times,serif" font-size="14.00">layer digest</text>
</g>
<!-- sha256sum2&#45;&gt;layer_digest -->
<g id="edge10" class="edge">
<title>sha256sum2&#45;&gt;layer_digest</title>
<path fill="none" stroke="black" stroke-dasharray="5,2" d="M336.18,-309.81C335.17,-299.57 333.86,-286.31 332.7,-274.54"/>
<polygon fill="black" stroke="black" points="336.21,-274.54 331.75,-264.93 329.25,-275.22 336.21,-274.54"/>
</g>
<!-- config_digest -->
<g id="node22" class="node">
<title>config_digest</title>
<g id="a_node22"><a xlink:href="https://github.com/opencontainers/image-spec/blob/master/config.md#imageid" xlink:title="config digest\n(image id)">
<ellipse fill="none" stroke="black" cx="196.88" cy="-244.99" rx="61.16" ry="28.99"/>
<text xml:space="preserve" text-anchor="middle" x="196.88" y="-248.19" font-family="Times,serif" font-size="14.00">config digest</text>
<text xml:space="preserve" text-anchor="middle" x="196.88" y="-231.69" font-family="Times,serif" font-size="14.00">(image id)</text>
</a>
</g>
</g>
<!-- sha256sum3&#45;&gt;config_digest -->
<g id="edge23" class="edge">
<title>sha256sum3&#45;&gt;config_digest</title>
<path fill="none" stroke="black" stroke-dasharray="5,2" d="M187.42,-309.81C188.48,-302.64 189.77,-293.99 191.04,-285.41"/>
<polygon fill="black" stroke="black" points="194.46,-286.2 192.46,-275.79 187.53,-285.17 194.46,-286.2"/>
</g>
<!-- registry -->
<g id="node19" class="node">
<title>registry</title>
<g id="a_node19"><a xlink:href="https://github.com/opencontainers/distribution-spec/blob/master/spec.md" xlink:title="registry">
<path fill="none" stroke="black" d="M287.5,-32.73C287.5,-34.53 274.67,-36 258.88,-36 243.08,-36 230.25,-34.53 230.25,-32.73 230.25,-32.73 230.25,-3.27 230.25,-3.27 230.25,-1.47 243.08,0 258.88,0 274.67,0 287.5,-1.47 287.5,-3.27 287.5,-3.27 287.5,-32.73 287.5,-32.73"/>
<path fill="none" stroke="black" d="M287.5,-32.73C287.5,-30.92 274.67,-29.45 258.88,-29.45 243.08,-29.45 230.25,-30.92 230.25,-32.73"/>
<text xml:space="preserve" text-anchor="middle" x="258.88" y="-12.95" font-family="Times,serif" font-size="14.00">registry</text>
</a>
</g>
</g>
<!-- curl&#45;&gt;registry -->
<g id="edge15" class="edge">
<title>curl&#45;&gt;registry</title>
<path fill="none" stroke="black" d="M435.23,-143.59C399.11,-118.07 331.73,-70.47 291.53,-42.06"/>
<polygon fill="black" stroke="black" points="293.59,-39.24 283.4,-36.33 289.55,-44.96 293.59,-39.24"/>
</g>
<!-- curl2&#45;&gt;registry -->
<g id="edge19" class="edge">
<title>curl2&#45;&gt;registry</title>
<path fill="none" stroke="black" d="M145.06,-75.5C166.26,-64.98 195.97,-50.23 219.73,-38.44"/>
<polygon fill="black" stroke="black" points="221.08,-41.67 228.48,-34.09 217.96,-35.4 221.08,-41.67"/>
</g>
<!-- curl3 -->
<g id="node13" class="node">
<title>curl3</title>
<polygon fill="none" stroke="black" points="285.88,-108 231.88,-108 231.88,-72 285.88,-72 285.88,-108"/>
<text xml:space="preserve" text-anchor="middle" x="258.88" y="-84.95" font-family="Times,serif" font-size="14.00">curl</text>
</g>
<!-- curl3&#45;&gt;registry -->
<g id="edge28" class="edge">
<title>curl3&#45;&gt;registry</title>
<path fill="none" stroke="black" d="M258.88,-71.7C258.88,-64.41 258.88,-55.73 258.88,-47.54"/>
<polygon fill="black" stroke="black" points="262.38,-47.62 258.88,-37.62 255.38,-47.62 262.38,-47.62"/>
</g>
<!-- layer_size -->
<g id="node21" class="node">
<title>layer_size</title>
<ellipse fill="none" stroke="black" cx="447.88" cy="-244.99" rx="46.23" ry="18"/>
<text xml:space="preserve" text-anchor="middle" x="447.88" y="-239.94" font-family="Times,serif" font-size="14.00">layer size</text>
</g>
<!-- wc&#45;&gt;layer_size -->
<g id="edge12" class="edge">
<title>wc&#45;&gt;layer_size</title>
<path fill="none" stroke="black" stroke-dasharray="1,5" d="M434.48,-309.81C436.63,-299.57 439.41,-286.31 441.89,-274.54"/>
<polygon fill="black" stroke="black" points="445.28,-275.41 443.91,-264.9 438.43,-273.97 445.28,-275.41"/>
</g>
<!-- config_size -->
<g id="node20" class="node">
<title>config_size</title>
<ellipse fill="none" stroke="black" cx="65.88" cy="-244.99" rx="51.35" ry="18"/>
<text xml:space="preserve" text-anchor="middle" x="65.88" y="-239.94" font-family="Times,serif" font-size="14.00">config size</text>
</g>
<!-- wc2&#45;&gt;config_size -->
<g id="edge22" class="edge">
<title>wc2&#45;&gt;config_size</title>
<path fill="none" stroke="black" stroke-dasharray="1,5" d="M75.33,-309.81C73.82,-299.57 71.85,-286.31 70.11,-274.54"/>
<polygon fill="black" stroke="black" points="73.61,-274.3 68.68,-264.92 66.69,-275.32 73.61,-274.3"/>
</g>
<!-- config&#45;&gt;tee3 -->
<g id="edge17" class="edge">
<title>config&#45;&gt;tee3</title>
<path fill="none" stroke="black" d="M168.93,-453.68C166.8,-446.22 164.26,-437.3 161.87,-428.95"/>
<polygon fill="black" stroke="black" points="165.29,-428.2 159.18,-419.54 158.56,-430.12 165.29,-428.2"/>
</g>
<!-- layer&#45;&gt;tee2 -->
<g id="edge8" class="edge">
<title>layer&#45;&gt;tee2</title>
<path fill="none" stroke="black" d="M364.76,-541C369.23,-513.9 377.89,-461.45 383.25,-429"/>
<polygon fill="black" stroke="black" points="386.64,-429.97 384.82,-419.53 379.73,-428.83 386.64,-429.97"/>
</g>
<!-- manifest -->
<g id="node18" class="node">
<title>manifest</title>
<g id="a_node18"><a xlink:href="https://github.com/opencontainers/image-spec/blob/master/manifest.md" xlink:title="manifest">
<polygon fill="none" stroke="black" points="284.5,-180 227.25,-180 227.25,-144 290.5,-144 290.5,-174 284.5,-180"/>
<polyline fill="none" stroke="black" points="284.5,-180 284.5,-174"/>
<polyline fill="none" stroke="black" points="290.5,-174 284.5,-174"/>
<text xml:space="preserve" text-anchor="middle" x="258.88" y="-156.95" font-family="Times,serif" font-size="14.00">manifest</text>
</a>
</g>
</g>
<!-- manifest&#45;&gt;curl3 -->
<g id="edge27" class="edge">
<title>manifest&#45;&gt;curl3</title>
<path fill="none" stroke="black" d="M258.88,-143.7C258.88,-136.41 258.88,-127.73 258.88,-119.54"/>
<polygon fill="black" stroke="black" points="262.38,-119.62 258.88,-109.62 255.38,-119.62 262.38,-119.62"/>
</g>
<!-- config_size&#45;&gt;manifest -->
<g id="edge25" class="edge">
<title>config_size&#45;&gt;manifest</title>
<path fill="none" stroke="black" stroke-dasharray="1,5" d="M95.53,-230.03C105.45,-225.46 116.6,-220.42 126.88,-216 156.56,-203.24 190.37,-189.68 216.34,-179.47"/>
<polygon fill="black" stroke="black" points="217.52,-182.77 225.55,-175.87 214.96,-176.26 217.52,-182.77"/>
</g>
<!-- layer_size&#45;&gt;manifest -->
<g id="edge13" class="edge">
<title>layer_size&#45;&gt;manifest</title>
<path fill="none" stroke="black" stroke-dasharray="1,5" d="M421.27,-229.81C412.33,-225.22 402.25,-220.23 392.88,-216 362.71,-202.39 327.94,-188.7 301.38,-178.64"/>
<polygon fill="black" stroke="black" points="302.92,-175.48 292.32,-175.23 300.45,-182.03 302.92,-175.48"/>
</g>
<!-- config_digest&#45;&gt;manifest -->
<g id="edge24" class="edge">
<title>config_digest&#45;&gt;manifest</title>
<path fill="none" stroke="black" stroke-dasharray="5,2" d="M217.18,-217.47C224.1,-208.43 231.83,-198.33 238.74,-189.31"/>
<polygon fill="black" stroke="black" points="241.35,-191.66 244.65,-181.59 235.79,-187.4 241.35,-191.66"/>
</g>
<!-- layer_digest&#45;&gt;manifest -->
<g id="edge26" class="edge">
<title>layer_digest&#45;&gt;manifest</title>
<path fill="none" stroke="black" stroke-dasharray="5,2" d="M315.17,-227.21C305.4,-216.07 292.39,-201.22 281.33,-188.62"/>
<polygon fill="black" stroke="black" points="284.28,-186.67 275.06,-181.46 279.02,-191.28 284.28,-186.67"/>
</g>
<!-- diffid&#45;&gt;config -->
<g id="edge16" class="edge">
<title>diffid&#45;&gt;config</title>
<path fill="none" stroke="black" stroke-dasharray="5,2" d="M173.88,-541.16C173.88,-529.81 173.88,-514.69 173.88,-501.57"/>
<polygon fill="black" stroke="black" points="177.38,-501.77 173.88,-491.77 170.38,-501.77 177.38,-501.77"/>
</g>
</g>
</svg>
