<?xml version="1.0" encoding="UTF-8" standalone="no"?>
<!DOCTYPE svg PUBLIC "-//W3C//DTD SVG 1.1//EN"
 "http://www.w3.org/Graphics/SVG/1.1/DTD/svg11.dtd">
<!-- Generated by graphviz version 2.43.0 (0)
 -->
<!-- Title: G Pages: 1 -->
<svg width="505pt" height="882pt"
 viewBox="0.00 0.00 504.64 881.79" xmlns="http://www.w3.org/2000/svg" xmlns:xlink="http://www.w3.org/1999/xlink">
<g id="graph0" class="graph" transform="scale(1 1) rotate(0) translate(4 877.79)">
<title>G</title>
<polygon fill="white" stroke="transparent" points="-4,4 -4,-877.79 500.64,-877.79 500.64,4 -4,4"/>
<!-- fs -->
<g id="node1" class="node">
<title>fs</title>
<g id="a_node1"><a xlink:href="https://github.com/opencontainers/image-spec/blob/master/layer.md" xlink:title="filesystem\nchangeset">
<polygon fill="none" stroke="black" points="291.97,-873.79 288.97,-877.79 267.97,-877.79 264.97,-873.79 218.97,-873.79 218.97,-835.79 291.97,-835.79 291.97,-873.79"/>
<text text-anchor="middle" x="255.47" y="-858.59" font-family="Times,serif" font-size="14.00">filesystem</text>
<text text-anchor="middle" x="255.47" y="-843.59" font-family="Times,serif" font-size="14.00">changeset</text>
</a>
</g>
</g>
<!-- tar -->
<g id="node3" class="node">
<title>tar</title>
<polygon fill="none" stroke="black" points="282.47,-799.79 228.47,-799.79 228.47,-763.79 282.47,-763.79 282.47,-799.79"/>
<text text-anchor="middle" x="255.47" y="-778.09" font-family="Times,serif" font-size="14.00">tar</text>
</g>
<!-- fs&#45;&gt;tar -->
<g id="edge2" class="edge">
<title>fs&#45;&gt;tar</title>
<path fill="none" stroke="black" d="M255.47,-835.51C255.47,-827.77 255.47,-818.58 255.47,-810.07"/>
<polygon fill="black" stroke="black" points="258.97,-809.8 255.47,-799.8 251.97,-809.8 258.97,-809.8"/>
</g>
<!-- configuration -->
<g id="node2" class="node">
<title>configuration</title>
<g id="a_node2"><a xlink:href="https://github.com/opencontainers/image-spec/blob/master/config.md#properties" xlink:title="image\nconfig">
<polygon fill="none" stroke="black" points="299.26,-552.77 278.36,-583.82 236.58,-583.82 215.69,-552.77 236.58,-521.71 278.36,-521.71 299.26,-552.77"/>
<text text-anchor="middle" x="257.47" y="-556.57" font-family="Times,serif" font-size="14.00">image</text>
<text text-anchor="middle" x="257.47" y="-541.57" font-family="Times,serif" font-size="14.00">config</text>
</a>
</g>
</g>
<!-- config -->
<g id="node16" class="node">
<title>config</title>
<g id="a_node16"><a xlink:href="https://github.com/opencontainers/image-spec/blob/master/config.md" xlink:title="config file">
<polygon fill="none" stroke="black" points="197.97,-485.74 130.97,-485.74 130.97,-449.74 203.97,-449.74 203.97,-479.74 197.97,-485.74"/>
<polyline fill="none" stroke="black" points="197.97,-485.74 197.97,-479.74 "/>
<polyline fill="none" stroke="black" points="203.97,-479.74 197.97,-479.74 "/>
<text text-anchor="middle" x="167.47" y="-464.04" font-family="Times,serif" font-size="14.00">config file</text>
</a>
</g>
</g>
<!-- configuration&#45;&gt;config -->
<g id="edge1" class="edge">
<title>configuration&#45;&gt;config</title>
<path fill="none" stroke="black" d="M231.92,-528.2C219.9,-517.11 205.59,-503.9 193.5,-492.75"/>
<polygon fill="black" stroke="black" points="195.66,-489.98 185.93,-485.77 190.91,-495.12 195.66,-489.98"/>
</g>
<!-- tee -->
<g id="node5" class="node">
<title>tee</title>
<polygon fill="none" stroke="black" points="282.47,-727.79 228.47,-727.79 228.47,-691.79 282.47,-691.79 282.47,-727.79"/>
<text text-anchor="middle" x="255.47" y="-706.09" font-family="Times,serif" font-size="14.00">tee</text>
</g>
<!-- tar&#45;&gt;tee -->
<g id="edge3" class="edge">
<title>tar&#45;&gt;tee</title>
<path fill="none" stroke="black" d="M255.47,-763.49C255.47,-755.78 255.47,-746.51 255.47,-737.91"/>
<polygon fill="black" stroke="black" points="258.97,-737.9 255.47,-727.9 251.97,-737.9 258.97,-737.9"/>
</g>
<!-- gzip -->
<g id="node4" class="node">
<title>gzip</title>
<polygon fill="none" stroke="black" points="347.47,-655.79 293.47,-655.79 293.47,-619.79 347.47,-619.79 347.47,-655.79"/>
<text text-anchor="middle" x="320.47" y="-634.09" font-family="Times,serif" font-size="14.00">gzip</text>
</g>
<!-- layer -->
<g id="node17" class="node">
<title>layer</title>
<g id="a_node17"><a xlink:href="https://github.com/opencontainers/image-spec/blob/master/layer.md" xlink:title="layer">
<polygon fill="none" stroke="black" points="375.47,-570.77 327.47,-570.77 327.47,-534.77 381.47,-534.77 381.47,-564.77 375.47,-570.77"/>
<polyline fill="none" stroke="black" points="375.47,-570.77 375.47,-564.77 "/>
<polyline fill="none" stroke="black" points="381.47,-564.77 375.47,-564.77 "/>
<text text-anchor="middle" x="354.47" y="-549.07" font-family="Times,serif" font-size="14.00">layer</text>
</a>
</g>
</g>
<!-- gzip&#45;&gt;layer -->
<g id="edge7" class="edge">
<title>gzip&#45;&gt;layer</title>
<path fill="none" stroke="black" d="M327.52,-619.59C332.17,-608.24 338.35,-593.13 343.62,-580.26"/>
<polygon fill="black" stroke="black" points="346.89,-581.53 347.44,-570.95 340.41,-578.88 346.89,-581.53"/>
</g>
<!-- tee&#45;&gt;gzip -->
<g id="edge6" class="edge">
<title>tee&#45;&gt;gzip</title>
<path fill="none" stroke="black" d="M271.54,-691.49C279.41,-683.01 289.03,-672.66 297.65,-663.38"/>
<polygon fill="black" stroke="black" points="300.35,-665.61 304.59,-655.9 295.22,-660.84 300.35,-665.61"/>
</g>
<!-- sha256sum -->
<g id="node8" class="node">
<title>sha256sum</title>
<polygon fill="none" stroke="black" points="252.47,-655.79 174.47,-655.79 174.47,-619.79 252.47,-619.79 252.47,-655.79"/>
<text text-anchor="middle" x="213.47" y="-634.09" font-family="Times,serif" font-size="14.00">sha256sum</text>
</g>
<!-- tee&#45;&gt;sha256sum -->
<g id="edge4" class="edge">
<title>tee&#45;&gt;sha256sum</title>
<path fill="none" stroke="black" d="M245.09,-691.49C240.21,-683.35 234.29,-673.48 228.89,-664.5"/>
<polygon fill="black" stroke="black" points="231.88,-662.67 223.73,-655.9 225.88,-666.27 231.88,-662.67"/>
</g>
<!-- tee2 -->
<g id="node6" class="node">
<title>tee2</title>
<polygon fill="none" stroke="black" points="407.47,-413.74 353.47,-413.74 353.47,-377.74 407.47,-377.74 407.47,-413.74"/>
<text text-anchor="middle" x="380.47" y="-392.04" font-family="Times,serif" font-size="14.00">tee</text>
</g>
<!-- sha256sum2 -->
<g id="node9" class="node">
<title>sha256sum2</title>
<polygon fill="none" stroke="black" points="370.47,-341.74 292.47,-341.74 292.47,-305.74 370.47,-305.74 370.47,-341.74"/>
<text text-anchor="middle" x="331.47" y="-320.04" font-family="Times,serif" font-size="14.00">sha256sum</text>
</g>
<!-- tee2&#45;&gt;sha256sum2 -->
<g id="edge9" class="edge">
<title>tee2&#45;&gt;sha256sum2</title>
<path fill="none" stroke="black" d="M368.36,-377.44C362.6,-369.21 355.61,-359.22 349.27,-350.16"/>
<polygon fill="black" stroke="black" points="352.05,-348.03 343.44,-341.84 346.31,-352.04 352.05,-348.03"/>
</g>
<!-- curl -->
<g id="node11" class="node">
<title>curl</title>
<polygon fill="none" stroke="black" points="476.47,-180 422.47,-180 422.47,-144 476.47,-144 476.47,-180"/>
<text text-anchor="middle" x="449.47" y="-158.3" font-family="Times,serif" font-size="14.00">curl</text>
</g>
<!-- tee2&#45;&gt;curl -->
<g id="edge14" class="edge">
<title>tee2&#45;&gt;curl</title>
<path fill="none" stroke="black" d="M407.49,-381.64C424.25,-372.41 445.23,-358.68 459.47,-341.74 482.01,-314.94 484.2,-304 491.47,-269.74 496.43,-246.38 499.33,-238.56 491.47,-216 487.94,-205.86 481.57,-196.19 474.84,-187.96"/>
<polygon fill="black" stroke="black" points="477.3,-185.46 468.08,-180.24 472.03,-190.07 477.3,-185.46"/>
</g>
<!-- wc -->
<g id="node14" class="node">
<title>wc</title>
<polygon fill="none" stroke="black" points="450.47,-341.74 396.47,-341.74 396.47,-305.74 450.47,-305.74 450.47,-341.74"/>
<text text-anchor="middle" x="423.47" y="-320.04" font-family="Times,serif" font-size="14.00">wc &#45;c</text>
</g>
<!-- tee2&#45;&gt;wc -->
<g id="edge11" class="edge">
<title>tee2&#45;&gt;wc</title>
<path fill="none" stroke="black" d="M391.1,-377.44C396.1,-369.3 402.16,-359.43 407.68,-350.44"/>
<polygon fill="black" stroke="black" points="410.71,-352.2 412.96,-341.84 404.75,-348.53 410.71,-352.2"/>
</g>
<!-- tee3 -->
<g id="node7" class="node">
<title>tee3</title>
<polygon fill="none" stroke="black" points="175.47,-413.74 121.47,-413.74 121.47,-377.74 175.47,-377.74 175.47,-413.74"/>
<text text-anchor="middle" x="148.47" y="-392.04" font-family="Times,serif" font-size="14.00">tee</text>
</g>
<!-- sha256sum3 -->
<g id="node10" class="node">
<title>sha256sum3</title>
<polygon fill="none" stroke="black" points="220.47,-341.74 142.47,-341.74 142.47,-305.74 220.47,-305.74 220.47,-341.74"/>
<text text-anchor="middle" x="181.47" y="-320.04" font-family="Times,serif" font-size="14.00">sha256sum</text>
</g>
<!-- tee3&#45;&gt;sha256sum3 -->
<g id="edge21" class="edge">
<title>tee3&#45;&gt;sha256sum3</title>
<path fill="none" stroke="black" d="M156.63,-377.44C160.39,-369.47 164.92,-359.84 169.09,-351"/>
<polygon fill="black" stroke="black" points="172.31,-352.38 173.41,-341.84 165.98,-349.4 172.31,-352.38"/>
</g>
<!-- curl2 -->
<g id="node12" class="node">
<title>curl2</title>
<polygon fill="none" stroke="black" points="140.47,-108 86.47,-108 86.47,-72 140.47,-72 140.47,-108"/>
<text text-anchor="middle" x="113.47" y="-86.3" font-family="Times,serif" font-size="14.00">curl</text>
</g>
<!-- tee3&#45;&gt;curl2 -->
<g id="edge18" class="edge">
<title>tee3&#45;&gt;curl2</title>
<path fill="none" stroke="black" d="M121.2,-387.18C97.07,-379.28 62.25,-364.78 39.47,-341.74 14.59,-316.57 13.22,-304.27 5.47,-269.74 0.25,-246.43 -2.86,-238.38 5.47,-216 20.88,-174.59 56.86,-137.75 83.07,-114.98"/>
<polygon fill="black" stroke="black" points="85.49,-117.51 90.85,-108.37 80.96,-112.17 85.49,-117.51"/>
</g>
<!-- wc2 -->
<g id="node15" class="node">
<title>wc2</title>
<polygon fill="none" stroke="black" points="102.47,-341.74 48.47,-341.74 48.47,-305.74 102.47,-305.74 102.47,-341.74"/>
<text text-anchor="middle" x="75.47" y="-320.04" font-family="Times,serif" font-size="14.00">wc &#45;c</text>
</g>
<!-- tee3&#45;&gt;wc2 -->
<g id="edge20" class="edge">
<title>tee3&#45;&gt;wc2</title>
<path fill="none" stroke="black" d="M130.43,-377.44C121.41,-368.79 110.35,-358.19 100.53,-348.77"/>
<polygon fill="black" stroke="black" points="102.95,-346.24 93.31,-341.84 98.1,-351.29 102.95,-346.24"/>
</g>
<!-- diffid -->
<g id="node24" class="node">
<title>diffid</title>
<g id="a_node24"><a xlink:href="https://github.com/opencontainers/image-spec/blob/master/config.md#layer-diffid" xlink:title="diffid">
<ellipse fill="none" stroke="black" cx="167.47" cy="-552.77" rx="30.59" ry="18"/>
<text text-anchor="middle" x="167.47" y="-549.07" font-family="Times,serif" font-size="14.00">diffid</text>
</a>
</g>
</g>
<!-- sha256sum&#45;&gt;diffid -->
<g id="edge5" class="edge">
<title>sha256sum&#45;&gt;diffid</title>
<path fill="none" stroke="black" stroke-dasharray="5,2" d="M203.94,-619.59C197.46,-607.89 188.78,-592.22 181.51,-579.11"/>
<polygon fill="black" stroke="black" points="184.43,-577.15 176.52,-570.1 178.31,-580.54 184.43,-577.15"/>
</g>
<!-- layer_digest -->
<g id="node23" class="node">
<title>layer_digest</title>
<ellipse fill="none" stroke="black" cx="324.47" cy="-242.87" rx="51.99" ry="18"/>
<text text-anchor="middle" x="324.47" y="-239.17" font-family="Times,serif" font-size="14.00">layer digest</text>
</g>
<!-- sha256sum2&#45;&gt;layer_digest -->
<g id="edge10" class="edge">
<title>sha256sum2&#45;&gt;layer_digest</title>
<path fill="none" stroke="black" stroke-dasharray="5,2" d="M329.95,-305.63C329.05,-295.5 327.9,-282.44 326.87,-270.94"/>
<polygon fill="black" stroke="black" points="330.36,-270.6 325.99,-260.95 323.39,-271.22 330.36,-270.6"/>
</g>
<!-- config_digest -->
<g id="node22" class="node">
<title>config_digest</title>
<g id="a_node22"><a xlink:href="https://github.com/opencontainers/image-spec/blob/master/config.md#imageid" xlink:title="config digest\n(image id)">
<ellipse fill="none" stroke="black" cx="192.47" cy="-242.87" rx="61.54" ry="26.74"/>
<text text-anchor="middle" x="192.47" y="-246.67" font-family="Times,serif" font-size="14.00">config digest</text>
<text text-anchor="middle" x="192.47" y="-231.67" font-family="Times,serif" font-size="14.00">(image id)</text>
</a>
</g>
</g>
<!-- sha256sum3&#45;&gt;config_digest -->
<g id="edge23" class="edge">
<title>sha256sum3&#45;&gt;config_digest</title>
<path fill="none" stroke="black" stroke-dasharray="5,2" d="M183.86,-305.63C184.91,-298.06 186.2,-288.85 187.45,-279.88"/>
<polygon fill="black" stroke="black" points="190.92,-280.34 188.83,-269.95 183.99,-279.37 190.92,-280.34"/>
</g>
<!-- registry -->
<g id="node19" class="node">
<title>registry</title>
<g id="a_node19"><a xlink:href="https://github.com/opencontainers/distribution-spec/blob/master/spec.md" xlink:title="registry">
<path fill="none" stroke="black" d="M281.47,-32.73C281.47,-34.53 268.47,-36 252.47,-36 236.47,-36 223.47,-34.53 223.47,-32.73 223.47,-32.73 223.47,-3.27 223.47,-3.27 223.47,-1.47 236.47,0 252.47,0 268.47,0 281.47,-1.47 281.47,-3.27 281.47,-3.27 281.47,-32.73 281.47,-32.73"/>
<path fill="none" stroke="black" d="M281.47,-32.73C281.47,-30.92 268.47,-29.45 252.47,-29.45 236.47,-29.45 223.47,-30.92 223.47,-32.73"/>
<text text-anchor="middle" x="252.47" y="-14.3" font-family="Times,serif" font-size="14.00">registry</text>
</a>
</g>
</g>
<!-- curl&#45;&gt;registry -->
<g id="edge15" class="edge">
<title>curl&#45;&gt;registry</title>
<path fill="none" stroke="black" d="M425.71,-143.87C390.13,-118.22 322.98,-69.82 283.55,-41.4"/>
<polygon fill="black" stroke="black" points="285.26,-38.32 275.1,-35.31 281.17,-44 285.26,-38.32"/>
</g>
<!-- curl2&#45;&gt;registry -->
<g id="edge19" class="edge">
<title>curl2&#45;&gt;registry</title>
<path fill="none" stroke="black" d="M140.6,-75.34C161.53,-64.8 190.74,-50.09 214.06,-38.34"/>
<polygon fill="black" stroke="black" points="215.65,-41.46 223.01,-33.84 212.5,-35.21 215.65,-41.46"/>
</g>
<!-- curl3 -->
<g id="node13" class="node">
<title>curl3</title>
<polygon fill="none" stroke="black" points="279.47,-108 225.47,-108 225.47,-72 279.47,-72 279.47,-108"/>
<text text-anchor="middle" x="252.47" y="-86.3" font-family="Times,serif" font-size="14.00">curl</text>
</g>
<!-- curl3&#45;&gt;registry -->
<g id="edge28" class="edge">
<title>curl3&#45;&gt;registry</title>
<path fill="none" stroke="black" d="M252.47,-71.7C252.47,-63.98 252.47,-54.71 252.47,-46.11"/>
<polygon fill="black" stroke="black" points="255.97,-46.1 252.47,-36.1 248.97,-46.1 255.97,-46.1"/>
</g>
<!-- layer_size -->
<g id="node21" class="node">
<title>layer_size</title>
<ellipse fill="none" stroke="black" cx="438.47" cy="-242.87" rx="44.39" ry="18"/>
<text text-anchor="middle" x="438.47" y="-239.17" font-family="Times,serif" font-size="14.00">layer size</text>
</g>
<!-- wc&#45;&gt;layer_size -->
<g id="edge12" class="edge">
<title>wc&#45;&gt;layer_size</title>
<path fill="none" stroke="black" stroke-dasharray="1,5" d="M426.73,-305.63C428.65,-295.5 431.14,-282.44 433.32,-270.94"/>
<polygon fill="black" stroke="black" points="436.79,-271.43 435.22,-260.95 429.92,-270.12 436.79,-271.43"/>
</g>
<!-- config_size -->
<g id="node20" class="node">
<title>config_size</title>
<ellipse fill="none" stroke="black" cx="63.47" cy="-242.87" rx="49.29" ry="18"/>
<text text-anchor="middle" x="63.47" y="-239.17" font-family="Times,serif" font-size="14.00">config size</text>
</g>
<!-- wc2&#45;&gt;config_size -->
<g id="edge22" class="edge">
<title>wc2&#45;&gt;config_size</title>
<path fill="none" stroke="black" stroke-dasharray="1,5" d="M72.87,-305.63C71.33,-295.5 69.34,-282.44 67.59,-270.94"/>
<polygon fill="black" stroke="black" points="71.04,-270.31 66.07,-260.95 64.11,-271.36 71.04,-270.31"/>
</g>
<!-- config&#45;&gt;tee3 -->
<g id="edge17" class="edge">
<title>config&#45;&gt;tee3</title>
<path fill="none" stroke="black" d="M162.78,-449.44C160.66,-441.64 158.11,-432.25 155.75,-423.57"/>
<polygon fill="black" stroke="black" points="159.11,-422.58 153.11,-413.84 152.36,-424.41 159.11,-422.58"/>
</g>
<!-- layer&#45;&gt;tee2 -->
<g id="edge8" class="edge">
<title>layer&#45;&gt;tee2</title>
<path fill="none" stroke="black" d="M357.35,-534.58C361.84,-507.81 370.55,-455.91 375.9,-423.99"/>
<polygon fill="black" stroke="black" points="379.37,-424.44 377.58,-414 372.47,-423.28 379.37,-424.44"/>
</g>
<!-- manifest -->
<g id="node18" class="node">
<title>manifest</title>
<g id="a_node18"><a xlink:href="https://github.com/opencontainers/image-spec/blob/master/manifest.md" xlink:title="manifest">
<polygon fill="none" stroke="black" points="278.47,-180 220.47,-180 220.47,-144 284.47,-144 284.47,-174 278.47,-180"/>
<polyline fill="none" stroke="black" points="278.47,-180 278.47,-174 "/>
<polyline fill="none" stroke="black" points="284.47,-174 278.47,-174 "/>
<text text-anchor="middle" x="252.47" y="-158.3" font-family="Times,serif" font-size="14.00">manifest</text>
</a>
</g>
</g>
<!-- manifest&#45;&gt;curl3 -->
<g id="edge27" class="edge">
<title>manifest&#45;&gt;curl3</title>
<path fill="none" stroke="black" d="M252.47,-143.7C252.47,-135.98 252.47,-126.71 252.47,-118.11"/>
<polygon fill="black" stroke="black" points="255.97,-118.1 252.47,-108.1 248.97,-118.1 255.97,-118.1"/>
</g>
<!-- config_size&#45;&gt;manifest -->
<g id="edge25" class="edge">
<title>config_size&#45;&gt;manifest</title>
<path fill="none" stroke="black" stroke-dasharray="1,5" d="M93.19,-228.38C102.24,-224.33 112.24,-219.93 121.47,-216 151.2,-203.36 185.01,-189.7 210.83,-179.42"/>
<polygon fill="black" stroke="black" points="212.31,-182.59 220.31,-175.65 209.72,-176.09 212.31,-182.59"/>
</g>
<!-- layer_size&#45;&gt;manifest -->
<g id="edge13" class="edge">
<title>layer_size&#45;&gt;manifest</title>
<path fill="none" stroke="black" stroke-dasharray="1,5" d="M411.96,-228.45C403.56,-224.32 394.18,-219.85 385.47,-216 355.34,-202.66 320.75,-188.93 294.4,-178.78"/>
<polygon fill="black" stroke="black" points="295.32,-175.39 284.73,-175.08 292.82,-181.92 295.32,-175.39"/>
</g>
<!-- config_digest&#45;&gt;manifest -->
<g id="edge24" class="edge">
<title>config_digest&#45;&gt;manifest</title>
<path fill="none" stroke="black" stroke-dasharray="5,2" d="M211.46,-216.92C218.4,-207.79 226.25,-197.47 233.21,-188.32"/>
<polygon fill="black" stroke="black" points="236.04,-190.39 239.3,-180.31 230.46,-186.15 236.04,-190.39"/>
</g>
<!-- layer_digest&#45;&gt;manifest -->
<g id="edge26" class="edge">
<title>layer_digest&#45;&gt;manifest</title>
<path fill="none" stroke="black" stroke-dasharray="5,2" d="M309.55,-225.53C299.62,-214.65 286.38,-200.14 275.15,-187.84"/>
<polygon fill="black" stroke="black" points="277.45,-185.17 268.12,-180.14 272.28,-189.88 277.45,-185.17"/>
</g>
<!-- diffid&#45;&gt;config -->
<g id="edge16" class="edge">
<title>diffid&#45;&gt;config</title>
<path fill="none" stroke="black" stroke-dasharray="5,2" d="M167.47,-534.56C167.47,-523.43 167.47,-508.7 167.47,-495.99"/>
<polygon fill="black" stroke="black" points="170.97,-495.92 167.47,-485.92 163.97,-495.92 170.97,-495.92"/>
</g>
</g>
</svg>
